<svg width="1296" height="350" viewBox="0 0 1296 350" fill="none" xmlns="http://www.w3.org/2000/svg">
<g clip-path="url(#clip0_3_75)">
<path d="M769.729 155.034C789.826 155.034 808.858 167.329 812.874 193.893H723.37C727.116 170.583 744.541 155.034 769.729 155.034ZM810.013 233.194C803.178 243.849 789.965 252.045 771.876 252.045C746.951 252.045 727.919 238.382 723.37 214.261H835.659C836.201 210.803 836.475 207.31 836.479 203.81C836.479 166.296 810.251 133.06 769.745 133.06C727.944 133.06 699.536 163.878 699.536 203.548C699.536 243.71 728.223 274.036 771.351 274.036C798.153 274.036 818.521 261.971 830.307 243.71L810.013 233.194Z" fill="white"/>
<path d="M688.503 74.9073H665.193V270.544H688.503V74.9073Z" fill="white"/>
<path d="M966.185 188.27V270.536H942.867V189.606C942.867 167.632 930.277 155.305 909.639 155.305C888.198 155.305 870.78 167.902 870.78 199.524V270.536H847.462V136.56H870.78V155.854C880.698 140.043 895.435 133.076 914.221 133.076C945.572 133.076 966.21 153.977 966.21 188.287" fill="white"/>
<path d="M1094.74 203.54C1094.74 176.205 1074.11 155.567 1047.04 155.567C1020.24 155.567 999.61 176.205 999.61 203.54C999.61 230.874 1020.24 251.513 1047.04 251.513C1074.09 251.513 1094.74 230.874 1094.74 203.54ZM1118.05 74.9073V270.544H1094.74V247.488C1084.02 263.881 1066.88 274.028 1044.09 274.028C1006.84 274.028 976.291 243.202 976.291 203.54C976.291 163.878 1006.84 133.052 1044.09 133.052C1066.87 133.052 1084.02 143.232 1094.74 159.583V74.9073H1118.05Z" fill="white"/>
<path d="M1160.17 74.9073H1136.86V270.544H1160.17V74.9073Z" fill="white"/>
<path d="M623.638 203.54C623.638 176.205 603.008 155.567 575.936 155.567C549.142 155.567 528.504 176.205 528.504 203.54C528.504 230.874 549.142 251.513 575.936 251.513C602.983 251.513 623.638 230.874 623.638 203.54ZM646.956 136.56V270.536H623.638V247.488C612.917 263.881 595.771 274.028 572.993 274.028C535.741 274.028 505.185 243.202 505.185 203.54C505.185 163.878 535.741 133.052 572.993 133.052C595.771 133.052 612.917 143.232 623.638 159.583V136.56H646.956Z" fill="white"/>
<path d="M470.605 244.751C458.67 249.155 445.788 250.344 433.249 248.199C420.71 246.053 408.955 240.649 399.163 232.529C389.371 224.408 381.887 213.855 377.459 201.929C373.032 190.003 371.818 177.123 373.938 164.58C376.059 152.037 381.44 140.271 389.542 130.464C397.643 120.656 408.181 113.151 420.098 108.7C432.016 104.249 444.894 103.01 457.441 105.106C469.988 107.202 481.764 112.56 491.588 120.643C495.684 124.022 499.39 127.849 502.636 132.052L522.807 117.298C511.056 101.936 495.008 90.4084 476.698 84.1766C458.388 77.9448 438.64 77.2893 419.957 82.2934C401.273 87.2975 384.497 97.7357 371.753 112.285C359.008 126.835 350.871 144.84 348.371 164.019C345.871 183.199 349.122 202.689 357.711 220.018C366.301 237.348 379.841 251.738 396.618 261.363C413.394 270.989 432.651 275.417 451.946 274.087C471.242 272.756 489.708 265.727 505.005 253.89L491.579 232.661C485.307 237.827 478.219 241.913 470.605 244.751Z" fill="white"/>
<path d="M1272.7 136.56V212.605C1272.7 237.194 1258.4 252.767 1236.56 252.767C1214.73 252.767 1198.92 237.194 1198.92 212.605V136.56H1175.33V210.326C1175.33 248.98 1199.42 274.077 1236.56 274.077C1268.69 274.077 1273.71 253.75 1273.71 253.242V280.601C1273.71 307.706 1261.92 323.017 1237.32 323.017C1228.53 323.06 1220.03 319.908 1213.39 314.148C1206.76 308.388 1202.45 300.412 1201.25 291.707L1180.17 299.084C1183.18 311.98 1190.48 323.475 1200.87 331.695C1211.25 339.915 1224.11 344.376 1237.36 344.352C1275.5 344.352 1296.37 319.247 1296.37 280.601V136.56H1272.7Z" fill="white"/>
<path d="M190.35 214.613C181.391 222.563 170.203 232.456 149.917 232.456H137.787C123.107 232.456 109.755 227.121 100.199 217.449C90.863 207.999 85.7239 195.065 85.7239 181.025V164.427C85.7239 150.387 90.863 137.453 100.199 128.003C109.755 118.331 123.107 113.004 137.787 113.004H149.917C170.228 113.004 181.391 122.888 190.35 130.839C199.652 139.035 207.676 146.199 229.077 146.199C232.341 146.198 235.6 145.937 238.822 145.42L238.749 145.231C237.467 142.048 235.963 138.959 234.249 135.986L219.946 111.209C213.497 100.039 204.22 90.7638 193.05 84.3154C181.879 77.8669 169.208 74.4724 156.31 74.4729H127.697C114.799 74.4724 102.128 77.8669 90.9576 84.3154C79.7872 90.7638 70.5109 100.039 64.0611 111.209L49.7586 135.986C43.311 147.157 39.9167 159.828 39.9167 172.726C39.9167 185.624 43.311 198.295 49.7586 209.466L64.0611 234.243C70.5109 245.413 79.7872 254.688 90.9576 261.136C102.128 267.585 114.799 270.979 127.697 270.979H156.31C169.208 270.979 181.879 267.585 193.05 261.136C204.22 254.688 213.497 245.413 219.946 234.243L234.249 209.507C235.963 206.534 237.467 203.445 238.749 200.261L238.822 200.081C235.601 199.546 232.342 199.272 229.077 199.261C207.676 199.261 199.652 206.384 190.35 214.621" fill="white"/>
<path d="M149.917 128.044H137.787C115.444 128.044 100.764 144.002 100.764 164.427V181.025C100.764 201.45 115.444 217.408 137.787 217.408H149.917C182.473 217.408 179.916 184.213 229.077 184.213C233.735 184.208 238.383 184.636 242.961 185.492C244.453 177.046 244.453 168.405 242.961 159.96C238.382 160.812 233.734 161.24 229.077 161.239C179.899 161.239 182.473 128.044 149.917 128.044Z" fill="white"/>
<path d="M271.206 197.622C262.834 191.49 253.179 187.34 242.97 185.483C242.97 185.574 242.97 185.647 242.97 185.729C242.091 190.623 240.718 195.415 238.871 200.032C247.305 201.338 255.307 204.634 262.214 209.646C262.214 209.712 262.173 209.794 262.149 209.867C253.259 238.654 234.338 263.297 208.823 279.32C183.309 295.343 152.893 301.683 123.102 297.187C93.311 292.692 66.1205 277.66 46.47 254.821C26.8196 231.983 16.0128 202.854 16.0128 172.726C16.0128 142.597 26.8196 113.468 46.47 90.6303C66.1205 67.7921 93.311 52.76 123.102 48.2645C152.893 43.7691 183.309 50.1086 208.823 66.1315C234.338 82.1543 253.259 106.797 262.149 135.584C262.149 135.658 262.19 135.74 262.214 135.806C255.308 140.819 247.306 144.112 238.871 145.412C240.715 150.035 242.088 154.832 242.97 159.731C242.965 159.807 242.965 159.884 242.97 159.96C253.179 158.107 262.834 153.959 271.206 147.83C279.255 141.871 277.697 135.142 276.476 131.158C266.525 98.8824 245.325 71.2473 216.728 53.275C188.131 35.3027 154.036 28.1858 120.638 33.2176C87.2392 38.2494 56.7542 55.096 34.7222 80.696C12.6902 106.296 0.573242 138.951 0.573242 172.726C0.573242 206.501 12.6902 239.156 34.7222 264.756C56.7542 290.356 87.2392 307.202 120.638 312.234C154.036 317.266 188.131 310.149 216.728 292.177C245.325 274.204 266.525 246.569 276.476 214.293C277.697 210.31 279.255 203.581 271.206 197.622Z" fill="white"/>
</g>
<defs>
<clipPath id="clip0_3_75">
<rect width="1296" height="350" fill="white"/>
</clipPath>
</defs>
</svg>
