<svg width="646" height="350" viewBox="0 0 646 350" fill="none" xmlns="http://www.w3.org/2000/svg">
<g clip-path="url(#clip0_3_92)">
<mask id="mask0_3_92" style="mask-type:luminance" maskUnits="userSpaceOnUse" x="0" y="-2" width="646" height="350">
<path d="M645.312 -2H0V348H645.312V-2Z" fill="white"/>
</mask>
<g mask="url(#mask0_3_92)">
<path fill-rule="evenodd" clip-rule="evenodd" d="M39.6944 206.748C39.6944 212.384 40.6543 217.846 42.5749 223.063C44.4947 228.328 47.2998 232.955 51.0378 236.993C54.7784 241.027 59.2583 244.251 64.5005 246.663C69.7416 249.074 75.6976 250.282 82.3432 250.282C88.9861 250.282 94.9421 249.074 100.183 246.663C105.425 244.251 109.908 241.027 113.643 236.993C117.362 232.955 120.191 228.328 122.111 223.063C124.004 217.846 124.964 212.384 124.964 206.748C124.964 201.112 124.004 195.649 122.111 190.405C120.191 185.164 117.362 180.54 113.643 176.501C109.908 172.467 105.425 169.243 100.183 166.829C94.9421 164.418 88.9861 163.185 82.3432 163.185C75.6976 163.185 69.7416 164.418 64.5005 166.829C59.2583 169.243 54.7784 172.467 51.0378 176.501C47.2998 180.54 44.4947 185.164 42.5749 190.405C40.6543 195.649 39.6944 201.112 39.6944 206.748ZM125.58 257.54H124.964C119.723 266.426 112.688 272.873 103.803 276.91C94.9421 280.921 85.3698 282.939 75.0851 282.939C63.7882 282.939 53.7713 280.995 44.9855 277.056C36.2243 273.121 28.7178 267.731 22.4668 260.865C16.2159 254.023 11.4672 245.949 8.24296 236.671C5.01774 227.418 3.4209 217.429 3.4209 206.748C3.4209 196.065 5.11748 186.077 8.56581 176.799C11.9835 167.543 16.7592 159.473 22.9104 152.605C29.0624 145.765 36.4693 140.373 45.1317 136.439C53.8186 132.501 63.2946 130.531 73.5565 130.531C80.4235 130.531 86.4757 131.245 91.7196 132.645C96.9616 134.072 101.585 135.871 105.623 138.112C109.656 140.326 113.081 142.69 115.908 145.198C118.717 147.731 121.053 150.194 122.851 152.605H123.759V72.6391C123.759 69.0227 126.634 64.7466 131.674 64.7466H152.167C156.91 64.7466 160.057 68.7331 160.057 72.6391V271.413C160.057 276.462 155.779 279.32 152.167 279.32H133.511C129.072 279.32 125.58 275.583 125.58 271.428V257.54Z" fill="white"/>
<path fill-rule="evenodd" clip-rule="evenodd" d="M220.471 206.708C220.471 212.343 221.431 217.807 223.351 223.024C225.271 228.289 228.076 232.916 231.82 236.954C235.558 240.988 240.038 244.212 245.279 246.624C250.518 249.035 256.477 250.243 263.12 250.243C269.766 250.243 275.719 249.035 280.964 246.624C286.207 244.212 290.685 240.988 294.426 236.954C298.142 232.916 300.969 228.289 302.889 223.024C304.788 217.807 305.741 212.343 305.741 206.708C305.741 201.072 304.788 195.609 302.889 190.366C300.969 185.124 298.142 180.501 294.426 176.463C290.685 172.429 286.207 169.205 280.964 166.79C275.719 164.379 269.766 163.145 263.12 163.145C256.477 163.145 250.518 164.379 245.279 166.79C240.038 169.205 235.558 172.429 231.82 176.463C228.076 180.501 225.271 185.124 223.351 190.366C221.431 195.609 220.471 201.072 220.471 206.708ZM184.196 206.708C184.196 195.213 186.263 184.78 190.401 175.403C194.508 166.025 200.122 158.028 207.181 151.36C214.22 144.718 222.589 139.573 232.261 135.931C241.955 132.315 252.221 130.491 263.12 130.491C273.998 130.491 284.288 132.315 293.956 135.931C303.628 139.573 311.996 144.718 319.058 151.36C326.123 158.028 331.709 166.025 335.841 175.403C339.975 184.78 342.046 195.213 342.046 206.708C342.046 218.2 339.975 228.635 335.841 238.008C331.709 247.39 326.123 255.386 319.058 262.055C311.996 268.699 303.628 273.844 293.956 277.46C284.288 281.102 273.998 282.9 263.12 282.9C252.221 282.9 241.955 281.102 232.261 277.46C222.589 273.844 214.22 268.699 207.181 262.055C200.122 255.386 194.508 247.39 190.401 238.008C186.263 228.635 184.196 218.2 184.196 206.708Z" fill="white"/>
<path fill-rule="evenodd" clip-rule="evenodd" d="M360.334 84.8394C360.334 78.9857 362.5 73.915 366.831 69.5558C371.186 65.2254 376.676 63.0589 383.319 63.0589C389.965 63.0589 395.573 65.1257 400.103 69.2635C404.63 73.3962 406.919 78.5875 406.919 84.8394C406.919 91.0913 404.63 96.2818 400.103 100.418C395.573 104.552 389.965 106.62 383.319 106.62C376.676 106.62 371.186 104.453 366.831 100.097C362.5 95.7664 360.334 90.6984 360.334 84.8394Z" fill="white"/>
<path fill-rule="evenodd" clip-rule="evenodd" d="M510.125 174.342C506.509 174.342 503.842 171.601 503.386 170.408C500.365 162.502 490.752 159.532 482.994 159.532C470.752 159.532 461.145 165.206 461.145 174.962C461.145 184.399 470.442 186.324 476.183 188.064C482.491 189.974 494.527 192.596 501.163 194.158C507.911 195.744 514.191 198.072 520.066 201.123C539.332 211.125 542.075 226.861 542.075 236.338C542.075 271.299 507.434 282.898 483.381 282.898C464.847 282.898 430.018 280.091 422.37 244.746C421.625 241.307 424.672 236.02 430.262 236.02H450.293C454.238 236.02 456.894 238.894 457.667 241.154C460.244 248.256 468.426 253.62 482.222 253.62C497.026 253.62 505.776 247.75 505.776 239.943C505.776 234.898 502.912 230.406 499.177 227.874C487.951 220.262 460.192 219.4 445.123 211.382C439.353 208.312 424.869 201.296 424.869 177.373C424.869 144.398 454.846 130.491 481.181 130.491C520.021 130.491 534.275 155.031 535.883 164.126C536.771 169.145 533.96 174.342 528.31 174.342H510.125Z" fill="white"/>
<path fill-rule="evenodd" clip-rule="evenodd" d="M545.043 156.381V141.37C545.043 137.787 547.87 133.481 552.883 133.481H572.233V96.6246C572.233 92.6792 574.909 90.2791 576.933 89.3962C578.133 88.873 588.956 84.1523 597.602 80.3811C603.641 77.9013 608.532 82.8722 608.532 87.6672V133.481H640.557C645.504 133.481 648.453 137.801 648.453 141.37V156.402C648.453 160.756 644.557 164.311 640.56 164.311H608.532V227.833C608.532 235.088 608.331 240.763 611.1 244.953C613.643 248.797 617.374 250.223 624.85 250.223C626.993 250.223 628.907 249.864 630.524 249.315C635.266 247.692 638.811 250.463 640.014 252.791C642.378 257.36 645.082 262.381 646.974 265.978C649.058 269.93 647.382 274.996 643.576 276.842C637.432 279.826 628.929 282.246 617.26 282.246C607.588 282.246 602.109 281.186 595.982 279.068C589.833 276.951 583.999 272.463 580.48 268.132C576.939 263.801 575.185 258.003 573.88 251.553C572.548 245.108 572.233 237.284 572.233 228.796V164.311H552.935C547.87 164.311 545.043 159.931 545.043 156.381Z" fill="white"/>
<path fill-rule="evenodd" clip-rule="evenodd" d="M373.139 279.321H393.651C397.993 279.321 401.543 275.77 401.543 271.428V141.37C401.543 137.028 397.993 133.477 393.651 133.477H373.139C368.797 133.477 365.245 137.028 365.245 141.37V271.428C365.245 275.77 368.797 279.321 373.139 279.321Z" fill="white"/>
</g>
</g>
<defs>
<clipPath id="clip0_3_92">
<rect width="645.312" height="350" fill="white"/>
</clipPath>
</defs>
</svg>
