<svg width="953" height="350" viewBox="0 0 953 350" fill="none" xmlns="http://www.w3.org/2000/svg">
<g clip-path="url(#clip0_3_116)">
<path d="M407.585 200.859C407.585 245.987 372.281 279.241 328.955 279.241C285.63 279.241 250.326 245.987 250.326 200.859C250.326 155.413 285.63 122.477 328.955 122.477C372.281 122.477 407.585 155.413 407.585 200.859ZM373.165 200.859C373.165 172.658 352.703 153.363 328.955 153.363C305.207 153.363 284.746 172.658 284.746 200.859C284.746 228.777 305.207 248.355 328.955 248.355C352.703 248.355 373.165 228.742 373.165 200.859ZM577.213 200.859C577.213 245.987 541.909 279.241 498.583 279.241C455.257 279.241 419.954 245.987 419.954 200.859C419.954 155.448 455.257 122.477 498.583 122.477C541.909 122.477 577.213 155.413 577.213 200.859ZM542.792 200.859C542.792 172.658 522.331 153.363 498.583 153.363C474.835 153.363 454.374 172.658 454.374 200.859C454.374 228.777 474.835 248.355 498.583 248.355C522.331 248.355 542.792 228.742 542.792 200.859ZM739.773 127.212V267.933C739.773 325.818 705.635 349.46 665.278 349.46C627.288 349.46 604.424 324.051 595.801 303.272L625.769 290.797C631.105 303.554 644.18 318.609 665.243 318.609C691.075 318.609 707.084 302.671 707.084 272.668V261.395H705.883C698.179 270.901 683.336 279.206 664.606 279.206C625.415 279.206 589.511 245.068 589.511 201.142C589.511 156.897 625.415 122.477 664.606 122.477C683.301 122.477 698.143 130.781 705.883 140.005H707.084V127.248H739.773V127.212ZM709.523 201.142C709.523 173.542 691.111 153.363 667.681 153.363C643.933 153.363 624.037 173.542 624.037 201.142C624.037 228.459 643.933 248.355 667.681 248.355C691.111 248.355 709.523 228.459 709.523 201.142ZM793.665 44.7307V274.435H760.093V44.7307H793.665ZM924.49 226.656L951.207 244.467C942.584 257.225 921.805 279.206 885.9 279.206C841.373 279.206 808.119 244.785 808.119 200.824C808.119 154.211 841.656 122.441 882.048 122.441C922.723 122.441 942.619 154.812 949.122 172.305L952.691 181.21L847.911 224.607C855.933 240.333 868.407 248.355 885.9 248.355C903.428 248.355 915.585 239.732 924.49 226.656ZM842.256 198.456L912.299 169.372C908.447 159.583 896.855 152.762 883.214 152.762C865.721 152.762 841.373 168.206 842.256 198.456ZM123.246 180.468V147.214H235.307C236.402 153.01 236.968 159.866 236.968 167.287C236.968 192.236 230.147 223.087 208.166 245.068C186.786 267.332 159.469 279.206 123.282 279.206C56.2079 279.206 -0.193359 224.571 -0.193359 157.498C-0.193359 90.4241 56.2079 35.7899 123.282 35.7899C160.388 35.7899 186.821 50.3496 206.682 69.3267L183.217 92.7919C168.975 79.4337 149.68 69.044 123.246 69.044C74.2662 69.044 35.9586 108.518 35.9586 157.498C35.9586 206.478 74.2662 245.952 123.246 245.952C155.016 245.952 173.11 233.194 184.701 221.603C194.101 212.203 200.286 198.774 202.724 180.433L123.246 180.468Z" fill="white"/>
</g>
<defs>
<clipPath id="clip0_3_116">
<rect width="953" height="350" fill="white"/>
</clipPath>
</defs>
</svg>
