<svg width="1430" height="350" viewBox="0 0 1430 350" fill="none" xmlns="http://www.w3.org/2000/svg">
<g clip-path="url(#clip0_3_118)">
<path d="M415.066 216.251C415.066 220.315 414.206 223.904 412.486 227.06C410.835 230.164 408.305 232.711 405.212 234.382C402.056 236.102 398.515 236.967 394.451 236.967H374.306V266.293H398.707C407.893 266.293 416.123 264.237 423.44 260.119C430.631 256.125 436.589 250.234 440.664 243.088C444.825 235.867 446.934 227.733 446.934 218.643V122.238H415.066V216.251ZM500.854 207.492H567.591V180.559H500.854V149.988H574.625V122.238H469.803V266.245H576.681V238.495H500.854V207.492ZM586.684 150.8H629.357V266.202H661.224V150.8H703.705V122.238H586.636V150.848L586.684 150.8ZM812.596 194.049C810.045 192.71 807.348 191.667 804.559 190.941C806.668 190.348 808.718 189.563 810.684 188.596C815.95 185.868 820.11 182.043 823.075 177.114C826.044 172.185 827.572 166.544 827.572 160.13C827.572 152.809 825.563 146.255 821.595 140.466C817.622 134.725 812.025 130.228 804.847 126.975C797.669 123.766 789.444 122.142 780.258 122.142H716.287V266.149H781.502C791.164 266.149 799.778 264.477 807.384 261.08C814.941 257.684 820.826 252.995 825.04 246.917C829.2 240.888 831.305 233.998 831.305 226.248C831.305 219.119 829.681 212.758 826.375 207.113C823.142 201.523 818.378 196.973 812.644 194.001L812.596 194.049ZM747.242 146.399H775.521C779.441 146.399 782.886 147.12 785.903 148.504C788.788 149.782 791.233 151.878 792.937 154.533C794.609 157.113 795.469 160.178 795.469 163.671C795.469 167.164 794.609 170.465 792.937 173.189C791.26 175.918 788.916 177.974 785.903 179.458C782.886 180.943 779.441 181.659 775.521 181.659H747.242V146.347V146.395V146.399ZM795.949 233.522C794.133 236.246 791.548 238.356 788.248 239.835C784.899 241.32 781.118 242.036 776.765 242.036H747.242V205.1H776.765C781.022 205.1 784.803 205.916 788.152 207.492C791.452 209.073 794.085 211.273 795.901 214.146C797.717 217.014 798.678 220.267 798.678 223.952C798.678 227.637 797.765 230.793 795.949 233.522ZM938.14 208.021C946.13 204.192 952.299 198.787 956.704 191.849C961.105 184.911 963.305 176.874 963.305 167.688C963.305 158.502 961.153 150.752 956.848 143.863C952.539 136.973 946.418 131.66 938.524 127.883C930.626 124.102 921.488 122.238 911.058 122.238H848.005V266.245H879.916V213.81H900.68L929.91 266.245H966.318L933.403 209.938C935.032 209.361 936.655 208.736 938.188 208.021H938.14ZM927.806 178.599C926.034 181.63 923.381 184.049 920.2 185.536C916.895 187.16 913.023 187.972 908.574 187.972H879.868V148.119H908.574C913.023 148.119 916.895 148.936 920.2 150.512C923.368 151.996 926.017 154.396 927.806 157.402C929.574 160.366 930.487 163.911 930.487 167.923C930.487 171.944 929.574 175.485 927.806 178.502V178.599ZM1026.75 122.238L975.312 266.245H1007.7L1017.89 234.478H1071.29L1082.19 266.245H1113.96L1061.29 122.238H1026.75ZM1025.12 210.365L1041.67 159.554L1043.63 150.32L1045.6 159.554L1063.3 210.365H1025.12ZM1124.54 266.245H1157.45V122.238H1124.54V266.245ZM1273.57 219.642L1211.61 122.238H1180.56V266.245H1209.65V168.836L1271.27 266.245H1302.66V122.238H1273.57V219.642ZM1425.04 203.524C1421.93 197.542 1417.53 192.522 1411.93 188.452C1406.33 184.388 1399.88 181.707 1392.6 180.318L1368.11 175.298C1364.28 174.385 1361.22 172.809 1358.97 170.513C1356.72 168.216 1355.57 165.343 1355.57 161.946C1355.57 158.838 1356.39 156.157 1358.06 153.861C1359.69 151.564 1362.03 149.796 1365 148.504C1367.97 147.211 1371.41 146.592 1375.33 146.592C1379.26 146.592 1382.8 147.259 1385.81 148.6C1388.82 149.94 1391.17 151.804 1392.84 154.245C1394.53 156.674 1395.41 159.567 1395.38 162.523H1427.29C1427.1 154.149 1424.75 146.731 1420.35 140.322C1415.95 133.865 1409.78 128.839 1401.93 125.202C1394.09 121.566 1385.09 119.749 1375.04 119.749C1365 119.749 1356.1 121.614 1348.3 125.395C1340.5 129.176 1334.38 134.388 1330.02 141.086C1325.67 147.788 1323.47 155.393 1323.47 163.955C1323.47 170.892 1324.86 177.162 1327.68 182.711C1330.46 188.254 1334.54 193.034 1339.59 196.634C1344.76 200.319 1350.69 202.899 1357.49 204.336L1383.42 209.693C1387.67 210.701 1391.03 212.566 1393.51 215.246C1396 217.922 1397.2 221.223 1397.2 225.24C1397.23 228.344 1396.28 231.379 1394.47 233.902C1392.65 236.439 1390.11 238.399 1386.86 239.787C1383.61 241.176 1379.78 241.844 1375.38 241.844C1370.98 241.844 1366.82 241.08 1363.23 239.547C1359.64 238.019 1356.86 235.819 1354.9 232.946C1352.89 230.126 1351.94 226.82 1351.94 223.14H1320.03C1320.17 232.134 1322.56 240.028 1327.3 246.917C1331.99 253.758 1338.44 259.12 1346.67 262.944C1354.9 266.774 1364.33 268.686 1374.95 268.686C1385.57 268.686 1395.14 266.726 1403.37 262.8C1411.65 258.88 1418.06 253.47 1422.7 246.581C1427.34 239.691 1429.63 231.894 1429.63 223.183C1429.63 216.058 1428.05 209.505 1424.95 203.476L1425.04 203.524ZM62.02 247.066H143.695V266.284H62.02V247.066Z" fill="white"/>
<path fill-rule="evenodd" clip-rule="evenodd" d="M97.2844 38.8434L37.9982 98.1297L17.1471 118.981C5.88706 130.247 -0.43787 145.523 -0.437012 161.452L-0.437012 304.719C-0.437012 317.979 10.3248 328.741 23.585 328.741H166.852C182.803 328.741 198.033 322.399 209.323 311.157L230.174 290.305L289.46 231.019C300.703 219.777 307.044 204.499 307.044 188.548V45.2813C307.044 32.0212 296.282 21.2593 283.022 21.2593H139.755C123.805 21.2593 108.575 27.6011 97.2844 38.8434ZM230.174 290.305V98.1297H37.9982V290.305H230.174Z" fill="white"/>
</g>
<defs>
<clipPath id="clip0_3_118">
<rect width="1430" height="350" fill="white"/>
</clipPath>
</defs>
</svg>
