<svg width="1020" height="350" viewBox="0 0 1020 350" fill="none" xmlns="http://www.w3.org/2000/svg">
<g clip-path="url(#clip0_3_121)">
<mask id="mask0_3_121" style="mask-type:luminance" maskUnits="userSpaceOnUse" x="-211" y="30" width="1443" height="290">
<path d="M1231.12 30.0429H-210.94V319.957H1231.12V30.0429Z" fill="white"/>
</mask>
<g mask="url(#mask0_3_121)">
<path d="M33.5195 207.277C33.5195 219.095 36.1128 228.171 39.5031 233.655C43.1698 240.032 49.9823 243.943 57.3369 243.89C66.0518 243.89 74.0334 241.722 89.4015 220.466C101.709 203.429 116.216 179.516 125.983 164.531L142.51 139.13C153.988 121.488 167.283 101.879 182.524 88.5833C194.969 77.7321 208.382 71.7061 221.89 71.7061C244.57 71.7061 266.166 84.8423 282.703 109.489C300.792 136.484 309.582 170.483 309.582 205.566C309.582 226.428 305.469 241.754 298.475 253.859C291.716 265.571 278.548 277.262 256.388 277.262V243.879C275.359 243.879 280.1 226.439 280.1 206.49C280.1 178.06 273.468 146.495 258.865 123.953C248.503 107.958 235.069 98.191 220.296 98.191C204.311 98.191 191.451 110.243 176.997 131.733C169.313 143.147 161.427 157.07 152.574 172.768L142.828 190.038C123.241 224.77 118.278 232.678 108.489 245.729C91.3252 268.59 76.6692 277.251 57.3581 277.251C34.4654 277.251 19.9901 267.335 11.0307 252.403C3.71867 240.234 0.126404 224.26 0.126404 206.065L33.5195 207.277Z" fill="white"/>
<path d="M26.4519 111.848C41.7775 88.222 63.8944 71.7061 89.2634 71.7061C103.962 71.7061 118.554 76.0529 133.805 88.5089C150.491 102.123 168.261 124.538 190.452 161.491L198.402 174.755C217.607 206.745 228.522 223.197 234.92 230.956C243.146 240.925 248.896 243.89 256.378 243.89C275.349 243.89 280.089 226.45 280.089 206.501L309.582 205.576C309.582 226.439 305.469 241.765 298.475 253.87C291.716 265.582 278.548 277.273 256.388 277.273C242.604 277.273 230.403 274.286 216.916 261.554C206.543 251.787 194.417 234.421 185.085 218.819L157.336 172.449C143.413 149.184 130.638 131.829 123.241 123.975C115.291 115.525 105.067 105.322 88.7426 105.322C75.532 105.322 64.3195 114.59 54.935 128.768L26.4519 111.848Z" fill="white"/>
<path d="M88.7213 105.333C75.5107 105.333 64.2982 114.601 54.9137 128.778C41.6393 148.802 33.5195 178.634 33.5195 207.287C33.5195 219.106 36.1128 228.182 39.5031 233.666L10.9988 252.435C3.67613 240.266 0.0838623 224.292 0.0838623 206.097C0.0838623 173.002 9.17079 138.514 26.4413 111.869C41.7669 88.2539 63.8837 71.7274 89.2527 71.7274L88.7213 105.333Z" fill="white"/>
<path d="M374.561 78.221H413.236L478.981 197.169L544.737 78.221H582.572V273.67H551.028V123.868L493.361 227.597H463.762L406.105 123.868V273.659H374.561V78.221ZM681.413 151.087C658.786 151.087 645.161 168.113 641.908 189.198H718.685C717.101 167.486 704.571 151.087 681.413 151.087ZM610.63 201.208C610.63 156.847 639.304 124.559 681.965 124.559C723.925 124.559 748.985 156.443 748.985 203.578V212.24H641.908C645.703 235.175 660.922 250.639 685.462 250.639C705.039 250.639 717.271 244.666 728.877 233.74L745.638 254.263C729.844 268.781 709.768 277.156 684.346 277.156C638.157 277.156 610.63 243.486 610.63 201.208ZM787.225 153.892H758.189V128.066H787.225V85.3524H817.663V128.066H861.78V153.892H817.663V219.371C817.663 241.722 824.805 249.672 842.374 249.672C848.889 249.682 855.382 249.077 861.78 247.854V273.404C853.565 275.753 845.052 276.922 836.507 276.879C803.645 276.879 787.225 258.918 787.225 222.995V153.892ZM989.943 179.006C983.832 163.574 970.197 152.203 950.152 152.203C924.103 152.203 907.438 170.685 907.438 200.783C907.438 230.127 922.785 249.502 948.909 249.502C969.442 249.502 984.098 237.556 989.943 222.698V179.006ZM1020.38 273.659H990.496V253.285C982.142 265.284 966.944 277.156 942.33 277.156C902.741 277.156 876.288 244.018 876.288 200.794C876.288 157.166 903.378 124.57 944.009 124.57C964.096 124.57 979.847 132.594 990.496 146.772V128.066H1020.37L1020.38 273.659Z" fill="white"/>
</g>
</g>
<defs>
<clipPath id="clip0_3_121">
<rect width="1020" height="350" fill="white"/>
</clipPath>
</defs>
</svg>
