<svg width="1803" height="350" viewBox="0 0 1803 350" fill="none" xmlns="http://www.w3.org/2000/svg">
<g clip-path="url(#clip0_3_130)">
<path d="M36.0478 265.746C23.0267 265.746 11.0612 259.059 4.72654 247.797C-1.60814 236.888 -1.25621 223.515 5.78232 212.957L70.1846 113.714C76.8712 102.804 89.1886 96.4693 102.21 96.8212C115.231 97.1731 127.197 104.212 133.179 115.473C139.162 126.735 138.458 140.108 131.42 150.314L66.3134 249.557C59.9788 259.411 48.3652 265.746 36.0478 265.746Z" fill="white"/>
<path d="M146.201 265.746C133.179 265.746 121.214 259.059 114.88 248.149C108.545 237.24 108.896 223.866 115.935 213.309L180.69 114.417C187.376 103.508 199.342 96.8212 212.715 97.1731C226.088 97.525 237.702 104.564 243.684 115.825C249.667 127.087 248.963 140.46 241.221 151.018L176.466 249.557C170.132 259.411 158.518 265.394 146.201 265.746Z" fill="white"/>
<path d="M253.89 265.746C273.597 265.746 289.786 249.557 289.786 229.849C289.786 210.141 273.597 193.953 253.89 193.953C234.182 193.953 217.993 210.141 217.993 229.849C217.993 249.909 233.83 265.746 253.89 265.746Z" fill="white"/>
<path d="M550.212 105.971C569.92 105.971 585.404 111.954 597.018 123.919C608.631 135.885 614.614 152.425 614.614 173.541V265.746H566.4V179.876C566.4 169.67 563.585 161.927 558.306 156.297C553.027 150.666 545.637 147.85 536.135 147.85C526.633 147.85 519.242 150.666 513.611 156.297C508.332 161.576 505.869 169.67 505.869 179.876V265.746H457.655V179.876C457.655 169.67 454.84 161.927 449.561 156.297C444.282 150.666 436.891 147.85 427.389 147.85C417.887 147.85 410.497 150.666 404.866 156.297C399.587 161.576 397.124 169.67 397.124 179.876V265.746H348.558V107.731H397.124V127.439C402.051 120.752 408.385 115.825 416.48 111.954C424.222 108.083 433.372 105.971 443.226 105.971C455.192 105.971 465.749 108.435 474.899 113.714C484.401 118.993 491.792 126.031 497.071 135.533C502.702 126.735 510.092 119.696 519.594 114.417C528.744 108.435 538.95 105.971 550.212 105.971Z" fill="white"/>
<path d="M711.745 267.857C696.261 267.857 682.184 264.69 669.866 258.003C657.549 251.317 648.047 241.815 640.656 229.849C633.618 217.532 630.099 203.103 630.099 186.914C630.099 170.726 633.618 156.297 641.008 144.331C648.047 132.014 657.901 122.512 670.57 115.825C682.888 109.139 696.965 105.971 712.449 105.971C727.934 105.971 742.011 109.139 754.329 115.825C766.646 122.512 776.5 132.014 783.89 144.331C790.929 156.649 794.8 170.726 794.8 186.914C794.8 203.103 790.929 217.532 783.89 229.849C776.852 242.167 766.646 251.669 754.329 258.003C741.307 264.338 727.23 267.857 711.745 267.857ZM711.745 225.626C720.896 225.626 728.99 222.107 735.324 215.42C742.011 208.734 745.178 198.88 745.178 186.21C745.178 173.541 742.011 164.039 735.676 157.001C729.342 150.314 721.599 146.795 712.449 146.795C702.947 146.795 695.205 150.314 688.87 157.001C682.536 163.687 679.72 173.189 679.72 186.21C679.72 198.88 682.888 208.382 688.87 215.42C694.853 222.459 702.595 225.626 711.745 225.626Z" fill="white"/>
<path d="M907.769 105.971C926.421 105.971 940.85 111.954 951.759 124.271C963.021 136.237 968.652 152.425 968.652 173.541V265.746H920.438V179.876C920.438 169.318 917.622 161.224 912.344 155.241C906.713 149.258 899.674 146.443 890.172 146.443C881.022 146.443 873.632 149.258 868.001 155.241C862.37 161.224 859.907 169.318 859.907 179.876V265.746H811.341V107.731H859.907V128.495C864.834 121.456 871.52 116.177 879.614 111.954C888.061 107.731 897.563 105.971 907.769 105.971Z" fill="white"/>
<path d="M984.137 186.21C984.137 170.022 987.304 155.593 993.287 143.627C999.622 131.31 1008.07 121.808 1018.63 115.473C1029.18 108.787 1041.15 105.619 1053.82 105.619C1064.38 105.619 1073.53 107.731 1081.97 111.954C1090.77 116.177 1097.46 122.16 1102.38 129.55V56.3497H1150.95V265.746H1102.38V243.222C1097.81 250.613 1091.47 256.948 1083.03 261.523C1074.58 266.098 1065.08 268.209 1053.82 268.209C1040.8 268.209 1029.18 265.042 1018.63 258.355C1008.07 251.669 999.622 242.167 993.287 229.849C987.304 216.828 984.137 202.399 984.137 186.21ZM1102.38 186.562C1102.38 174.597 1098.87 165.095 1092.18 158.056C1085.49 151.018 1077.4 147.499 1067.9 147.499C1058.39 147.499 1049.95 151.018 1043.26 158.056C1036.57 164.743 1033.41 174.245 1033.41 186.21C1033.41 198.176 1036.57 208.03 1043.26 215.068C1049.95 222.107 1058.39 225.626 1067.9 225.626C1077.4 225.626 1085.49 222.107 1092.18 215.068C1099.22 208.03 1102.38 198.528 1102.38 186.562Z" fill="white"/>
<path d="M1167.84 186.21C1167.84 170.022 1171.01 155.593 1176.99 143.627C1183.33 131.31 1191.77 121.808 1202.33 115.473C1212.89 108.787 1224.85 105.619 1237.52 105.619C1248.78 105.619 1258.29 107.731 1266.73 112.306C1275.18 116.881 1281.87 122.864 1286.09 130.254V108.083H1334.65V266.098H1286.09V243.574C1281.51 250.965 1274.83 256.948 1266.38 261.523C1257.93 266.098 1248.43 268.209 1237.17 268.209C1224.5 268.209 1212.54 265.042 1201.98 258.355C1191.42 251.669 1182.97 242.167 1176.64 229.849C1170.66 216.828 1167.84 202.399 1167.84 186.21ZM1286.09 186.562C1286.09 174.597 1282.57 165.095 1275.88 158.056C1269.2 151.018 1261.1 147.499 1251.6 147.499C1242.1 147.499 1233.65 151.018 1226.97 158.056C1220.28 164.743 1217.11 174.245 1217.11 186.21C1217.11 198.176 1220.28 208.03 1226.97 215.068C1233.65 222.107 1242.1 225.626 1251.6 225.626C1261.1 225.626 1269.2 222.107 1275.88 215.068C1282.57 208.03 1286.09 198.528 1286.09 186.562Z" fill="white"/>
<path d="M1522.23 107.379L1423.34 340.354H1371.26L1407.5 260.115L1343.1 107.379H1397.3L1433.9 206.27L1470.15 107.379H1522.23Z" fill="white"/>
<path d="M1493.02 267.505C1488.8 267.505 1485.28 266.098 1482.11 263.634C1479.3 260.819 1477.89 257.651 1477.89 253.428C1477.89 249.205 1479.3 246.038 1482.11 243.574C1484.93 240.759 1488.45 239.351 1493.02 239.351C1497.24 239.351 1500.76 240.759 1503.58 243.574C1506.39 246.038 1507.8 249.557 1507.8 253.428C1507.8 257.299 1506.39 260.819 1503.58 263.634C1500.76 266.098 1497.24 267.505 1493.02 267.505Z" fill="white"/>
<path d="M1527.86 230.553C1527.86 223.163 1529.27 216.828 1532.44 211.197C1535.6 205.566 1539.48 201.343 1544.75 198.528C1550.03 195.36 1556.02 193.953 1563.05 193.953C1571.85 193.953 1579.24 196.064 1584.87 200.639C1590.51 204.862 1594.73 211.197 1596.49 218.94H1577.13C1576.08 215.772 1574.32 213.309 1571.85 211.901C1569.39 210.141 1566.57 209.086 1563.05 209.086C1557.78 209.086 1553.9 210.845 1550.74 214.716C1547.57 218.236 1546.16 223.515 1546.16 230.553C1546.16 237.24 1547.57 242.519 1550.74 246.39C1553.9 249.909 1557.78 252.021 1563.05 252.021C1570.45 252.021 1575.02 248.853 1577.13 242.167H1596.49C1594.38 249.909 1590.51 255.892 1584.87 260.467C1579.24 265.042 1571.85 267.153 1563.05 267.153C1556.37 267.153 1550.03 265.746 1544.75 262.578C1539.48 259.411 1535.25 255.188 1532.44 249.909C1529.27 244.278 1527.86 237.944 1527.86 230.553Z" fill="white"/>
<path d="M1638.37 267.153C1631.68 267.153 1625.35 265.746 1620.07 262.578C1614.79 259.411 1610.21 255.188 1607.05 249.557C1603.88 243.926 1602.47 237.592 1602.47 230.201C1602.47 222.811 1604.23 216.476 1607.4 210.845C1610.56 205.214 1615.14 200.991 1620.77 198.176C1626.4 195.009 1632.38 193.601 1639.42 193.601C1646.46 193.601 1652.44 195.009 1658.08 198.176C1663.71 200.991 1667.93 205.566 1671.1 210.845C1674.26 216.476 1676.02 222.811 1676.02 230.201C1676.02 237.592 1674.26 243.926 1671.1 249.557C1667.93 255.188 1663.35 259.411 1657.72 262.578C1651.74 265.746 1645.41 267.153 1638.37 267.153ZM1638.37 251.669C1641.53 251.669 1644.7 250.965 1647.52 249.205C1650.33 247.446 1652.8 245.334 1654.56 242.167C1656.32 238.999 1657.02 235.128 1657.02 230.553C1657.02 223.867 1655.26 218.588 1651.74 215.068C1648.22 211.549 1644 209.438 1638.72 209.438C1633.44 209.438 1629.22 211.197 1625.7 215.068C1622.18 218.588 1620.42 223.867 1620.42 230.553C1620.42 237.24 1622.18 242.519 1625.35 246.038C1629.22 249.909 1633.44 251.669 1638.37 251.669Z" fill="white"/>
<path d="M1774.21 193.953C1783.01 193.953 1790.05 196.768 1795.33 202.047C1800.6 207.326 1803.42 214.716 1803.42 224.218V265.746H1785.47V226.682C1785.47 221.051 1784.06 216.828 1781.25 214.013C1778.43 211.197 1774.56 209.438 1769.63 209.438C1764.71 209.438 1760.84 210.845 1758.02 214.013C1755.21 216.828 1753.8 221.051 1753.8 226.682V265.746H1735.85V226.682C1735.85 221.051 1734.44 216.828 1731.63 214.013C1728.81 211.197 1724.94 209.438 1720.01 209.438C1715.09 209.438 1711.22 210.845 1708.05 214.013C1705.23 216.828 1703.82 221.051 1703.82 226.682V265.746H1685.88V194.657H1703.82V203.103C1705.94 200.287 1709.1 197.824 1712.62 196.064C1716.14 194.305 1720.37 193.601 1724.59 193.601C1730.22 193.601 1735.15 194.657 1739.37 197.12C1743.59 199.584 1747.11 202.751 1749.58 206.974C1751.69 202.751 1755.21 199.584 1759.43 197.12C1764.36 195.361 1769.28 193.953 1774.21 193.953Z" fill="white"/>
</g>
<defs>
<clipPath id="clip0_3_130">
<rect width="1803" height="350" fill="white"/>
</clipPath>
</defs>
</svg>
