<svg width="864" height="350" viewBox="0 0 864 350" fill="none" xmlns="http://www.w3.org/2000/svg">
<g clip-path="url(#clip0_3_145)">
<path d="M55.3226 64.982H165.842V41.1469H55.3226V64.982ZM560.251 192.688H482.975V113.405H560.251C587.85 113.405 606.29 129.337 606.29 153.047C606.29 176.756 587.85 192.688 560.251 192.688ZM585.842 211.254C612.312 203.728 629.498 180.896 629.498 153.047C629.498 117.043 601.649 92.8315 560.251 92.8315H459.767V305.842H482.975V213.638H561.631L611.685 305.842H636.774L584.588 211.631L585.842 211.254ZM339.337 309.857C396.29 309.857 435.932 269.839 435.932 212.634V92.8315H412.097V211.004C412.097 255.161 382.115 285.896 339.337 285.896C303.835 285.896 265.573 262.437 265.573 211.004V92.8315H241.738V212.634C241.738 269.839 281.882 309.857 339.337 309.857ZM755.574 120.556L805.878 230.573H705.018L755.574 120.556ZM744.409 92.8315L647.061 305.842H672.025L696.111 251.272H814.91L838.996 305.842H863.961L766.613 92.8315H744.409ZM110.52 88.8172C49.552 88.8172 0 138.369 0 199.337C0 260.305 49.552 309.857 110.52 309.857C171.487 309.857 221.039 260.305 221.039 199.337C221.039 138.369 171.487 88.8172 110.52 88.8172ZM110.52 286.021C62.724 286.021 23.8351 247.133 23.8351 199.337C23.8351 151.541 62.724 112.652 110.52 112.652C158.315 112.652 197.204 151.541 197.204 199.337C197.204 247.133 158.315 286.021 110.52 286.021Z" fill="white"/>
</g>
<defs>
<clipPath id="clip0_3_145">
<rect width="863.082" height="350" fill="white"/>
</clipPath>
</defs>
</svg>
