<svg width="1132" height="350" viewBox="0 0 1132 350" fill="none" xmlns="http://www.w3.org/2000/svg">
<g clip-path="url(#clip0_3_105)">
<path d="M618.639 71.8756C627.812 55.9911 646.285 47.6169 664.183 47.4578C680.514 46.4031 698.987 49.1197 710.429 62.032C704.613 69.7025 699.051 77.5329 693.234 85.2032C686.747 77.7564 681.409 67.2726 670.926 65.1632C660.602 61.9672 647.627 67.3366 644.942 78.3951C640.595 95.9415 643.216 114.286 642.577 132.185H676.103V152.161H642.545C642.545 182.269 642.545 212.375 642.512 242.482C642.385 251.016 643.759 259.454 645.357 267.827C653.028 271.375 661.306 273.197 669.775 273.356C669.743 275.434 669.711 279.621 669.679 281.73C642.258 279.94 614.802 279.396 587.412 281.697C587.412 279.94 587.476 276.425 587.476 274.666C596.137 273.133 606.876 269.106 607.228 258.686C610.584 223.306 608.314 187.67 608.985 152.162C602.305 152.162 595.625 152.162 588.945 152.13C588.977 149.126 589.041 146.089 589.073 143.085C595.849 139.953 602.465 136.469 608.985 132.889C608.985 112.37 607.77 90.1892 618.636 71.8767L618.639 71.8756Z" fill="white"/>
<path d="M1112.97 47.426C1095.23 51.5169 1077.27 54.9676 1059.05 55.7666C1058.86 57.4285 1058.51 60.7516 1058.35 62.4136C1065.13 64.4592 1076.19 63.9184 1076.66 73.3788C1079.38 92.556 1077.46 112.016 1078.01 131.32C1051.9 126.846 1022.71 127.134 1000.5 143.402C976.181 160.437 967.838 192.207 970.268 220.525C971.641 242.482 982.635 265.016 1002.55 275.722C1026.26 288.762 1056.59 286.076 1078.81 271.055C1078.97 275.498 1079.06 279.94 1079.09 284.383C1096.29 280.004 1113.87 277.542 1131.54 276.52V268.847C1106.49 264.582 1113.42 252.989 1111.66 233.279C1111.69 171.339 1110.73 109.366 1112.97 47.4302V47.426ZM1047.99 147.311C1058.57 147.199 1069.32 150.578 1078.01 156.475C1078.04 189.809 1077.94 223.144 1078.07 256.478C1059.47 265.012 1034.32 264.404 1019.74 248.615C1007.25 235.256 1005.14 215.697 1006.25 198.245C1007.5 182.36 1010.83 164.207 1024.7 154.362C1031.65 149.594 1039.76 147.396 1047.99 147.309L1047.99 147.311Z" fill="white"/>
<path d="M58.6483 67.7843C79.7102 66.5059 100.836 67.8801 121.675 70.8204C120.428 85.6503 120.556 100.576 121.707 115.406C119.693 115.406 115.666 115.438 113.653 115.438C112.055 106.169 110.393 94.9184 100.517 90.7952C85.8789 84.6266 68.7472 84.0195 53.5661 88.4301C33.7188 94.3109 30.4583 123.522 45.2244 136.276C63.6978 152.448 86.3262 163.027 105.247 178.719C134.874 202.307 131.007 257.215 95.8504 273.739C66.2555 287.418 31.5135 283.966 0.958558 275.369C1.14952 260.675 0.606702 245.982 -0.0651855 231.307C2.14003 231.275 6.58262 231.179 8.81984 231.147C10.3859 240.384 11.8241 251.729 21.1886 256.491C37.9359 265.888 59.541 266.655 76.9288 258.568C98.6308 246.584 94.6348 211.938 74.3399 200.272C56.7293 186.71 36.4985 176.685 20.2299 161.373C2.20385 144.625 -0.0328293 115.285 11.5696 94.3504C21.0609 77.6664 40.2062 69.3262 58.6478 67.7914L58.6483 67.7843Z" fill="white"/>
<path d="M183.644 99.202C185.307 99.2979 188.662 99.4577 190.324 99.5536C190.292 110.708 190.292 121.83 190.292 132.985H241.43V152.162H190.292C190.484 179.01 189.877 205.888 190.58 232.768C191.282 242.995 191.57 255.749 201.126 262.012C213.176 269.172 227.591 264.697 239.64 259.999C243.348 269.076 233.919 274.158 227.367 277.93C211.994 285.376 193.233 286.176 177.349 279.975C163.765 274.893 157.214 260.032 156.51 246.417C154.88 215.03 156.51 183.583 156.766 152.164H136.789C136.757 150.055 136.725 147.977 136.693 145.9C158.395 137.718 173.032 119.021 183.644 99.2056V99.202Z" fill="white"/>
<path d="M320.497 127.915C297.456 127.678 274.216 139.123 266.814 162.261C268.827 163.411 272.918 165.679 274.963 166.83C283.816 151.201 304.495 143.18 320.793 152.193C333.577 158.01 334.666 173.637 334.411 185.88C314.307 192.335 293.5 197.418 274.515 206.879C251.759 218.897 248.819 252.966 265.119 271.408C284.328 289.018 316.385 286.172 335.369 269.521C341.153 280.963 354.832 285.342 366.753 281.986C377.141 279.972 384.011 271.311 390.818 263.992C389.637 262.65 387.242 259.931 386.059 258.557C381.776 259.644 376.948 263.032 372.762 259.74C367.329 256.001 367.998 248.489 367.615 242.705C367.998 217.903 369.373 193.039 368.063 168.207C367.423 155.359 361.671 142.221 350.293 135.477C341.404 130.543 330.971 128.022 320.497 127.915ZM334.057 205.247C334.184 221.963 334.058 238.677 334.186 255.393C323.48 260.155 310.758 264.566 299.477 259.101C285.669 251.749 286.246 229.762 297.656 220.525C308.618 212.983 321.623 209.435 334.057 205.247Z" fill="white"/>
<path d="M760.991 128.542C744.148 128.734 726.759 132.921 713.591 143.884C693.998 159.736 685.499 185.943 686.361 210.553C686.266 231.614 692.818 254.084 709.405 268.084C728.998 285.151 757.474 286.844 781.86 281.762C807.588 276.105 826.924 253.573 832.389 228.324C838.27 202.117 835.809 171.659 817.783 150.502C803.913 134.266 781.701 128.127 760.991 128.542ZM761.215 146.43C770.266 146.607 779.223 150.324 785.025 157.531C795.54 170.411 798.352 187.734 799.12 203.906C799.248 221.516 797.01 240.53 785.92 254.912C775.022 269.007 751.532 270.574 738.97 257.885C729.351 248.968 725.77 235.705 723.596 223.24C721.327 206.684 721.903 189.456 727.113 173.508C730.756 162.833 737.851 152.031 749.101 148.387C752.967 146.998 757.101 146.348 761.216 146.428L761.215 146.43Z" fill="white"/>
<path d="M402.839 138.706C420.706 138.418 438.828 136.564 455.318 129.181C455.894 133.432 456.342 137.683 456.693 141.997C475.645 129.597 500.127 124.771 521.829 132.441C537.363 137.651 548.229 152.865 549.603 168.973C552.799 199.623 548.165 230.689 552.255 261.276C552.703 270.896 563.058 273.069 570.57 274.636C570.602 276.426 570.602 280.005 570.634 281.794C545.257 279.781 494.439 281.699 494.439 281.699L494.344 274.451C494.344 274.451 512.674 269.298 513.839 264.024C518.026 241.269 517.035 217.746 516.811 194.638C515.981 180.831 516.333 163.572 503.132 155.166C488.974 147.016 471.619 150.788 457.142 156.061C457.237 185.977 457.142 215.922 457.142 245.84C457.557 253.83 456.981 262.939 462.192 269.586C466.571 272.621 472.067 273.165 477.085 274.572C477.117 276.361 477.149 279.972 477.149 281.794C452.122 280.164 427.034 279.11 402.041 281.762C402.041 279.972 402.104 276.425 402.104 274.667C409.711 272.909 419.747 270.513 421.185 261.308C424.668 239.256 421.983 216.723 422.815 194.477C422.495 181.789 423.901 168.941 421.663 156.412C419.906 147.846 409.455 148.326 402.871 146.632C402.871 144.65 402.839 140.687 402.839 138.706Z" fill="white"/>
<path d="M849.45 138.034C867.349 137.778 885.246 135.349 902.25 129.628L902.73 142.796C919.925 128.957 945.846 125.441 964.158 139.152L945.062 168.298C936.145 154.555 918.055 151.231 903.77 158.23C903.77 158.23 903.673 218.732 903.865 248.967C904.6 255.71 903.546 264.468 909.874 268.877C915.978 272.458 923.393 272.266 930.2 273.352C930.2 275.43 930.168 279.648 930.168 281.726C902.714 279.872 875.195 279.489 847.742 281.661L847.736 273.352C856.586 271.843 865.8 268.782 867.142 263.508C870.945 250.5 869.091 236.725 869.474 223.332C869.091 202.015 870.241 180.664 868.963 159.38C868.867 149.024 857.137 148.098 849.532 146.595C849.544 143.66 849.48 140.646 849.468 138.03L849.45 138.034Z" fill="white"/>
</g>
<defs>
<clipPath id="clip0_3_105">
<rect width="1132" height="350" fill="white"/>
</clipPath>
</defs>
</svg>
