<svg width="1042" height="350" viewBox="0 0 1042 350" fill="none" xmlns="http://www.w3.org/2000/svg">
<g clip-path="url(#clip0_3_114)">
<path fill-rule="evenodd" clip-rule="evenodd" d="M556.064 276.552L556.053 276.544H611.186L645.055 208.446L678.924 276.544H745.918L645.05 81.7923L549.302 266.683L512.539 213.004C535.237 202.057 549.384 183.098 549.384 155.865V155.329C549.384 136.108 543.514 122.222 532.299 111.006C519.213 97.9235 498.124 89.6468 465.015 89.6468H373.699V276.552H436.179V223.15H449.528L484.77 276.552H556.064ZM941.353 81.7923L840.495 276.544H907.495L941.358 208.446L975.227 276.544H1042.22L941.353 81.7923ZM793.262 284.207L894.119 89.4551H827.125L793.256 157.554L759.387 89.4551H692.393L793.262 284.207ZM463.144 178.56C478.096 178.56 487.177 171.885 487.177 160.405V159.869C487.177 147.854 477.828 141.98 463.412 141.98H436.179V178.56H463.144ZM240.077 142.514H185.075V89.6468H357.56V142.514H302.558V276.552H240.077V142.514ZM32.8315 208.732L-0.545166 248.517C23.2195 269.346 57.3948 280.024 95.3121 280.024C145.511 280.024 177.815 255.992 177.815 216.74V216.208C177.815 178.56 145.774 164.674 97.9818 155.866C78.2217 152.123 73.1504 148.924 73.1504 143.849V143.315C73.1504 138.776 77.423 135.572 86.7669 135.572C104.12 135.572 125.215 141.179 142.836 153.994L173.28 111.81C151.649 94.72 124.952 86.1741 88.9059 86.1741C37.3665 86.1741 9.60295 113.679 9.60295 149.189V149.725C9.60295 189.24 46.4479 201.259 88.3698 209.798C108.393 213.805 114.268 216.74 114.268 222.082V222.618C114.268 227.689 109.465 230.624 98.2444 230.624C76.3507 230.624 53.1222 224.22 32.8315 208.732Z" fill="white"/>
</g>
<defs>
<clipPath id="clip0_3_114">
<rect width="1042" height="350" fill="white"/>
</clipPath>
</defs>
</svg>
