<?xml version="1.0" encoding="UTF-8"?>
<!--Generator: Apple Native CoreSVG 232.5-->
<!DOCTYPE svg
PUBLIC "-//W3C//DTD SVG 1.1//EN"
       "http://www.w3.org/Graphics/SVG/1.1/DTD/svg11.dtd">
<svg version="1.1" xmlns="http://www.w3.org/2000/svg" xmlns:xlink="http://www.w3.org/1999/xlink" width="20.2832" height="19.9316">
 <g>
  <rect height="19.9316" opacity="0" width="20.2832" x="0" y="0"/>
  <path d="M9.96094 19.9219C15.4102 19.9219 19.9219 15.4004 19.9219 9.96094C19.9219 4.51172 15.4004 0 9.95117 0C4.51172 0 0 4.51172 0 9.96094C0 15.4004 4.52148 19.9219 9.96094 19.9219ZM9.96094 18.2617C5.35156 18.2617 1.66992 14.5703 1.66992 9.96094C1.66992 5.35156 5.3418 1.66016 9.95117 1.66016C14.5605 1.66016 18.2617 5.35156 18.2617 9.96094C18.2617 14.5703 14.5703 18.2617 9.96094 18.2617Z" fill="#ffffff" fill-opacity="0.85"/>
  <path d="M8.37891 11.4648C9.01367 12.0996 9.93164 12.0996 10.5762 11.4648C10.6934 11.3477 10.8789 11.084 10.9961 10.9277L14.2773 6.19141C14.4434 5.95703 14.3945 5.73242 14.2578 5.58594C14.1113 5.44922 13.877 5.40039 13.6426 5.55664L8.90625 8.84766C8.75 8.95508 8.49609 9.14062 8.37891 9.25781C7.73438 9.90234 7.73438 10.8203 8.37891 11.4648ZM5.98633 14.7266C6.44531 14.7266 6.82617 14.3457 6.82617 13.8867C6.82617 13.4277 6.44531 13.0469 5.98633 13.0469C5.52734 13.0469 5.14648 13.4277 5.14648 13.8867C5.14648 14.3457 5.52734 14.7266 5.98633 14.7266ZM4.33594 10.8008C4.79492 10.8008 5.17578 10.4199 5.17578 9.96094C5.17578 9.50195 4.79492 9.12109 4.33594 9.12109C3.87695 9.12109 3.49609 9.50195 3.49609 9.96094C3.49609 10.4199 3.87695 10.8008 4.33594 10.8008ZM5.98633 6.875C6.44531 6.875 6.82617 6.49414 6.82617 6.03516C6.82617 5.56641 6.44531 5.19531 5.98633 5.19531C5.52734 5.19531 5.14648 5.56641 5.14648 6.03516C5.14648 6.49414 5.52734 6.875 5.98633 6.875ZM9.95117 5.19531C10.4102 5.19531 10.791 4.81445 10.791 4.35547C10.791 3.89648 10.4102 3.51562 9.95117 3.51562C9.49219 3.51562 9.11133 3.89648 9.11133 4.35547C9.11133 4.81445 9.49219 5.19531 9.95117 5.19531ZM15.5469 10.8008C16.0059 10.8008 16.3867 10.4199 16.3867 9.96094C16.3867 9.50195 16.0059 9.12109 15.5469 9.12109C15.0879 9.12109 14.707 9.50195 14.707 9.96094C14.707 10.4199 15.0879 10.8008 15.5469 10.8008ZM13.8965 14.7266C14.3555 14.7266 14.7363 14.3457 14.7363 13.8867C14.7363 13.4277 14.3555 13.0469 13.8965 13.0469C13.4375 13.0469 13.0566 13.4277 13.0566 13.8867C13.0566 14.3457 13.4375 14.7266 13.8965 14.7266Z" fill="#ffffff" fill-opacity="0.85"/>
 </g>
</svg>
