<?xml version="1.0" encoding="UTF-8"?>
<!--Generator: Apple Native CoreSVG 232.5-->
<!DOCTYPE svg
PUBLIC "-//W3C//DTD SVG 1.1//EN"
       "http://www.w3.org/Graphics/SVG/1.1/DTD/svg11.dtd">
<svg version="1.1" xmlns="http://www.w3.org/2000/svg" xmlns:xlink="http://www.w3.org/1999/xlink" width="26.5723" height="17.2559">
 <g>
  <rect height="17.2559" opacity="0" width="26.5723" x="0" y="0"/>
  <path d="M24.1895 15.1758C24.8828 15.1758 25.4688 14.6094 25.4688 13.9453C25.4688 13.2715 24.8926 12.7148 24.1895 12.7148C23.4766 12.7148 22.9004 13.2715 22.9004 13.9453C22.9004 14.6094 23.4863 15.1758 24.1895 15.1758ZM24.1895 10.8398C24.668 10.8398 25 10.5078 25.0195 10.0098L25.2246 3.0957C25.2441 2.4707 24.8242 2.05078 24.1895 2.05078C23.5449 2.05078 23.125 2.4707 23.1445 3.0957L23.3496 10.0098C23.3691 10.5078 23.7109 10.8398 24.1895 10.8398Z" fill="#ffffff" fill-opacity="0.85"/>
  <path d="M0 9.96094C0 12.5195 0.996094 14.873 2.61719 16.6406C3.04688 17.1191 3.79883 17.2363 4.375 16.6602L5.75195 15.293C6.05469 14.9902 6.05469 14.4824 5.75195 14.1797C5.44922 13.877 4.94141 13.877 4.63867 14.1797L3.56445 15.2539C2.37305 13.8184 1.66992 11.9922 1.66992 9.96094C1.66992 5.36133 5.3418 1.66016 9.95117 1.66016C14.5508 1.66016 18.2324 5.36133 18.2324 9.96094C18.2324 11.9922 17.5195 13.8184 16.3281 15.2539L15.2539 14.1797C14.9609 13.877 14.4531 13.877 14.1406 14.1797C13.8477 14.4824 13.8379 14.9902 14.1406 15.293L15.5273 16.6602C16.1035 17.2363 16.8555 17.1191 17.2852 16.6406C18.9062 14.873 19.9023 12.5195 19.9023 9.96094C19.9023 4.52148 15.3906 0 9.95117 0C4.50195 0 0 4.52148 0 9.96094ZM3.21289 9.17969L0.830078 9.17969L0.830078 10.752L3.21289 10.752C3.64258 10.752 4.00391 10.3906 4.00391 9.96094C4.00391 9.53125 3.64258 9.17969 3.21289 9.17969ZM5.72266 4.63867L4.0332 2.94922L2.91992 4.0625L4.60938 5.75195C4.91211 6.05469 5.41992 6.05469 5.72266 5.75195C6.02539 5.43945 6.02539 4.94141 5.72266 4.63867ZM10.7324 3.21289L10.7324 0.830078L9.16016 0.830078L9.16016 3.21289C9.16016 3.64258 9.52148 4.00391 9.95117 4.00391C10.3809 4.00391 10.7324 3.64258 10.7324 3.21289ZM14.1699 4.63867C13.8672 4.94141 13.877 5.43945 14.1699 5.75195C14.4824 6.05469 14.9902 6.05469 15.2832 5.75195L16.9727 4.0625L15.8594 2.94922Z" fill="#ffffff" fill-opacity="0.85"/>
  <path d="M8.32031 9.9707C8.32031 10.8789 8.97461 11.5332 9.88281 11.5332C10.0488 11.5332 10.3613 11.4746 10.5566 11.4453L16.2207 10.4199C16.4941 10.3711 16.6309 10.1758 16.6309 9.9707C16.6309 9.76562 16.4941 9.58008 16.2207 9.52148L10.5566 8.50586C10.3613 8.4668 10.0488 8.41797 9.88281 8.41797C8.97461 8.41797 8.32031 9.07227 8.32031 9.9707Z" fill="#ffffff" fill-opacity="0.85"/>
 </g>
</svg>
