<svg width="391" height="81" viewBox="0 0 391 81" fill="none" xmlns="http://www.w3.org/2000/svg">
<path d="M56.2 78.3C58.8 78.3 61.3667 77.3333 63.9 75.4C66.2333 73.6667 68.0333 71.5333 69.3 69C69.7 68.1333 69.9 67.4 69.9 66.8C69.9 66.0667 69.6333 65.7 69.1 65.7C68.6333 65.7 68.1667 66 67.7 66.6C66.3667 68.4667 64.7333 69.4 62.8 69.4C62.0667 69.4 61.4 69.2 60.8 68.8C59.7333 68.1333 59.2 67.0667 59.2 65.6C59.2 64.4667 59.7 62.25 60.7 58.95C61.7 55.65 62.2 53.1333 62.2 51.4C62.2 50.1333 62 49 61.6 48C60.7333 45.9333 59.1333 44.4 56.8 43.4C62.3333 42.2 67.1333 40.2667 71.2 37.6C76.0667 34.3333 79.1 30.3667 80.3 25.7C80.7667 24.2333 81 22.7333 81 21.2C81 15.6 78.4 10.7667 73.2 6.7C68 2.63333 61.3667 0.433333 53.3 0.1C44.4333 -0.3 36 1.5 28 5.5C19.6 9.7 14.8333 14.9 13.7 21.1C13.5667 21.8333 13.5 22.5333 13.5 23.2C13.5 26.4 14.7667 29.1667 17.3 31.5C19.1 33.1 20.8 34.0667 22.4 34.4C23.5333 34.6667 24.4 34.5 25 33.9C25.6 33.2333 25.4667 32.7 24.6 32.3C23.4 31.7 22.8 29.8 22.8 26.6C22.8 23.7333 23.5333 21.0667 25 18.6C27.2667 15.0667 30.6667 12.2 35.2 10C40.0667 7.66667 45.3667 6.63333 51.1 6.9C52.2333 6.96667 53.3 7.1 54.3 7.3C53.2333 7.76667 52.0667 8.36667 50.8 9.1C42.4 13.9 35.9667 21.6667 31.5 32.4L21.8 55.5C19.7333 60.5 17.1667 64.2 14.1 66.6C11.6333 68.5333 9.26667 69.3333 7 69C5.86667 68.8 4.91667 68.2333 4.15 67.3C3.38333 66.3667 3 65.4333 3 64.5C3 64.1 2.9 63.8167 2.7 63.65C2.5 63.4833 2.26667 63.4 2 63.4C1.2 63.5333 0.7 64.0333 0.5 64.9C0.166667 66.3 0 67.5333 0 68.6C0 72.3333 1.66667 75 5 76.6C6.66667 77.4 8.56667 77.8 10.7 77.8C14.8333 77.8 18.7667 76.4 22.5 73.6C26.9667 70.2 30.6 65.1333 33.4 58.4C37.4667 48.4 39.4667 43.5333 39.4 43.8C42.2 44.1333 44.9333 46.1667 47.6 49.9C48.9333 51.7667 49.6 54.4667 49.6 58C49.6 59.3333 49.4833 61.3333 49.25 64C49.0167 66.6667 48.9 68.5667 48.9 69.7C48.9 72.3667 49.3667 74.3 50.3 75.5C51.7667 77.3667 53.7333 78.3 56.2 78.3ZM49.3 36.5C47.0333 36.5 44.8333 36.2333 42.7 35.7L44.3 31.7C47.6333 23.6333 50.6667 18.0667 53.4 15C55.2 12.8667 57.4333 10.8667 60.1 9C66.0333 11.4667 69 15.5667 69 21.3C69 22.7667 68.7333 24.2 68.2 25.6C66.8667 29.3333 64.3333 32.1333 60.6 34C57.3333 35.6667 53.5667 36.5 49.3 36.5ZM83.56 77.7C88.8267 77.7 94.3267 75 100.06 69.6C102.46 71.4 105.327 72.3 108.66 72.3C111.993 72.3 114.727 71.3333 116.86 69.4C118.26 68.1333 119.693 66.1667 121.16 63.5C122.493 61.2333 123.26 59.5667 123.46 58.5C123.66 57.7667 123.493 56.9833 122.96 56.15C122.427 55.3167 121.76 54.7333 120.96 54.4C120.093 54 119.427 54.2667 118.96 55.2C115.76 61.8667 112.727 65.4 109.86 65.8C108.26 66 106.593 65.5333 104.86 64.4C106.793 61.9333 108.393 59.4 109.66 56.8C111.527 52.8 112.46 49.1333 112.46 45.8C112.46 42.7333 111.693 40.3167 110.16 38.55C108.627 36.7833 106.46 35.9 103.66 35.9C99.1933 35.9 94.4267 37.95 89.36 42.05C84.2933 46.15 80.36 51.0667 77.56 56.8C75.6933 60.8 74.76 64.4667 74.76 67.8C74.76 70.8667 75.5267 73.2833 77.06 75.05C78.5933 76.8167 80.76 77.7 83.56 77.7ZM100.76 59C100.36 57.8667 100.127 56.7 100.06 55.5C99.9267 51.7667 100.893 48.2667 102.96 45C103.76 45.8 104.16 47.0667 104.16 48.8C104.16 51.8 103.027 55.2 100.76 59ZM88.86 68.9C86.5933 68.9 85.46 67.4 85.46 64.4C85.46 62.1333 86.16 59.5333 87.56 56.6C90.0267 51.4 93.16 47.6667 96.96 45.4C95.4933 48.0667 94.5267 51.4667 94.06 55.6C93.7933 58.8667 94.4933 62 96.16 65C93.4267 67.6 90.9933 68.9 88.86 68.9ZM130.02 77.5C138.287 77.5 144.753 74.7667 149.42 69.3C151.82 66.3667 153.42 63.7667 154.22 61.5C154.753 59.9 154.42 58.6 153.22 57.6C152.553 57 151.92 56.7 151.32 56.7C150.72 56.7 150.287 57 150.02 57.6C148.553 60.5333 146.82 63.0333 144.82 65.1C141.153 68.9667 137.253 70.9 133.12 70.9C128.987 70.9 126.92 68.9 126.92 64.9C126.92 62.1 127.903 58.7667 129.87 54.9C131.837 51.0333 134.087 47.7667 136.62 45.1C139.353 42.1667 141.72 40.7 143.72 40.7C145.587 40.7 146.553 41.3 146.62 42.5C145.02 42.2333 143.487 42.7833 142.02 44.15C140.553 45.5167 139.82 47.0333 139.82 48.7C139.887 50.5 140.853 51.4 142.72 51.4C144.587 51.4 146.287 50.2333 147.82 47.9C149.153 45.9 149.853 43.9 149.92 41.9C149.92 40.0333 149.237 38.6 147.87 37.6C146.503 36.6 144.92 36.1 143.12 36.1C138.92 36.1 134.57 37.8667 130.07 41.4C125.57 44.9333 121.887 49.2 119.02 54.2C116.753 58.2667 115.62 62.2 115.62 66C115.62 72.0667 118.42 75.7 124.02 76.9C125.953 77.3 127.953 77.5 130.02 77.5ZM173.18 76.8C177.18 76.8 181.013 75.4 184.68 72.6C188.747 69.4 191.98 64.9 194.38 59.1C194.513 58.7667 194.58 58.4 194.58 58C194.58 57.1333 194.247 56.3333 193.58 55.6C192.913 54.8667 192.213 54.4333 191.48 54.3C190.813 54.1667 190.347 54.3667 190.08 54.9C188.547 58.5 186.647 61.6 184.38 64.2C181.913 67 179.647 68.4 177.58 68.4C175.847 68.4 174.98 67.5667 174.98 65.9C174.98 65.3 175.147 64.3 175.48 62.9C175.813 61.5 175.98 60.4667 175.98 59.8C176.313 56.6667 174.747 54.7667 171.28 54.1L176.68 47.5C180.147 43.5 182.613 41.4333 184.08 41.3C184.947 41.2333 185.38 41.4667 185.38 42C185.38 42.8 184.88 43.4 183.88 43.8C181.68 44.6 180.447 46.0667 180.18 48.2C180.113 49.1333 180.347 49.9833 180.88 50.75C181.413 51.5167 182.213 51.9 183.28 51.9C185.347 51.9 187.08 50.9667 188.48 49.1C189.88 47.2333 190.513 45.2 190.38 43C190.047 38.8667 187.68 36.8 183.28 36.8C180.413 36.8 177.613 37.9333 174.88 40.2C173.48 41.3333 171.48 43.4667 168.88 46.6C166.947 48.9333 165.547 50.1667 164.68 50.3C164.147 50.3667 163.647 50.1667 163.18 49.7C172.247 30.9667 178.68 17.4667 182.48 9.2C182.747 8.53333 182.88 7.96667 182.88 7.5C182.88 6.23333 182.08 5.63333 180.48 5.7C178.947 5.76667 177.28 6.31667 175.48 7.35C173.68 8.38333 172.447 9.6 171.78 11L141.68 75.1C141.347 75.7667 141.513 76.1 142.18 76.1H149.68C150.147 76.1 150.547 75.8 150.88 75.2L160.68 55C160.88 56.1333 162.047 56.6333 164.18 56.5C166.313 56.3667 167.38 56.9 167.38 58.1C167.38 58.7 166.897 60.4167 165.93 63.25C164.963 66.0833 164.58 68.3333 164.78 70C165.313 74.5333 168.113 76.8 173.18 76.8ZM201.14 77.5C209.407 77.5 215.873 74.7667 220.54 69.3C222.94 66.3667 224.54 63.7667 225.34 61.5C225.873 59.9 225.54 58.6 224.34 57.6C223.673 57 223.04 56.7 222.44 56.7C221.84 56.7 221.407 57 221.14 57.6C219.673 60.5333 217.94 63.0333 215.94 65.1C212.273 68.9667 208.373 70.9 204.24 70.9C203.24 70.9 202.273 70.7667 201.34 70.5C198.807 69.7667 197.707 67.5333 198.04 63.8C203.107 62.1333 207.873 59.3667 212.34 55.5C217.54 51.0333 220.34 46.4667 220.74 41.8C220.873 39.8 220.307 38.3 219.04 37.3C217.907 36.5 216.307 36.1 214.24 36.1C210.04 36.1667 205.673 37.9333 201.14 41.4C196.607 44.8667 192.94 49.1333 190.14 54.2C187.94 58.2667 186.84 62.2333 186.84 66.1C186.84 72.1 189.607 75.7 195.14 76.9C197.073 77.3 199.073 77.5 201.14 77.5ZM199.14 58.9C199.673 57.6333 200.307 56.3 201.04 54.9C203.04 51.0333 205.473 47.65 208.34 44.75C211.207 41.85 213.373 40.5 214.84 40.7C215.707 40.8333 216.14 41.3667 216.14 42.3C216.14 42.9 215.94 43.6667 215.54 44.6C213.073 50.2667 207.607 55.0333 199.14 58.9ZM226.4 76.9C236.6 76.9 244.267 71.0333 249.4 59.3C249.6 58.9 249.7 58.4667 249.7 58C249.7 56.5333 249.067 55.4333 247.8 54.7C246.6 53.9667 245.8 54 245.4 54.8C242.8 60.4667 239.933 64.5 236.8 66.9C235.2 68.1 233.6 68.7 232 68.7C229.667 68.7 228.5 67.6333 228.5 65.5C228.5 64.3 228.933 62.7667 229.8 60.9L237.4 44.3H241.2C242.4 44.3 243.517 43.7 244.55 42.5C245.583 41.3 246.233 40.1 246.5 38.9C246.767 37.6333 246.533 37 245.8 37H240.8L247.6 22.1C247.8 21.7 247.9 21.3333 247.9 21C247.9 20.2667 247.4 19.8 246.4 19.6C244.8 19.4 243.1 19.6667 241.3 20.4C239.1 21.3333 237.6 22.6333 236.8 24.3L230.8 37H229.5C228.033 37 226.8 37.5333 225.8 38.6C224.8 39.6667 224.3 40.9333 224.3 42.4C224.3 43.6667 224.667 44.3 225.4 44.3H227.3L218.8 62.3C217.733 64.5 217.2 66.6 217.2 68.6C217.2 71.1333 218.033 73.15 219.7 74.65C221.367 76.15 223.6 76.9 226.4 76.9ZM269.46 80.2C275.46 80.2 280.96 78.9167 285.96 76.35C290.96 73.7833 294.46 70.5333 296.46 66.6C297.727 64.1333 298.36 61.7333 298.36 59.4C298.36 54.4667 294.86 48.2333 287.86 40.7L283.96 36.5C276.693 28.6333 273.06 22.3333 273.06 17.6C273.06 16.2 273.393 14.8667 274.06 13.6C275.66 10.5333 278.627 9 282.96 9C284.827 9 286.66 9.33333 288.46 10C290.993 10.8667 293.16 12.3333 294.96 14.4C296.76 16.4667 297.493 18.5333 297.16 20.6C297.027 21.6667 296.577 22.6 295.81 23.4C295.043 24.2 294.227 24.6 293.36 24.6C292.693 24.6 292.127 24.3667 291.66 23.9C291.66 23.8333 291.527 23.9 291.26 24.1C290.927 24.5 290.727 25 290.66 25.6C290.593 26.4 290.727 27.1333 291.06 27.8C292.06 29.6667 293.827 30.6 296.36 30.6C298.56 30.6 300.777 29.7 303.01 27.9C305.243 26.1 306.793 24.0333 307.66 21.7C308.193 20.2333 308.46 18.7667 308.46 17.3C308.46 13.5 307.027 10.0667 304.16 7C301.027 3.73333 296.793 1.6 291.46 0.6C289.327 0.2 287.26 0 285.26 0C275.66 0 268.727 3.86667 264.46 11.6C262.927 14.2667 262.16 17.3 262.16 20.7C262.16 28.7 265.793 36.5333 273.06 44.2L277.66 49C282.86 54.4667 285.46 59.1667 285.46 63.1C285.46 64.5 285.127 65.8 284.46 67C282.46 70.3333 278.493 72 272.56 72C269.693 72 267.027 71.5 264.56 70.5C261.627 69.3667 259.31 67.7667 257.61 65.7C255.91 63.6333 255.227 61.4667 255.56 59.2C255.76 57.6 256.493 56.25 257.76 55.15C259.027 54.05 260.327 53.5 261.66 53.5C261.993 53.5 262.327 53.5333 262.66 53.6C262.86 53.4 262.827 52.9667 262.56 52.3C261.76 49.9667 259.927 48.7333 257.06 48.6C253.393 48.4 250.21 49.6667 247.51 52.4C244.81 55.1333 243.46 58.3333 243.46 62C243.46 65.8 245.11 69.3333 248.41 72.6C251.71 75.8667 255.993 78.1 261.26 79.3C263.993 79.9 266.727 80.2 269.46 80.2ZM323.42 32C324.82 32 326.353 31.3 328.02 29.9C329.687 28.5 331.053 26.8 332.12 24.8C332.987 23.1333 333.42 21.6667 333.42 20.4C333.42 18.4667 332.587 17.5 330.92 17.5C329.52 17.5 327.987 18.2167 326.32 19.65C324.653 21.0833 323.287 22.8 322.22 24.8C321.353 26.4 320.92 27.8333 320.92 29.1C320.92 31.0333 321.753 32 323.42 32ZM305.77 74.75C307.47 76.3167 309.753 77.0333 312.62 76.9C317.62 76.7 322.153 74.6 326.22 70.6C329.22 67.6 331.687 63.8333 333.62 59.3C333.82 58.9 333.92 58.4667 333.92 58C333.92 56.5333 333.287 55.4333 332.02 54.7C330.82 53.9667 329.987 54 329.52 54.8C325.187 63.8 321.12 68.3 317.32 68.3C315.387 68.3 314.42 67.4 314.42 65.6C314.42 64.3333 314.82 62.7667 315.62 60.9L326.02 37.8C326.287 37.2 326.187 36.9 325.72 36.9H317.42C316.953 36.9 316.62 37.1 316.42 37.5L304.72 62.3C303.72 64.4333 303.22 66.5 303.22 68.5C303.22 71.1 304.07 73.1833 305.77 74.75ZM369.38 76.8C373.047 76.8 376.613 75.5333 380.08 73C384.28 70 387.713 65.4667 390.38 59.4C390.58 58.9333 390.68 58.4333 390.68 57.9C390.68 56.6333 390.047 55.6 388.78 54.8C387.513 54 386.713 53.9333 386.38 54.6C382.047 63.7333 377.913 68.3 373.98 68.3C372.047 68.3 371.08 67.4333 371.08 65.7C371.08 63.8333 372.18 60.5667 374.38 55.9C376.713 50.9 378.013 47.4667 378.28 45.6C378.347 45.0667 378.38 44.5333 378.38 44C378.38 41.8 377.78 40.0333 376.58 38.7C375.38 37.3667 373.813 36.6667 371.88 36.6C368.013 36.5333 364.313 38.3 360.78 41.9C359.98 38.4333 357.88 36.7 354.48 36.7C350.68 36.6333 346.947 38.4667 343.28 42.2L344.98 38.3C345.38 37.3667 345.147 36.9 344.28 36.9H338.58C337.847 36.9 337.38 37.1667 337.18 37.7L319.58 75.3C319.313 75.9 319.513 76.2 320.18 76.2H327.98C328.58 76.2 329.013 75.9 329.28 75.3L338.08 57.3C342.48 48.3667 346.08 43.9 348.88 43.9C350.08 43.9 350.68 44.7333 350.68 46.4C350.68 48.3333 350.013 50.6667 348.68 53.4L338.48 75.1C338.147 75.8333 338.347 76.2 339.08 76.2H346.98C347.513 76.2 347.98 75.7667 348.38 74.9L356.48 57.3C358.213 53.5667 359.713 50.7667 360.98 48.9C363.18 45.5667 364.98 43.9 366.38 43.9C367.38 43.9 367.88 44.6333 367.88 46.1C367.88 47.7 367.213 50.1667 365.88 53.5L362.18 62.3C361.18 64.7 360.68 66.8667 360.68 68.8C360.68 74.1333 363.58 76.8 369.38 76.8Z" fill="black"/>
</svg>
