<?xml version="1.0" encoding="UTF-8"?>
<svg width="392px" height="81px" viewBox="0 0 392 81" version="1.1" xmlns="http://www.w3.org/2000/svg" xmlns:xlink="http://www.w3.org/1999/xlink">
    <title>RocketSim</title>
    <g id="Website" stroke="none" stroke-width="1" fill="none" fill-rule="evenodd">
        <path d="M56.9,79.1 C59.5,79.1 62.0666667,78.1333333 64.6,76.2 C66.9333333,74.4666667 68.7333333,72.3333333 70,69.8 C70.4,68.9333333 70.6,68.2 70.6,67.6 C70.6,66.8666667 70.3333333,66.5 69.8,66.5 C69.3333333,66.5 68.8666667,66.8 68.4,67.4 C67.0666667,69.2666667 65.4333333,70.2 63.5,70.2 C62.7666667,70.2 62.1,70 61.5,69.6 C60.4333333,68.9333333 59.9,67.8666667 59.9,66.4 C59.9,65.2666667 60.4,63.05 61.4,59.75 C62.4,56.45 62.9,53.9333333 62.9,52.2 C62.9,50.9333333 62.7,49.8 62.3,48.8 C61.4333333,46.7333333 59.8333333,45.2 57.5,44.2 C63.0333333,43 67.8333333,41.0666667 71.9,38.4 C76.7666667,35.1333333 79.8,31.1666667 81,26.5 C81.4666667,25.0333333 81.7,23.5333333 81.7,22 C81.7,16.4 79.1,11.5666667 73.9,7.5 C68.7,3.43333333 62.0666667,1.23333333 54,0.9 C45.1333333,0.5 36.7,2.3 28.7,6.3 C20.3,10.5 15.5333333,15.7 14.4,21.9 C14.2666667,22.6333333 14.2,23.3333333 14.2,24 C14.2,27.2 15.4666667,29.9666667 18,32.3 C19.8,33.9 21.5,34.8666667 23.1,35.2 C24.2333333,35.4666667 25.1,35.3 25.7,34.7 C26.3,34.0333333 26.1666667,33.5 25.3,33.1 C24.1,32.5 23.5,30.6 23.5,27.4 C23.5,24.5333333 24.2333333,21.8666667 25.7,19.4 C27.9666667,15.8666667 31.3666667,13 35.9,10.8 C40.7666667,8.46666667 46.0666667,7.43333333 51.8,7.7 C52.9333333,7.76666667 54,7.9 55,8.1 C53.9333333,8.56666667 52.7666667,9.16666667 51.5,9.9 C43.1,14.7 36.6666667,22.4666667 32.2,33.2 L32.2,33.2 L22.5,56.3 C20.4333333,61.3 17.8666667,65 14.8,67.4 C12.3333333,69.3333333 9.96666667,70.1333333 7.7,69.8 C6.56666667,69.6 5.61666667,69.0333333 4.85,68.1 C4.08333333,67.1666667 3.7,66.2333333 3.7,65.3 C3.7,64.9 3.6,64.6166667 3.4,64.45 C3.2,64.2833333 2.96666667,64.2 2.7,64.2 C1.9,64.3333333 1.4,64.8333333 1.2,65.7 C0.866666667,67.1 0.7,68.3333333 0.7,69.4 C0.7,73.1333333 2.36666667,75.8 5.7,77.4 C7.36666667,78.2 9.26666667,78.6 11.4,78.6 C15.5333333,78.6 19.4666667,77.2 23.2,74.4 C27.6666667,71 31.3,65.9333333 34.1,59.2 C38.1666667,49.2 40.1666667,44.3333333 40.1,44.6 C42.9,44.9333333 45.6333333,46.9666667 48.3,50.7 C49.6333333,52.5666667 50.3,55.2666667 50.3,58.8 C50.3,60.1333333 50.1833333,62.1333333 49.95,64.8 C49.7166667,67.4666667 49.6,69.3666667 49.6,70.5 C49.6,73.1666667 50.0666667,75.1 51,76.3 C52.4666667,78.1666667 54.4333333,79.1 56.9,79.1 Z M50,37.3 C47.7333333,37.3 45.5333333,37.0333333 43.4,36.5 L43.4,36.5 L45,32.5 C48.3333333,24.4333333 51.3666667,18.8666667 54.1,15.8 C55.9,13.6666667 58.1333333,11.6666667 60.8,9.8 C66.7333333,12.2666667 69.7,16.3666667 69.7,22.1 C69.7,23.5666667 69.4333333,25 68.9,26.4 C67.5666667,30.1333333 65.0333333,32.9333333 61.3,34.8 C58.0333333,36.4666667 54.2666667,37.3 50,37.3 Z M84.26,78.5 C89.5266667,78.5 95.0266667,75.8 100.76,70.4 C103.16,72.2 106.026667,73.1 109.36,73.1 C112.693333,73.1 115.426667,72.1333333 117.56,70.2 C118.96,68.9333333 120.393333,66.9666667 121.86,64.3 C123.193333,62.0333333 123.96,60.3666667 124.16,59.3 C124.36,58.5666667 124.193333,57.7833333 123.66,56.95 C123.126667,56.1166667 122.46,55.5333333 121.66,55.2 C120.793333,54.8 120.126667,55.0666667 119.66,56 C116.46,62.6666667 113.426667,66.2 110.56,66.6 C108.96,66.8 107.293333,66.3333333 105.56,65.2 C107.493333,62.7333333 109.093333,60.2 110.36,57.6 C112.226667,53.6 113.16,49.9333333 113.16,46.6 C113.16,43.5333333 112.393333,41.1166667 110.86,39.35 C109.326667,37.5833333 107.16,36.7 104.36,36.7 C99.8933333,36.7 95.1266667,38.75 90.06,42.85 C84.9933333,46.95 81.06,51.8666667 78.26,57.6 C76.3933333,61.6 75.46,65.2666667 75.46,68.6 C75.46,71.6666667 76.2266667,74.0833333 77.76,75.85 C79.2933333,77.6166667 81.46,78.5 84.26,78.5 Z M101.46,59.8 C101.06,58.6666667 100.826667,57.5 100.76,56.3 C100.626667,52.5666667 101.593333,49.0666667 103.66,45.8 C104.46,46.6 104.86,47.8666667 104.86,49.6 C104.86,52.6 103.726667,56 101.46,59.8 Z M89.56,69.7 C87.2933333,69.7 86.16,68.2 86.16,65.2 C86.16,62.9333333 86.86,60.3333333 88.26,57.4 C90.7266667,52.2 93.86,48.4666667 97.66,46.2 C96.1933333,48.8666667 95.2266667,52.2666667 94.76,56.4 C94.4933333,59.6666667 95.1933333,62.8 96.86,65.8 C94.1266667,68.4 91.6933333,69.7 89.56,69.7 Z M130.72,78.3 C138.986667,78.3 145.453333,75.5666667 150.12,70.1 C152.52,67.1666667 154.12,64.5666667 154.92,62.3 C155.453333,60.7 155.12,59.4 153.92,58.4 C153.253333,57.8 152.62,57.5 152.02,57.5 C151.42,57.5 150.986667,57.8 150.72,58.4 C149.253333,61.3333333 147.52,63.8333333 145.52,65.9 C141.853333,69.7666667 137.953333,71.7 133.82,71.7 C129.686667,71.7 127.62,69.7 127.62,65.7 C127.62,62.9 128.603333,59.5666667 130.57,55.7 C132.536667,51.8333333 134.786667,48.5666667 137.32,45.9 C140.053333,42.9666667 142.42,41.5 144.42,41.5 C146.286667,41.5 147.253333,42.1 147.32,43.3 C145.72,43.0333333 144.186667,43.5833333 142.72,44.95 C141.253333,46.3166667 140.52,47.8333333 140.52,49.5 C140.586667,51.3 141.553333,52.2 143.42,52.2 C145.286667,52.2 146.986667,51.0333333 148.52,48.7 C149.853333,46.7 150.553333,44.7 150.62,42.7 C150.62,40.8333333 149.936667,39.4 148.57,38.4 C147.203333,37.4 145.62,36.9 143.82,36.9 C139.62,36.9 135.27,38.6666667 130.77,42.2 C126.27,45.7333333 122.586667,50 119.72,55 C117.453333,59.0666667 116.32,63 116.32,66.8 C116.32,72.8666667 119.12,76.5 124.72,77.7 C126.653333,78.1 128.653333,78.3 130.72,78.3 Z M173.88,77.6 C177.88,77.6 181.713333,76.2 185.38,73.4 C189.446667,70.2 192.68,65.7 195.08,59.9 C195.213333,59.5666667 195.28,59.2 195.28,58.8 C195.28,57.9333333 194.946667,57.1333333 194.28,56.4 C193.613333,55.6666667 192.913333,55.2333333 192.18,55.1 C191.513333,54.9666667 191.046667,55.1666667 190.78,55.7 C189.246667,59.3 187.346667,62.4 185.08,65 C182.613333,67.8 180.346667,69.2 178.28,69.2 C176.546667,69.2 175.68,68.3666667 175.68,66.7 C175.68,66.1 175.846667,65.1 176.18,63.7 C176.513333,62.3 176.68,61.2666667 176.68,60.6 C177.013333,57.4666667 175.446667,55.5666667 171.98,54.9 L171.98,54.9 L177.38,48.3 C180.846667,44.3 183.313333,42.2333333 184.78,42.1 C185.646667,42.0333333 186.08,42.2666667 186.08,42.8 C186.08,43.6 185.58,44.2 184.58,44.6 C182.38,45.4 181.146667,46.8666667 180.88,49 C180.813333,49.9333333 181.046667,50.7833333 181.58,51.55 C182.113333,52.3166667 182.913333,52.7 183.98,52.7 C186.046667,52.7 187.78,51.7666667 189.18,49.9 C190.58,48.0333333 191.213333,46 191.08,43.8 C190.746667,39.6666667 188.38,37.6 183.98,37.6 C181.113333,37.6 178.313333,38.7333333 175.58,41 C174.18,42.1333333 172.18,44.2666667 169.58,47.4 C167.646667,49.7333333 166.246667,50.9666667 165.38,51.1 C164.846667,51.1666667 164.346667,50.9666667 163.88,50.5 C172.946667,31.7666667 179.38,18.2666667 183.18,10 C183.446667,9.33333333 183.58,8.76666667 183.58,8.3 C183.58,7.03333333 182.78,6.43333333 181.18,6.5 C179.646667,6.56666667 177.98,7.11666667 176.18,8.15 C174.38,9.18333333 173.146667,10.4 172.48,11.8 L172.48,11.8 L142.38,75.9 C142.046667,76.5666667 142.213333,76.9 142.88,76.9 L142.88,76.9 L150.38,76.9 C150.846667,76.9 151.246667,76.6 151.58,76 L151.58,76 L161.38,55.8 C161.58,56.9333333 162.746667,57.4333333 164.88,57.3 C167.013333,57.1666667 168.08,57.7 168.08,58.9 C168.08,59.5 167.596667,61.2166667 166.63,64.05 C165.663333,66.8833333 165.28,69.1333333 165.48,70.8 C166.013333,75.3333333 168.813333,77.6 173.88,77.6 Z M201.84,78.3 C210.106667,78.3 216.573333,75.5666667 221.24,70.1 C223.64,67.1666667 225.24,64.5666667 226.04,62.3 C226.573333,60.7 226.24,59.4 225.04,58.4 C224.373333,57.8 223.74,57.5 223.14,57.5 C222.54,57.5 222.106667,57.8 221.84,58.4 C220.373333,61.3333333 218.64,63.8333333 216.64,65.9 C212.973333,69.7666667 209.073333,71.7 204.94,71.7 C203.94,71.7 202.973333,71.5666667 202.04,71.3 C199.506667,70.5666667 198.406667,68.3333333 198.74,64.6 C203.806667,62.9333333 208.573333,60.1666667 213.04,56.3 C218.24,51.8333333 221.04,47.2666667 221.44,42.6 C221.573333,40.6 221.006667,39.1 219.74,38.1 C218.606667,37.3 217.006667,36.9 214.94,36.9 C210.74,36.9666667 206.373333,38.7333333 201.84,42.2 C197.306667,45.6666667 193.64,49.9333333 190.84,55 C188.64,59.0666667 187.54,63.0333333 187.54,66.9 C187.54,72.9 190.306667,76.5 195.84,77.7 C197.773333,78.1 199.773333,78.3 201.84,78.3 Z M199.84,59.7 C200.373333,58.4333333 201.006667,57.1 201.74,55.7 C203.74,51.8333333 206.173333,48.45 209.04,45.55 C211.906667,42.65 214.073333,41.3 215.54,41.5 C216.406667,41.6333333 216.84,42.1666667 216.84,43.1 C216.84,43.7 216.64,44.4666667 216.24,45.4 C213.773333,51.0666667 208.306667,55.8333333 199.84,59.7 Z M227.1,77.7 C237.3,77.7 244.966667,71.8333333 250.1,60.1 C250.3,59.7 250.4,59.2666667 250.4,58.8 C250.4,57.3333333 249.766667,56.2333333 248.5,55.5 C247.3,54.7666667 246.5,54.8 246.1,55.6 C243.5,61.2666667 240.633333,65.3 237.5,67.7 C235.9,68.9 234.3,69.5 232.7,69.5 C230.366667,69.5 229.2,68.4333333 229.2,66.3 C229.2,65.1 229.633333,63.5666667 230.5,61.7 L230.5,61.7 L238.1,45.1 L241.9,45.1 C243.1,45.1 244.216667,44.5 245.25,43.3 C246.283333,42.1 246.933333,40.9 247.2,39.7 C247.466667,38.4333333 247.233333,37.8 246.5,37.8 L246.5,37.8 L241.5,37.8 L248.3,22.9 C248.5,22.5 248.6,22.1333333 248.6,21.8 C248.6,21.0666667 248.1,20.6 247.1,20.4 C245.5,20.2 243.8,20.4666667 242,21.2 C239.8,22.1333333 238.3,23.4333333 237.5,25.1 L237.5,25.1 L231.5,37.8 L230.2,37.8 C228.733333,37.8 227.5,38.3333333 226.5,39.4 C225.5,40.4666667 225,41.7333333 225,43.2 C225,44.4666667 225.366667,45.1 226.1,45.1 L226.1,45.1 L228,45.1 L219.5,63.1 C218.433333,65.3 217.9,67.4 217.9,69.4 C217.9,71.9333333 218.733333,73.95 220.4,75.45 C222.066667,76.95 224.3,77.7 227.1,77.7 Z M270.16,81 C276.16,81 281.66,79.7166667 286.66,77.15 C291.66,74.5833333 295.16,71.3333333 297.16,67.4 C298.426667,64.9333333 299.06,62.5333333 299.06,60.2 C299.06,55.2666667 295.56,49.0333333 288.56,41.5 L288.56,41.5 L284.66,37.3 C277.393333,29.4333333 273.76,23.1333333 273.76,18.4 C273.76,17 274.093333,15.6666667 274.76,14.4 C276.36,11.3333333 279.326667,9.8 283.66,9.8 C285.526667,9.8 287.36,10.1333333 289.16,10.8 C291.693333,11.6666667 293.86,13.1333333 295.66,15.2 C297.46,17.2666667 298.193333,19.3333333 297.86,21.4 C297.726667,22.4666667 297.276667,23.4 296.51,24.2 C295.743333,25 294.926667,25.4 294.06,25.4 C293.393333,25.4 292.826667,25.1666667 292.36,24.7 C292.36,24.6333333 292.226667,24.7 291.96,24.9 C291.626667,25.3 291.426667,25.8 291.36,26.4 C291.293333,27.2 291.426667,27.9333333 291.76,28.6 C292.76,30.4666667 294.526667,31.4 297.06,31.4 C299.26,31.4 301.476667,30.5 303.71,28.7 C305.943333,26.9 307.493333,24.8333333 308.36,22.5 C308.893333,21.0333333 309.16,19.5666667 309.16,18.1 C309.16,14.3 307.726667,10.8666667 304.86,7.8 C301.726667,4.53333333 297.493333,2.4 292.16,1.4 C290.026667,1 287.96,0.8 285.96,0.8 C276.36,0.8 269.426667,4.66666667 265.16,12.4 C263.626667,15.0666667 262.86,18.1 262.86,21.5 C262.86,29.5 266.493333,37.3333333 273.76,45 L273.76,45 L278.36,49.8 C283.56,55.2666667 286.16,59.9666667 286.16,63.9 C286.16,65.3 285.826667,66.6 285.16,67.8 C283.16,71.1333333 279.193333,72.8 273.26,72.8 C270.393333,72.8 267.726667,72.3 265.26,71.3 C262.326667,70.1666667 260.01,68.5666667 258.31,66.5 C256.61,64.4333333 255.926667,62.2666667 256.26,60 C256.46,58.4 257.193333,57.05 258.46,55.95 C259.726667,54.85 261.026667,54.3 262.36,54.3 C262.693333,54.3 263.026667,54.3333333 263.36,54.4 C263.56,54.2 263.526667,53.7666667 263.26,53.1 C262.46,50.7666667 260.626667,49.5333333 257.76,49.4 C254.093333,49.2 250.91,50.4666667 248.21,53.2 C245.51,55.9333333 244.16,59.1333333 244.16,62.8 C244.16,66.6 245.81,70.1333333 249.11,73.4 C252.41,76.6666667 256.693333,78.9 261.96,80.1 C264.693333,80.7 267.426667,81 270.16,81 Z M324.12,32.8 C325.52,32.8 327.053333,32.1 328.72,30.7 C330.386667,29.3 331.753333,27.6 332.82,25.6 C333.686667,23.9333333 334.12,22.4666667 334.12,21.2 C334.12,19.2666667 333.286667,18.3 331.62,18.3 C330.22,18.3 328.686667,19.0166667 327.02,20.45 C325.353333,21.8833333 323.986667,23.6 322.92,25.6 C322.053333,27.2 321.62,28.6333333 321.62,29.9 C321.62,31.8333333 322.453333,32.8 324.12,32.8 Z M306.47,75.55 C308.17,77.1166667 310.453333,77.8333333 313.32,77.7 C318.32,77.5 322.853333,75.4 326.92,71.4 C329.92,68.4 332.386667,64.6333333 334.32,60.1 C334.52,59.7 334.62,59.2666667 334.62,58.8 C334.62,57.3333333 333.986667,56.2333333 332.72,55.5 C331.52,54.7666667 330.686667,54.8 330.22,55.6 C325.886667,64.6 321.82,69.1 318.02,69.1 C316.086667,69.1 315.12,68.2 315.12,66.4 C315.12,65.1333333 315.52,63.5666667 316.32,61.7 L316.32,61.7 L326.72,38.6 C326.986667,38 326.886667,37.7 326.42,37.7 L326.42,37.7 L318.12,37.7 C317.653333,37.7 317.32,37.9 317.12,38.3 L317.12,38.3 L305.42,63.1 C304.42,65.2333333 303.92,67.3 303.92,69.3 C303.92,71.9 304.77,73.9833333 306.47,75.55 Z M370.08,77.6 C373.746667,77.6 377.313333,76.3333333 380.78,73.8 C384.98,70.8 388.413333,66.2666667 391.08,60.2 C391.28,59.7333333 391.38,59.2333333 391.38,58.7 C391.38,57.4333333 390.746667,56.4 389.48,55.6 C388.213333,54.8 387.413333,54.7333333 387.08,55.4 C382.746667,64.5333333 378.613333,69.1 374.68,69.1 C372.746667,69.1 371.78,68.2333333 371.78,66.5 C371.78,64.6333333 372.88,61.3666667 375.08,56.7 C377.413333,51.7 378.713333,48.2666667 378.98,46.4 C379.046667,45.8666667 379.08,45.3333333 379.08,44.8 C379.08,42.6 378.48,40.8333333 377.28,39.5 C376.08,38.1666667 374.513333,37.4666667 372.58,37.4 C368.713333,37.3333333 365.013333,39.1 361.48,42.7 C360.68,39.2333333 358.58,37.5 355.18,37.5 C351.38,37.4333333 347.646667,39.2666667 343.98,43 L343.98,43 L345.68,39.1 C346.08,38.1666667 345.846667,37.7 344.98,37.7 L344.98,37.7 L339.28,37.7 C338.546667,37.7 338.08,37.9666667 337.88,38.5 L337.88,38.5 L320.28,76.1 C320.013333,76.7 320.213333,77 320.88,77 L320.88,77 L328.68,77 C329.28,77 329.713333,76.7 329.98,76.1 L329.98,76.1 L338.78,58.1 C343.18,49.1666667 346.78,44.7 349.58,44.7 C350.78,44.7 351.38,45.5333333 351.38,47.2 C351.38,49.1333333 350.713333,51.4666667 349.38,54.2 L349.38,54.2 L339.18,75.9 C338.846667,76.6333333 339.046667,77 339.78,77 L339.78,77 L347.68,77 C348.213333,77 348.68,76.5666667 349.08,75.7 L349.08,75.7 L357.18,58.1 C358.913333,54.3666667 360.413333,51.5666667 361.68,49.7 C363.88,46.3666667 365.68,44.7 367.08,44.7 C368.08,44.7 368.58,45.4333333 368.58,46.9 C368.58,48.5 367.913333,50.9666667 366.58,54.3 L366.58,54.3 L362.88,63.1 C361.88,65.5 361.38,67.6666667 361.38,69.6 C361.38,74.9333333 364.28,77.6 370.08,77.6 Z" id="RocketSim" fill="#FFFFFF" fill-rule="nonzero"></path>
    </g>
</svg>