<?xml version="1.0" encoding="UTF-8"?>
<svg width="554px" height="82px" viewBox="0 0 554 82" version="1.1" xmlns="http://www.w3.org/2000/svg" xmlns:xlink="http://www.w3.org/1999/xlink">
    <title>RocketSim Insights</title>
    <g id="Website" stroke="none" stroke-width="1" fill="none" fill-rule="evenodd">
        <g id="RocketSim-Insights" transform="translate(0.7, 0.4095)" fill="#FFFFFF" fill-rule="nonzero">
            <path d="M54.5560584,55.4145469 C53.5588817,57.4089002 52.1418413,59.0883556 50.3049369,60.4529131 C48.3105837,61.9749195 46.2899889,62.7359227 44.2431527,62.7359227 C42.3012824,62.7359227 40.7530345,62.001161 39.5984089,60.5316376 C38.8636472,59.5869439 38.4962663,58.0649375 38.4962663,55.9656182 C38.4962663,55.0734076 38.5881115,53.5776426 38.7718019,51.4783234 C38.9554924,49.3790042 39.0473376,47.8045148 39.0473376,46.7548551 C39.0473376,43.9732572 38.5225078,41.8476964 37.4728482,40.378173 C35.3735289,37.4391261 33.2217267,35.8383952 31.0174416,35.5759803 C31.0699245,35.3660483 29.4954351,39.1973059 26.2939733,47.069753 C24.0896881,52.3705341 21.2293657,56.3592406 17.713006,59.0358726 C14.773959,61.2401578 11.6774632,62.3423004 8.42351839,62.3423004 C6.74406301,62.3423004 5.24829806,62.0274025 3.93622355,61.3976067 C1.31207452,60.1380152 0,58.038696 0,55.0996491 C0,54.2599214 0.131207452,53.2889862 0.393622355,52.1868436 C0.551071297,51.5045649 0.944693651,51.1109425 1.57448942,51.0059766 C1.78442134,51.0059766 1.96811177,51.0715803 2.12556072,51.2027877 C2.28300966,51.3339952 2.36173413,51.5570479 2.36173413,51.8719457 C2.36173413,52.6067075 2.66351127,53.3414692 3.26706554,54.0762309 C3.87061982,54.8109927 4.6185023,55.257098 5.51071297,55.4145469 C7.29513431,55.6769618 9.15828012,55.0471661 11.1001504,53.5251596 C13.5143675,51.6357723 15.5349623,48.7229669 17.1619347,44.7867434 L24.7982083,26.6013906 C28.3145681,18.1516307 33.3791757,12.0373634 39.9920312,8.25858884 C40.9892079,7.68127606 41.90766,7.20892923 42.7473877,6.84154837 C41.960143,6.68409942 41.1204153,6.57913346 40.2282047,6.52665048 C35.7146683,6.31671856 31.5422714,7.13020476 27.7110138,8.96710908 C24.1421711,10.6990474 21.4655391,12.9558156 19.6811177,15.7374136 C18.5264922,17.6792839 17.9491794,19.7786031 17.9491794,22.0353713 C17.9491794,24.5545543 18.4215262,26.0503193 19.3662199,26.5226661 C20.0484986,26.837564 20.1534646,27.2574278 19.6811177,27.7822576 C19.2087709,28.2546045 18.5264922,28.3858119 17.6342815,28.17588 C16.37469,27.9134651 15.036374,27.1524619 13.6193335,25.8928703 C11.6249802,24.055966 10.6278036,21.8779223 10.6278036,19.3587392 C10.6278036,18.8339094 10.6802866,18.2828381 10.7852525,17.7055254 C11.6774632,12.8246082 15.4299963,8.73093567 22.0428519,5.42450789 C28.3408095,2.27552905 34.9799066,0.858488575 41.960143,1.17338646 C48.3105837,1.43580136 53.5326402,3.16773972 57.6263127,6.36920154 C61.7199852,9.57066336 63.7668215,13.3756795 63.7668215,17.7842498 C63.7668215,18.9913584 63.583131,20.1722254 63.2157502,21.326851 C62.2710565,25.0006597 59.8830809,28.123397 56.0518233,30.6950631 C52.8503615,32.7943823 49.0715869,34.3163887 44.7154995,35.2610824 C46.5524038,36.0483271 47.8119954,37.2554356 48.4942741,38.882408 C48.809172,39.6696528 48.9666209,40.5618634 48.9666209,41.5590401 C48.9666209,42.9235976 48.5729986,44.9048301 47.7857539,47.5027376 C46.9985092,50.1006452 46.6048868,51.8457043 46.6048868,52.7379149 C46.6048868,53.8925405 47.0247506,54.7322682 47.8644783,55.257098 C48.3368252,55.5719959 48.861655,55.7294448 49.4389678,55.7294448 C50.9609742,55.7294448 52.2468072,54.9946831 53.2964668,53.5251596 C53.6638477,53.0528128 54.0312286,52.8166394 54.3986094,52.8166394 C54.8184733,52.8166394 55.0284052,53.1052958 55.0284052,53.6826086 C55.0284052,54.1549554 54.8709563,54.7322682 54.5560584,55.4145469 Z M53.6900892,21.2481266 C54.109953,20.145984 54.319885,19.0175999 54.319885,17.8629743 C54.319885,13.349438 51.9843923,10.1217347 47.313407,8.17986437 C45.2140878,9.64938783 43.455908,11.2238772 42.0388675,12.9033326 C39.8870653,15.3175497 37.4990897,19.6998786 34.8749406,26.0503193 L33.6153491,29.1992981 C35.2948045,29.619162 37.0267428,29.8290939 38.8111642,29.8290939 C42.1700749,29.8290939 45.1353633,29.1730566 47.7070294,27.8609821 C50.6460763,26.3914587 52.6404296,24.1871735 53.6900892,21.2481266 Z" id="Shape"></path>
            <path d="M86.3292548,45.8101615 C85.3320782,47.8569977 84.0724867,49.851351 82.5504802,51.7932213 C83.9150377,52.6854319 85.2271122,53.0528128 86.4867038,52.8953639 C88.743472,52.580466 91.1314476,49.798868 93.6506306,44.55057 C94.0180115,43.8158082 94.5428413,43.6058763 95.2251201,43.9207742 C95.8549158,44.1831891 96.3797456,44.6424152 96.7996095,45.2984524 C97.2194733,45.9544897 97.3506808,46.5711647 97.1932318,47.1484775 C97.0357829,47.9882052 96.4322286,49.3002797 95.382569,51.084701 C94.2279434,53.1840203 93.0995593,54.7322682 91.9974168,55.7294448 C90.3179614,57.2514513 88.1661592,58.0124545 85.5420101,58.0124545 C82.9178611,58.0124545 80.6610929,57.3039342 78.7717056,55.8868938 C74.2581693,60.1380152 69.9283234,62.2635759 65.7821679,62.2635759 C63.5778827,62.2635759 61.8721859,61.5681764 60.6650773,60.1773774 C59.4579688,58.7865784 58.8544145,56.8840704 58.8544145,54.4698533 C58.8544145,51.8457043 59.5891762,48.9591403 61.0586997,45.8101615 C63.2629849,41.2966252 66.3594807,37.4260053 70.3481872,34.198302 C74.3368938,30.9705987 78.0894269,29.3567471 81.6057866,29.3567471 C83.8100718,29.3567471 85.5157686,30.0521466 86.7228772,31.4429455 C87.9299858,32.8337445 88.53354,34.7362526 88.53354,37.1504697 C88.53354,39.7746187 87.7987783,42.6611826 86.3292548,45.8101615 Z M76.331247,36.8355718 C73.3397171,38.6199931 70.873017,41.5590401 68.9311468,45.6527125 C67.8290042,47.9619637 67.2779329,50.0087999 67.2779329,51.7932213 C67.2779329,54.1549554 68.1701435,55.3358225 69.9545649,55.3358225 C71.6340203,55.3358225 73.5496491,54.3124043 75.7014513,52.2655681 C74.3893767,49.903834 73.8383055,47.4371339 74.0482374,44.8654678 C74.4156182,41.611523 75.1766215,38.934891 76.331247,36.8355718 Z M81.9994089,39.5122038 C81.9994089,38.1476463 81.6845111,37.1504697 81.0547153,36.5206739 C79.4277429,39.09234 78.6667397,41.8476964 78.7717056,44.7867434 C78.8241886,45.731437 79.007879,46.6498892 79.3227769,47.5420998 C81.1071983,44.55057 81.9994089,41.8739379 81.9994089,39.5122038 Z" id="Shape"></path>
            <path d="M118.023727,34.0802153 C117.971244,35.6547047 117.420173,37.2291942 116.370513,38.8036836 C115.163404,40.6405879 113.825088,41.5590401 112.355565,41.5590401 C110.886041,41.5590401 110.125038,40.8505198 110.072555,39.4334793 C110.072555,38.1214048 110.649868,36.927417 111.804494,35.8515159 C112.959119,34.7756148 114.166228,34.3426302 115.425819,34.5525621 C115.373336,33.6078685 114.612333,33.1355217 113.14281,33.1355217 C111.56832,33.1355217 109.705174,34.2901472 107.553372,36.5993984 C105.559019,38.6987176 103.787718,41.2703837 102.23947,44.3143965 C100.691222,47.3584094 99.9170985,49.9825584 99.9170985,52.1868436 C99.9170985,55.3358225 101.544071,56.9103119 104.798016,56.9103119 C108.051961,56.9103119 111.122215,55.3883055 114.008779,52.3442926 C115.583268,50.7173202 116.947826,48.7492084 118.102451,46.4399573 C118.312383,45.9676104 118.653523,45.731437 119.125869,45.731437 C119.598216,45.731437 120.096805,45.9676104 120.621634,46.4399573 C121.566328,47.227202 121.828743,48.2506201 121.408879,49.5102116 C120.779083,51.294633 119.519492,53.3414692 117.630104,55.6507204 C113.956296,59.9543248 108.865447,62.106127 102.357557,62.106127 C100.730585,62.106127 99.1560953,61.948678 97.6340889,61.6337801 C93.2255185,60.6890865 91.0212333,57.8287641 91.0212333,53.0528128 C91.0212333,50.0612829 91.913444,46.9647871 93.6978653,43.7633252 C95.9546335,39.8271017 98.8543182,36.4681909 102.396919,33.686593 C105.939521,30.904995 109.364035,29.514196 112.670463,29.514196 C114.087503,29.514196 115.333974,29.9078184 116.409875,30.6950631 C117.485776,31.4823078 118.023727,32.6106919 118.023727,34.0802153 Z" id="Path"></path>
            <path d="M153.024627,47.6208243 C151.135239,52.1868436 148.589815,55.7294448 145.388353,58.2486279 C142.501789,60.4529131 139.484018,61.5550557 136.335039,61.5550557 C132.346332,61.5550557 130.142047,59.7706343 129.722183,56.2017917 C129.564734,54.8897171 129.866511,53.1184165 130.627515,50.8878899 C131.388518,48.6573632 131.769019,47.3059264 131.769019,46.8335796 C131.769019,45.888886 130.929292,45.4690221 129.249836,45.5739881 C127.570381,45.678954 126.651929,45.2853317 126.49448,44.393121 L118.779482,60.2954641 C118.517067,60.767811 118.202169,61.0039844 117.834788,61.0039844 L111.930453,61.0039844 C111.405623,61.0039844 111.274416,60.7415695 111.53683,60.2167397 L135.232896,9.75435379 C135.757726,8.6522112 136.728661,7.6943968 138.145702,6.8809106 C139.562742,6.0674244 140.874817,5.63443981 142.081925,5.58195683 C143.341517,5.52947385 143.971312,6.00182068 143.971312,6.99899731 C143.971312,7.36637817 143.866347,7.81248351 143.656415,8.33731331 C140.664885,14.8452029 135.600277,25.4730065 128.462592,40.220724 C128.829973,40.5881049 129.223595,40.7455539 129.643459,40.6930709 C130.325738,40.5881049 131.42788,39.6171698 132.949887,37.7802654 C134.996723,35.3135654 136.571212,33.63411 137.673355,32.7418993 C139.825157,30.957478 142.029442,30.0652673 144.28621,30.0652673 C147.750087,30.0652673 149.613233,31.6922397 149.875648,34.9461845 C149.980614,36.6781229 149.482025,38.2788538 148.379883,39.7483772 C147.27774,41.2179007 145.913183,41.9526624 144.28621,41.9526624 C143.446483,41.9526624 142.816687,41.6508853 142.396823,41.047331 C141.976959,40.4437767 141.793269,39.7746187 141.845752,39.039857 C142.055684,37.3604016 143.026619,36.205776 144.758557,35.5759803 C145.545802,35.2610824 145.939424,34.7887356 145.939424,34.1589398 C145.939424,33.7390759 145.598285,33.5553855 144.916006,33.6078685 C143.761381,33.7128345 141.81951,35.3398068 139.090395,38.4887857 C137.673355,40.220724 136.256314,41.9526624 134.839274,43.6846008 C137.568389,44.2094306 138.801739,45.7051955 138.539324,48.1718956 C138.539324,48.6967254 138.408117,49.5102116 138.145702,50.6123542 C137.883287,51.7144968 137.752079,52.5017415 137.752079,52.9740883 C137.752079,54.2861629 138.434358,54.9422001 139.798916,54.9422001 C141.425888,54.9422001 143.210309,53.8400575 145.15218,51.6357723 C146.936601,49.5889361 148.432366,47.1484775 149.639474,44.3143965 C149.849406,43.8945327 150.216787,43.7370838 150.741617,43.8420497 C151.31893,43.9470157 151.870001,44.288155 152.394831,44.8654678 C152.919661,45.4427806 153.182076,46.0725764 153.182076,46.7548551 C153.182076,47.069753 153.129593,47.3584094 153.024627,47.6208243 Z" id="Path"></path>
            <path d="M156.771911,47.4633754 C163.43725,44.4193625 167.740854,40.6668294 169.682725,36.205776 C169.997623,35.4710143 170.155072,34.86746 170.155072,34.3951132 C170.155072,33.6603515 169.813932,33.2404876 169.131653,33.1355217 C167.977028,32.9780727 166.271331,34.0408531 164.014563,36.3238627 C161.757795,38.6068724 159.842166,41.2703837 158.267676,44.3143965 C157.690364,45.4165391 157.191775,46.4661987 156.771911,47.4633754 Z M177.397723,49.5102116 C176.767927,51.294633 175.508336,53.3414692 173.618948,55.6507204 C169.94514,59.9543248 164.85429,62.106127 158.346401,62.106127 C156.719428,62.106127 155.144939,61.948678 153.622933,61.6337801 C149.266845,60.6890865 147.088802,57.8550055 147.088802,53.1315373 C147.088802,50.0875244 147.954771,46.9647871 149.686709,43.7633252 C151.890994,39.7746187 154.777558,36.415708 158.346401,33.686593 C161.915244,30.957478 165.352879,29.566679 168.659307,29.514196 C170.286279,29.514196 171.54587,29.8290939 172.438081,30.4588897 C173.435258,31.2461344 173.881363,32.4270014 173.776397,34.0014908 C173.461499,37.6752995 171.257214,41.2703837 167.163542,44.7867434 C163.647182,47.8307562 159.894649,50.0087999 155.905942,51.3208745 C155.643527,54.2599214 156.509497,56.0181012 158.50385,56.595414 C159.238612,56.8053459 159.999615,56.9103119 160.786859,56.9103119 C164.040804,56.9103119 167.111059,55.3883055 169.997623,52.3442926 C171.572112,50.7173202 172.936669,48.7492084 174.091295,46.4399573 C174.301227,45.9676104 174.642366,45.731437 175.114713,45.731437 C175.58706,45.731437 176.085648,45.9676104 176.610478,46.4399573 C177.555172,47.227202 177.817587,48.2506201 177.397723,49.5102116 Z" id="Shape"></path>
            <path d="M196.338831,47.7782733 C192.297641,57.0152779 186.262098,61.6337801 178.232202,61.6337801 C176.027917,61.6337801 174.269737,61.0433466 172.957663,59.8624796 C171.645588,58.6816125 170.989551,57.0940023 170.989551,55.0996491 C170.989551,53.5251596 171.409415,51.8719457 172.249142,50.1400074 L178.940722,35.9696026 L177.444958,35.9696026 C176.867645,35.9696026 176.578988,35.4710143 176.578988,34.4738377 C176.578988,33.3192121 176.972611,32.3220355 177.759855,31.4823078 C178.5471,30.6425801 179.518035,30.2227162 180.672661,30.2227162 L181.696079,30.2227162 L186.419547,20.2247084 C187.049343,18.9126339 188.23021,17.8892158 189.962148,17.1544541 C191.379189,16.5771413 192.717505,16.3672094 193.977096,16.5246583 C194.764341,16.6821072 195.157963,17.0494881 195.157963,17.6268009 C195.157963,17.8892158 195.079239,18.1778722 194.92179,18.4927701 L189.568526,30.2227162 L193.50475,30.2227162 C194.082062,30.2227162 194.265753,30.7213046 194.055821,31.7184812 C193.845889,32.6631748 193.33418,33.6078685 192.520694,34.5525621 C191.707208,35.4972558 190.828118,35.9696026 189.883424,35.9696026 L186.891894,35.9696026 L180.908834,49.0378648 C180.226555,50.5073883 179.885416,51.7144968 179.885416,52.6591905 C179.885416,54.3386458 180.803868,55.1783735 182.640773,55.1783735 C183.900364,55.1783735 185.159956,54.7060267 186.419547,53.7613331 C188.886247,51.8719457 191.143015,48.6967254 193.189852,44.2356721 C193.50475,43.6058763 194.134545,43.5796348 195.079239,44.1569476 C196.076416,44.7342604 196.575004,45.6002296 196.575004,46.7548551 C196.575004,47.122236 196.496279,47.4633754 196.338831,47.7782733 Z" id="Path"></path>
            <path d="M229.135445,22.9800649 C228.87303,22.4552351 228.768064,21.8779223 228.820547,21.2481266 C228.87303,20.7757797 229.030479,20.3821574 229.292894,20.0672595 C229.502826,19.9098105 229.607792,19.8573276 229.607792,19.9098105 C229.975173,20.2771914 230.421278,20.4608818 230.946108,20.4608818 C231.628387,20.4608818 232.271303,20.145984 232.874858,19.5161882 C233.478412,18.8863924 233.832672,18.1516307 233.937638,17.311903 C234.200053,15.6849306 233.62274,14.0579582 232.2057,12.4309858 C230.788659,10.8040134 229.082962,9.64938783 227.088609,8.96710908 C225.671568,8.44227928 224.228286,8.17986437 222.758763,8.17986437 C219.347369,8.17986437 217.011877,9.38697293 215.752285,11.80119 C215.227455,12.7983667 214.96504,13.8480263 214.96504,14.9501689 C214.96504,18.6764605 217.825363,23.6361022 223.546008,29.8290939 L226.616262,33.1355217 C232.126975,39.0660985 234.882332,43.9732572 234.882332,47.8569977 C234.882332,49.6939021 234.383743,51.5832894 233.386567,53.5251596 C231.812077,56.6216555 229.056721,59.1802008 225.120497,61.2007956 C221.184274,63.2213903 216.854428,64.2316877 212.130959,64.2316877 C209.979157,64.2316877 207.827355,63.9955143 205.675553,63.5231674 C201.529397,62.5784738 198.157366,60.8202939 195.559458,58.2486279 C192.961551,55.6769618 191.662597,52.8953639 191.662597,49.903834 C191.662597,47.01727 192.725377,44.498087 194.850938,42.3462848 C196.976499,40.1944826 199.482561,39.1973059 202.369125,39.3547549 C204.625893,39.4597208 206.069175,40.430656 206.698971,42.2675603 C206.908903,42.7923901 206.935144,43.1335295 206.777695,43.2909784 C206.777695,43.2909784 206.777695,43.2909784 206.777695,43.2909784 C206.51528,43.2384954 206.252866,43.2122539 205.990451,43.2122539 C204.940791,43.2122539 203.917373,43.6452385 202.920196,44.5112077 C201.92302,45.3771769 201.345707,46.4399573 201.188258,47.6995488 C200.925843,49.4839701 201.463794,51.189667 202.80211,52.8166394 C204.140426,54.4436118 205.964209,55.7032033 208.27346,56.595414 C210.215331,57.3826587 212.31465,57.7762811 214.571418,57.7762811 C219.242403,57.7762811 222.365141,56.4642066 223.93963,53.8400575 C224.46446,52.8953639 224.726875,51.8719457 224.726875,50.7698032 C224.726875,47.6733073 222.680039,43.9732572 218.586366,39.6696528 L214.96504,35.8908781 C209.244395,29.8553354 206.384073,23.6885851 206.384073,17.3906275 C206.384073,14.7139955 206.987627,12.3260198 208.194736,10.2267006 C211.553647,4.13867486 217.011877,1.09466199 224.569426,1.09466199 C226.143915,1.09466199 227.770888,1.25211093 229.450343,1.56700881 C233.648981,2.35425352 236.981651,4.0337089 239.448351,6.60537495 C241.705119,9.01959206 242.833503,11.7224656 242.833503,14.7139955 C242.833503,15.868621 242.623571,17.0232466 242.203707,18.1778722 C241.521429,20.0147765 240.301199,21.6417489 238.543019,23.0587894 C236.78484,24.4758299 235.03978,25.1843501 233.307842,25.1843501 C231.313489,25.1843501 229.92269,24.4495884 229.135445,22.9800649 Z" id="Path"></path>
            <path d="M249.099971,30.6163386 C249.25742,30.3014407 249.519835,30.1439918 249.887216,30.1439918 L256.421347,30.1439918 C256.788728,30.1439918 256.867452,30.3801652 256.65752,30.852512 L248.470175,49.0378648 C247.840379,50.5073883 247.525482,51.7407383 247.525482,52.7379149 C247.525482,54.1549554 248.286485,54.8634756 249.808491,54.8634756 C252.800021,54.8634756 256.001483,51.3208745 259.412877,44.2356721 C259.780258,43.6058763 260.436295,43.5796348 261.380988,44.1569476 C262.378165,44.7342604 262.876753,45.6002296 262.876753,46.7548551 C262.876753,47.122236 262.798029,47.4633754 262.64058,47.7782733 C261.118574,51.3471159 259.176703,54.3124043 256.814969,56.6741385 C253.613507,59.8231173 250.044665,61.4763312 246.108441,61.6337801 C243.851673,61.7387461 242.054131,61.1745541 240.715815,59.941204 C239.377499,58.707854 238.708341,57.0677608 238.708341,55.0209246 C238.708341,53.4464352 239.101963,51.8194628 239.889208,50.1400074 L249.099971,30.6163386 Z M253.66599,20.6183308 C254.505718,19.0438414 255.581619,17.6924046 256.893694,16.5640205 C258.205768,15.4356364 259.412877,14.8714444 260.515019,14.8714444 C261.827094,14.8714444 262.483131,15.6324476 262.483131,17.1544541 C262.483131,18.1516307 262.141992,19.3062563 261.459713,20.6183308 C260.619985,22.1928202 259.544084,23.5311362 258.23201,24.6332788 C256.919935,25.7354214 255.712827,26.2864927 254.610684,26.2864927 C253.298609,26.2864927 252.642572,25.5254895 252.642572,24.003483 C252.642572,23.0063064 252.983712,21.8779223 253.66599,20.6183308 Z" id="Shape"></path>
            <path d="M271.58368,31.2461344 L270.245364,34.3163887 C273.131928,31.3773418 276.070975,29.9340598 279.062505,29.9865428 C281.739137,29.9865428 283.392351,31.3511003 284.022146,34.0802153 C286.803744,31.2461344 289.71655,29.8553354 292.760563,29.9078184 C294.282569,29.9603013 295.515919,30.5113726 296.460613,31.5610322 C297.405306,32.6106919 297.877653,34.0014908 297.877653,35.7334292 C297.877653,36.153293 297.851412,36.5731569 297.798929,36.9930207 C297.588997,38.4625442 296.565579,41.1654177 294.728674,45.1016412 C292.996736,48.7754499 292.130767,51.3471159 292.130767,52.8166394 C292.130767,54.1811969 292.89177,54.8634756 294.413776,54.8634756 C297.510272,54.8634756 300.764217,51.2683915 304.175611,44.0782231 C304.438026,43.5533933 305.067822,43.6058763 306.064998,44.2356721 C307.062175,44.8654678 307.560763,45.678954 307.560763,46.6761307 C307.560763,47.0959945 307.482039,47.4896169 307.32459,47.8569977 C305.22527,52.632949 302.522397,56.2017917 299.215969,58.5635258 C296.486854,60.557879 293.679015,61.5550557 290.792451,61.5550557 C286.226431,61.5550557 283.943422,59.4557365 283.943422,55.257098 C283.943422,53.7350916 284.337044,52.0293947 285.124289,50.1400074 L288.037094,43.2122539 C289.086754,40.5881049 289.611584,38.6462346 289.611584,37.3866431 C289.611584,36.2320175 289.217961,35.6547047 288.430717,35.6547047 C287.328574,35.6547047 285.911534,36.9667792 284.179595,39.5909283 C283.182419,41.0604517 282.001552,43.2647369 280.636994,46.2037838 L274.260312,60.0592907 C273.945414,60.7415695 273.578033,61.0827089 273.158169,61.0827089 L266.938936,61.0827089 C266.361623,61.0827089 266.204174,60.7940525 266.466589,60.2167397 L274.496485,43.1335295 C275.546145,40.9817273 276.070975,39.1448229 276.070975,37.6228165 C276.070975,36.310742 275.598628,35.6547047 274.653934,35.6547047 C272.449649,35.6547047 269.615568,39.1710644 266.151691,46.2037838 L259.223938,60.3741886 C259.014006,60.8465354 258.672867,61.0827089 258.20052,61.0827089 L252.060011,61.0827089 C251.535181,61.0827089 251.377732,60.8465354 251.587664,60.3741886 L265.443171,30.7737875 C265.60062,30.3539237 265.968001,30.1439918 266.545314,30.1439918 L271.032609,30.1439918 C271.714887,30.1439918 271.898578,30.5113726 271.58368,31.2461344 Z" id="Path"></path>
            <path d="M351.032416,45.888886 C353.446633,43.107288 355.834609,39.9320677 358.196343,36.363225 C361.292839,31.6397567 363.916988,26.8113225 366.06879,21.8779223 C368.220592,16.9445221 369.296493,13.2182305 369.296493,10.6990474 C369.296493,8.80966014 368.640456,7.86496649 367.328381,7.86496649 C365.386511,7.86496649 363.129743,9.84619901 360.558077,13.808664 C357.986411,17.7711291 355.782126,22.5077181 353.945221,28.0184311 C351.845902,34.1589398 350.874967,40.1157581 351.032416,45.888886 Z M367.249657,38.5675102 C363.208467,45.2328487 358.458758,50.7435617 353.000528,55.0996491 C353.735289,56.6741385 354.653742,57.8550055 355.755884,58.6422503 C356.280714,59.0096311 356.543129,59.5082194 356.543129,60.1380152 C356.543129,61.5550557 355.808367,62.2635759 354.338844,62.2635759 C352.606905,62.2635759 350.953691,60.715328 349.379202,57.6188321 C344.655734,60.662845 340.352129,62.1848514 336.468389,62.1848514 C335.313763,62.1848514 334.264104,62.053644 333.31941,61.7912291 C329.015806,60.5841205 326.864003,56.542931 326.864003,49.6676606 C326.864003,47.6208243 327.100177,45.1541242 327.572524,42.2675603 C327.834939,40.9554858 328.438493,40.4568975 329.383186,40.7717953 C331.534989,41.5065571 333.765515,41.9264209 336.074766,42.0313869 C338.908847,42.1888358 341.296823,42.0838699 343.238693,41.716489 C343.920972,41.5590401 344.288353,41.9001794 344.340836,42.7399071 C344.340836,43.8420497 343.894731,44.5243285 343.00252,44.7867434 C341.165616,45.3640562 339.30247,45.6527125 337.413082,45.6527125 C335.681144,45.6527125 334.237862,45.4427806 333.083237,45.0229168 C332.873305,44.9179508 332.663373,44.8917093 332.453441,44.9441923 C332.08606,45.0491583 331.90237,45.7576785 331.90237,47.069753 C331.90237,49.1690722 332.374716,50.9797351 333.31941,52.5017415 C334.36907,54.2861629 335.891076,55.1783735 337.885429,55.1783735 C340.352129,55.1783735 343.474867,53.3939522 347.253641,49.8251095 C347.096192,48.513035 347.017468,47.0959945 347.017468,45.5739881 C347.017468,39.5384453 348.119611,33.1092802 350.323896,26.2864927 C352.738113,18.8339094 356.162627,12.470348 360.597439,7.19580849 C365.032251,1.92126893 368.929112,-0.453585941 372.288023,0.0712438651 C375.594451,0.543590691 377.247665,3.61384506 377.247665,9.28200697 C377.247665,17.7317668 373.914996,27.4936012 367.249657,38.5675102 Z" id="Shape"></path>
            <path d="M383.12051,31.0886854 L381.624745,34.4738377 C384.35386,31.3248588 387.34539,29.8290939 390.599335,29.9865428 C394.010729,30.0915088 395.716426,32.0071376 395.716426,35.7334292 C395.716426,36.153293 395.690184,36.5731569 395.637701,36.9930207 C395.480252,38.3050953 394.456834,41.0079688 392.567447,45.1016412 C390.835508,48.9853818 389.969539,51.5570479 389.969539,52.8166394 C389.969539,54.1811969 390.730543,54.8634756 392.252549,54.8634756 C395.296562,54.8634756 398.550507,51.2683915 402.014383,44.0782231 C402.276798,43.5533933 402.906594,43.6058763 403.903771,44.2356721 C404.900947,44.8654678 405.399536,45.7051955 405.399536,46.7548551 C405.399536,47.122236 405.320811,47.5158584 405.163362,47.9357222 C403.064043,52.6591905 400.361169,56.2017917 397.054742,58.5635258 C394.325627,60.557879 391.517787,61.5550557 388.631223,61.5550557 C386.531904,61.5550557 384.799966,60.9908636 383.435408,59.8624796 C382.070851,58.7340955 381.388572,57.1202438 381.388572,55.0209246 C381.388572,53.4989181 381.808436,51.8719457 382.648163,50.1400074 L386.033316,43.1335295 C387.082975,41.0342102 387.607805,39.2235474 387.607805,37.701541 C387.607805,36.3369835 387.109217,35.6547047 386.11204,35.6547047 C384.852449,35.6547047 383.251718,36.9142963 381.309847,39.4334793 C379.892807,41.2703837 378.554491,43.5533933 377.294899,46.2825083 L370.760768,60.3741886 C370.550836,60.8465354 370.209697,61.0827089 369.73735,61.0827089 L363.518117,61.0827089 C363.04577,61.0827089 362.914563,60.8465354 363.124495,60.3741886 L376.743828,30.852512 C376.95376,30.3801652 377.347382,30.1439918 377.924695,30.1439918 L382.41199,30.1439918 C383.146752,30.1439918 383.382925,30.4588897 383.12051,31.0886854 Z" id="Path"></path>
            <path d="M420.483144,46.2825083 C420.430661,49.1165893 419.512209,51.9244287 417.727788,54.7060267 C417.517856,55.0734076 417.465373,55.3358225 417.570339,55.4932714 C417.885237,55.9131353 418.803689,55.5457544 420.325695,54.3911288 C421.375355,53.4989181 422.188841,52.7379149 422.766154,52.1081192 C424.970439,49.5889361 426.623653,46.9385456 427.725796,44.1569476 C427.830762,43.8945327 428.040693,43.7633252 428.355591,43.7633252 C428.985387,43.7633252 429.615183,44.0388609 430.244979,44.5899322 C430.874774,45.1410035 431.189672,45.78392 431.189672,46.5186817 C431.189672,47.9357222 430.192496,50.0350414 428.198142,52.8166394 C426.466204,55.1258905 424.891715,56.8578289 423.474674,58.0124545 C420.535627,60.3741886 417.465373,61.5550557 414.263911,61.5550557 C412.846871,61.5550557 411.587279,61.2663993 410.485136,60.6890865 C408.070919,61.6862631 405.78791,62.1848514 403.636107,62.1848514 C401.904169,62.1848514 400.32968,61.8437121 398.912639,61.1614333 C396.131041,59.9018418 394.818967,57.7500396 394.976416,54.7060267 C395.133865,52.5017415 396.026075,50.6123542 397.653048,49.0378648 C401.74672,44.9966753 405.9716,39.0136155 410.327687,31.0886854 C411.062449,29.8290939 411.482313,28.9631247 411.587279,28.4907779 C412.217075,26.2864927 413.607874,25.1843501 415.759676,25.1843501 C417.59658,25.1843501 418.515032,25.9978363 418.515032,27.6248087 C418.515032,28.3070874 418.305101,29.0156077 417.885237,29.7503694 C417.727788,30.0127843 417.045509,30.747546 415.8384,31.9546546 C414.998673,32.8468653 414.578809,33.686593 414.578809,34.4738377 C414.578809,34.8937015 415.038035,35.7465499 415.956487,37.032383 C416.874939,38.318216 417.832754,39.6171698 418.82993,40.9292443 C419.932073,42.6611826 420.483144,44.445604 420.483144,46.2825083 Z M411.744728,50.0612829 C412.112109,48.6442424 412.295799,47.227202 412.295799,45.8101615 C412.295799,43.4484274 411.875935,41.5065571 411.036208,39.9845506 C409.199303,43.7108423 407.02126,46.8073381 404.502077,49.2740382 C405.499253,50.0087999 405.997842,50.9797351 405.997842,52.1868436 C405.997842,52.8166394 405.840393,53.4989181 405.525495,54.2336799 C404.685767,56.3854821 403.058795,57.4613832 400.644578,57.4613832 C400.32968,57.4613832 400.041023,57.4351417 399.778608,57.3826587 C400.460887,58.4323183 401.56303,58.9571481 403.085036,58.9571481 C407.493607,59.0096311 410.38017,56.0443427 411.744728,50.0612829 Z" id="Shape"></path>
            <path d="M433.913539,30.6163386 C434.070988,30.3014407 434.333403,30.1439918 434.700784,30.1439918 L441.234915,30.1439918 C441.602296,30.1439918 441.68102,30.3801652 441.471088,30.852512 L433.283743,49.0378648 C432.653947,50.5073883 432.33905,51.7407383 432.33905,52.7379149 C432.33905,54.1549554 433.100053,54.8634756 434.622059,54.8634756 C437.613589,54.8634756 440.815051,51.3208745 444.226445,44.2356721 C444.593826,43.6058763 445.249863,43.5796348 446.194556,44.1569476 C447.191733,44.7342604 447.690321,45.6002296 447.690321,46.7548551 C447.690321,47.122236 447.611597,47.4633754 447.454148,47.7782733 C445.932142,51.3471159 443.990271,54.3124043 441.628537,56.6741385 C438.427075,59.8231173 434.858233,61.4763312 430.922009,61.6337801 C428.665241,61.7387461 426.867699,61.1745541 425.529383,59.941204 C424.191067,58.707854 423.521909,57.0677608 423.521909,55.0209246 C423.521909,53.4464352 423.915531,51.8194628 424.702776,50.1400074 L433.913539,30.6163386 Z M438.479558,20.6183308 C439.319286,19.0438414 440.395187,17.6924046 441.707262,16.5640205 C443.019336,15.4356364 444.226445,14.8714444 445.328587,14.8714444 C446.640662,14.8714444 447.296699,15.6324476 447.296699,17.1544541 C447.296699,18.1516307 446.95556,19.3062563 446.273281,20.6183308 C445.433553,22.1928202 444.357652,23.5311362 443.045578,24.6332788 C441.733503,25.7354214 440.526395,26.2864927 439.424252,26.2864927 C438.112177,26.2864927 437.45614,25.5254895 437.45614,24.003483 C437.45614,23.0063064 437.79728,21.8779223 438.479558,20.6183308 Z" id="Shape"></path>
            <path d="M476.471988,50.2187319 C475.789709,51.5308064 475.054948,52.7379149 474.267703,53.8400575 C471.013758,58.3011109 465.319355,61.5288142 457.184493,63.5231674 L452.461024,73.5998997 C451.306399,76.0141168 449.443253,77.8772627 446.871587,79.1893372 C444.614819,80.3964457 442.305568,81 439.943833,81 C438.054446,81 436.479957,80.5538947 435.220365,79.661684 C433.750842,78.6645074 433.01608,77.2474669 433.01608,75.4105626 C433.01608,74.150971 433.383461,72.7864135 434.118223,71.3168901 C435.325331,69.0076389 438.159412,66.7508708 442.620465,64.5465856 C445.507029,63.286994 448.419835,62.0274025 451.358882,60.767811 L453.248269,56.9103119 C452.198609,58.0124545 450.80781,59.0096311 449.075872,59.9018418 C447.186485,60.8990184 445.480788,61.3976067 443.958781,61.3976067 C442.909122,61.3976067 442.043153,61.1614333 441.360874,60.6890865 C440.048799,59.7968758 439.392762,58.1699034 439.392762,55.8081693 C439.392762,52.2918096 440.455543,48.5261557 442.581103,44.5112077 C444.706664,40.4962597 447.422658,37.0717452 450.729086,34.2376643 C454.350412,31.1411684 457.761805,29.619162 460.963267,29.6716449 C463.062586,29.6716449 464.269695,30.2489577 464.584593,31.4035833 L464.978215,30.6163386 C465.135664,30.3014407 465.398079,30.1439918 465.76546,30.1439918 L471.354897,30.1439918 C471.722278,30.1439918 471.801003,30.3801652 471.591071,30.852512 L460.018574,57.6188321 C461.645546,56.9365534 463.272518,56.2280331 464.899491,55.4932714 C467.261225,54.2861629 469.176854,52.6854319 470.646377,50.6910787 C471.905969,49.0116233 473.139319,46.8598211 474.346427,44.2356721 C474.713808,43.5533933 475.369845,43.5271518 476.314539,44.1569476 C477.311716,44.7867434 477.810304,45.678954 477.810304,46.8335796 C477.810304,47.4108924 477.364199,48.5392765 476.471988,50.2187319 Z M462.06541,36.363225 C462.275342,35.8383952 462.380308,35.3660483 462.380308,34.9461845 C462.380308,33.9490079 461.881719,33.4504195 460.884543,33.4504195 C459.310053,33.4504195 457.551873,34.2114228 455.610003,35.7334292 C453.405718,37.5703335 451.529451,40.0501544 449.981204,43.1728917 C448.432956,46.2956291 447.658832,48.8016914 447.658832,50.6910787 C447.658832,52.7903979 448.577284,53.8400575 450.414188,53.8400575 C452.775922,53.8400575 454.560344,52.580466 455.767452,50.0612829 L462.06541,36.363225 Z M448.839699,66.3572484 C442.279326,68.3516017 438.631759,70.4246794 437.896997,72.5764816 C437.687065,72.9963455 437.582099,73.4162093 437.582099,73.8360731 C437.582099,75.2006306 438.500551,75.8829094 440.337456,75.8829094 C442.961605,75.8829094 444.955958,74.4396274 446.320516,71.5530635 L448.839699,66.3572484 Z" id="Shape"></path>
            <path d="M498.404626,9.2032825 L487.3832,33.1355217 C489.535002,30.6688216 491.870494,29.514196 494.389678,29.6716449 C495.911684,29.7241279 497.131913,30.3014407 498.050365,31.4035833 C498.968818,32.5057259 499.428044,33.9490079 499.428044,35.7334292 C499.428044,36.153293 499.401802,36.5731569 499.349319,36.9930207 C499.19187,38.3050953 498.168452,41.0079688 496.279065,45.1016412 C494.547127,48.9853818 493.681157,51.5570479 493.681157,52.8166394 C493.681157,54.1811969 494.442161,54.8634756 495.964167,54.8634756 C499.00818,54.8634756 502.262125,51.2683915 505.726001,44.0782231 C505.988416,43.5533933 506.618212,43.6058763 507.615389,44.2356721 C508.612565,44.8654678 509.111154,45.7051955 509.111154,46.7548551 C509.111154,47.122236 509.032429,47.5158584 508.87498,47.9357222 C506.775661,52.6591905 504.072787,56.2017917 500.76636,58.5635258 C498.037245,60.557879 495.229405,61.5550557 492.342841,61.5550557 C490.243522,61.5550557 488.511584,60.9908636 487.147026,59.8624796 C485.782469,58.7340955 485.10019,57.1202438 485.10019,55.0209246 C485.10019,53.4989181 485.520054,51.8719457 486.359782,50.1400074 L489.666209,43.1335295 C490.715869,40.9292443 491.240699,39.039857 491.240699,37.4653676 C491.240699,36.310742 490.794593,35.7334292 489.902383,35.7334292 C488.642791,35.7334292 487.068302,37.0455037 485.178914,39.6696528 C483.761874,41.716489 482.502282,43.8945327 481.40014,46.2037838 L474.787284,60.3741886 C474.577352,60.8465354 474.236213,61.0827089 473.763866,61.0827089 L467.229735,61.0827089 C466.757388,61.0827089 466.626181,60.8465354 466.836113,60.3741886 L489.744934,10.5415985 C490.217281,9.54442187 491.227578,8.54724524 492.775826,7.55006861 C494.324074,6.55289197 495.727994,5.97557919 496.987585,5.81813024 C498.29966,5.6606813 498.955697,6.10678664 498.955697,7.15644625 C498.955697,7.68127606 498.772006,8.36355481 498.404626,9.2032825 Z" id="Path"></path>
            <path d="M526.635221,47.7782733 C522.594031,57.0152779 516.558489,61.6337801 508.528593,61.6337801 C506.324307,61.6337801 504.566128,61.0433466 503.254053,59.8624796 C501.941978,58.6816125 501.285941,57.0940023 501.285941,55.0996491 C501.285941,53.5251596 501.705805,51.8719457 502.545533,50.1400074 L509.237113,35.9696026 L507.741348,35.9696026 C507.164035,35.9696026 506.875379,35.4710143 506.875379,34.4738377 C506.875379,33.3192121 507.269001,32.3220355 508.056246,31.4823078 C508.84349,30.6425801 509.814426,30.2227162 510.969051,30.2227162 L511.992469,30.2227162 L516.715938,20.2247084 C517.345733,18.9126339 518.5266,17.8892158 520.258539,17.1544541 C521.675579,16.5771413 523.013895,16.3672094 524.273487,16.5246583 C525.060731,16.6821072 525.454354,17.0494881 525.454354,17.6268009 C525.454354,17.8892158 525.375629,18.1778722 525.21818,18.4927701 L519.864916,30.2227162 L523.80114,30.2227162 C524.378453,30.2227162 524.562143,30.7213046 524.352211,31.7184812 C524.142279,32.6631748 523.63057,33.6078685 522.817084,34.5525621 C522.003598,35.4972558 521.124508,35.9696026 520.179814,35.9696026 L517.188284,35.9696026 L511.205225,49.0378648 C510.522946,50.5073883 510.181806,51.7144968 510.181806,52.6591905 C510.181806,54.3386458 511.100259,55.1783735 512.937163,55.1783735 C514.196754,55.1783735 515.456346,54.7060267 516.715938,53.7613331 C519.182638,51.8719457 521.439406,48.6967254 523.486242,44.2356721 C523.80114,43.6058763 524.430936,43.5796348 525.375629,44.1569476 C526.372806,44.7342604 526.871394,45.6002296 526.871394,46.7548551 C526.871394,47.122236 526.79267,47.4633754 526.635221,47.7782733 Z" id="Path"></path>
            <path d="M542.033727,46.2825083 C541.981244,49.1165893 541.062792,51.9244287 539.278371,54.7060267 C539.068439,55.0734076 539.015956,55.3358225 539.120922,55.4932714 C539.43582,55.9131353 540.354272,55.5457544 541.876278,54.3911288 C542.925938,53.4989181 543.739424,52.7379149 544.316737,52.1081192 C546.521022,49.5889361 548.174236,46.9385456 549.276379,44.1569476 C549.381345,43.8945327 549.591277,43.7633252 549.906174,43.7633252 C550.53597,43.7633252 551.165766,44.0388609 551.795562,44.5899322 C552.425358,45.1410035 552.740255,45.78392 552.740255,46.5186817 C552.740255,47.9357222 551.743079,50.0350414 549.748726,52.8166394 C548.016787,55.1258905 546.442298,56.8578289 545.025257,58.0124545 C542.08621,60.3741886 539.015956,61.5550557 535.814494,61.5550557 C534.397454,61.5550557 533.137862,61.2663993 532.03572,60.6890865 C529.621502,61.6862631 527.338493,62.1848514 525.186691,62.1848514 C523.454752,62.1848514 521.880263,61.8437121 520.463222,61.1614333 C517.681624,59.9018418 516.36955,57.7500396 516.526999,54.7060267 C516.684448,52.5017415 517.576658,50.6123542 519.203631,49.0378648 C523.297303,44.9966753 527.522183,39.0136155 531.878271,31.0886854 C532.613032,29.8290939 533.032896,28.9631247 533.137862,28.4907779 C533.767658,26.2864927 535.158457,25.1843501 537.310259,25.1843501 C539.147163,25.1843501 540.065616,25.9978363 540.065616,27.6248087 C540.065616,28.3070874 539.855684,29.0156077 539.43582,29.7503694 C539.278371,30.0127843 538.596092,30.747546 537.388984,31.9546546 C536.549256,32.8468653 536.129392,33.686593 536.129392,34.4738377 C536.129392,34.8937015 536.588618,35.7465499 537.50707,37.032383 C538.425522,38.318216 539.383337,39.6171698 540.380513,40.9292443 C541.482656,42.6611826 542.033727,44.445604 542.033727,46.2825083 Z M533.295311,50.0612829 C533.662692,48.6442424 533.846382,47.227202 533.846382,45.8101615 C533.846382,43.4484274 533.426519,41.5065571 532.586791,39.9845506 C530.749887,43.7108423 528.571843,46.8073381 526.05266,49.2740382 C527.049836,50.0087999 527.548425,50.9797351 527.548425,52.1868436 C527.548425,52.8166394 527.390976,53.4989181 527.076078,54.2336799 C526.23635,56.3854821 524.609378,57.4613832 522.195161,57.4613832 C521.880263,57.4613832 521.591606,57.4351417 521.329192,57.3826587 C522.01147,58.4323183 523.113613,58.9571481 524.635619,58.9571481 C529.04419,59.0096311 531.930754,56.0443427 533.295311,50.0612829 Z" id="Shape"></path>
        </g>
    </g>
</svg>