<?xml version="1.0" encoding="UTF-8"?>
<svg width="535px" height="388px" viewBox="0 0 535 388" version="1.1" xmlns="http://www.w3.org/2000/svg" xmlns:xlink="http://www.w3.org/1999/xlink">
    <title>Artboard</title>
    <g id="Artboard" stroke="none" stroke-width="1" fill="none" fill-rule="evenodd">
        <rect fill="#000000" x="0" y="0" width="535" height="388"></rect>
        <g id="Group" transform="translate(0.698242, -0.000000)" fill-rule="nonzero">
            <g id="Laurel" transform="translate(266.784075, 141.542484) scale(-1, 1) rotate(-180.000000) translate(-266.784075, -141.542484) " fill="#FFFFFF">
                <g id="Left">
                    <path d="M88.0961658,282.559604 C83.9168596,280.624678 77.3622644,277.238558 75.6183812,276.150163 C65.0348145,269.529089 59.1717591,262.182418 57.2775412,253.112455 C56.7062692,250.451932 56.4356666,245.856484 56.7363361,243.982024 C56.9468048,242.591297 57.0670726,242.470364 57.9991481,242.198265 C58.5704201,242.047099 59.3822278,241.6843 59.7730982,241.351735 C60.6751067,240.656371 61.72745,240.626138 64.162873,241.261035 C68.7631164,242.440131 74.1751676,245.886717 77.2720635,249.665868 C83.5259893,257.314871 87.3144251,266.324368 89.2988438,278.266487 C89.6295803,280.352579 89.9903837,282.287505 90.0805845,282.589837 C90.2910532,283.254967 89.5393794,283.254967 88.0961658,282.559604 Z" id="Path"></path>
                    <path d="M39.7785759,269.589555 C34.2763239,258.917231 31.8709678,250.81473 31.8709678,243.105261 C31.8709678,238.660979 32.2317712,236.363255 33.4043823,232.765503 C34.9077299,228.230521 38.6059648,222.304811 40.6505175,221.155949 C41.3721243,220.732684 41.522459,220.762917 42.5447354,221.458281 C43.987949,222.425744 47.0848449,226.567694 48.7986611,229.832881 C51.6249545,235.274859 52.7374317,241.140103 52.0458918,247.035579 C51.5648206,251.298462 50.2418748,256.317175 48.3476569,261.154489 C46.6639076,265.447605 42.7251371,273.459407 42.2440658,273.640806 C42.0636641,273.701272 40.951187,271.857046 39.7785759,269.589555 Z" id="Path"></path>
                    <path d="M77.8734025,242.772696 C71.7698115,240.656371 70.5671335,240.17264 66.4479612,238.026082 C53.5191724,231.284075 46.6639076,221.700147 46.4835059,210.120827 L46.453439,207.399837 L47.4155814,207.188205 C47.9267195,207.097505 48.7986611,206.644007 49.3097993,206.190509 C50.09154,205.555611 50.5425443,205.404445 51.9556909,205.404445 C54.0603775,205.404445 57.9690811,206.311442 60.2842363,207.339371 C68.0415096,210.81619 74.9869752,219.523356 79.8878882,232.009672 C80.6996959,234.095764 83.5861232,243.619226 83.5861232,244.22389 C83.5861232,244.616922 82.3233112,244.284357 77.8734025,242.772696 Z" id="Path"></path>
                    <path d="M19.8742545,230.588711 C19.543518,229.439849 19.0023129,227.56539 18.6715764,226.386295 C15.87535,216.802366 15.1838101,205.82771 16.9276933,199.025238 C18.310773,193.643726 20.3252587,189.622708 23.7528911,185.359826 C26.1883141,182.336504 27.5713939,181.217875 29.1950092,180.915543 C30.7284237,180.613211 31.0892271,180.945777 33.0435789,184.392363 C34.847596,187.536617 36.5614121,192.766963 37.0124164,196.304248 C37.9444919,204.13465 35.1783324,212.69065 28.5636032,222.637376 C26.4589167,225.781631 21.1069994,232.614337 20.746196,232.614337 C20.5958613,232.614337 20.2049909,231.70734 19.8742545,230.588711 Z" id="Path"></path>
                    <path d="M59.0815583,204.618382 C51.1138163,198.904305 45.2808279,193.583259 41.6727938,188.776179 C39.6282411,186.085423 37.252952,181.338808 36.3509435,178.194554 C35.448935,175.020067 35.2384663,168.761792 35.8999392,164.952407 C36.5012782,161.445354 36.7418139,160.961623 37.884358,160.961623 C38.3654292,160.961623 38.8465004,160.84069 38.9367013,160.659291 C39.0269021,160.508125 39.688375,160.356959 40.3799149,160.356959 C42.9656727,160.356959 48.257456,163.531446 51.6850884,167.189665 C58.660621,174.566569 62.3588559,184.906327 62.9902619,198.753139 C63.0804627,200.83923 63.2307975,203.590453 63.2909314,204.890481 C63.4111992,206.644007 63.3510653,207.218438 63.0804627,207.218438 C62.8699941,207.218438 61.065977,206.039343 59.0815583,204.618382 Z" id="Path"></path>
                    <path d="M4.81070803,187.083119 C4.81070803,186.417988 4.96104688,184.059797 5.11138163,181.82254 C5.8630554,171.694414 8.35861232,162.654683 12.1470481,156.184776 C16.0256848,149.624168 19.7539867,145.935716 25.3163726,143.275194 C27.6615947,142.126332 29.0146075,141.944932 29.946683,142.67053 C30.2473525,142.912395 30.8787585,143.124028 31.3297627,143.124028 C32.0213026,143.124028 32.2017043,143.305427 32.4422399,144.27289 C33.7050518,149.140437 33.8553866,155.308012 32.8030433,159.691828 C30.517955,169.12459 22.6704809,177.68059 8.38867927,186.297055 C4.78064517,188.473846 4.81070803,188.473846 4.81070803,187.083119 Z" id="Path"></path>
                    <path d="M57.4579429,167.61293 C45.0703592,154.128917 40.2596471,142.67053 42.2440658,131.302842 C42.7251371,128.430686 43.7173464,125.316666 44.9500914,122.837542 C45.7618991,121.204949 45.8520999,121.114249 47.1449788,120.93285 C48.9489959,120.690984 50.4824104,121.477048 53.3387707,124.13757 C61.1261109,131.333075 64.7040781,140.826304 64.2530738,152.949822 C64.0125382,159.026697 63.5916009,162.140718 61.7575169,170.878117 C61.697383,171.240915 61.5169813,171.543247 61.3666465,171.543247 C61.2163118,171.543247 59.4423617,169.789721 57.4579429,167.61293 Z" id="Path"></path>
                    <path d="M3.55271358e-15,145.451985 C3.55271358e-15,145.391519 1.05234328,143.063561 2.34522216,140.221639 C5.83298845,132.60287 9.80182595,126.495761 14.5223372,121.477048 C17.7996349,118.000228 20.3853926,116.004836 23.9032259,114.25131 C29.8865491,111.258222 37.4333537,110.502392 38.9066343,112.739649 C39.2373708,113.223381 39.8988437,113.616412 40.7707853,113.828045 L42.153865,114.190843 L41.9734633,115.94437 C41.6126599,119.118857 40.6204505,122.353811 38.9367013,125.739931 C33.6749849,136.382021 23.6626903,142.035632 4.93097993,144.93802 C1.14254413,145.512452 3.55271358e-15,145.633384 3.55271358e-15,145.451985 Z" id="Path"></path>
                    <path d="M65.9368231,130.940043 C54.391114,115.460638 50.8732807,102.913855 54.8120513,91.2740684 C55.6839928,88.7647118 57.4880099,85.0157934 58.5403532,83.5948324 C59.26196,82.6576028 59.4122947,82.5971364 60.5548389,82.7785357 C62.7797932,83.1413342 65.0348145,85.2274259 68.6127817,90.2461392 C74.3856362,98.3184069 75.8288499,107.932568 73.1829582,120.570051 C72.0103471,126.132962 69.5448572,134.386629 68.9735851,134.56845 C68.8232503,134.598262 67.4702376,132.995902 65.9368231,130.940043 Z" id="Path"></path>
                    <path d="M6.79513088,111.167522 C7.09580038,110.683791 8.41874622,108.476766 9.7116251,106.239509 C16.8374924,93.9950575 25.677176,85.9227898 35.0881316,83.0808678 C37.3431529,82.3855039 38.3353622,82.2645711 41.7930616,82.2343379 C46.2429703,82.2041047 47.4155814,82.4762036 48.257456,83.7762317 C48.5280586,84.1994967 49.490201,84.8646273 50.3922095,85.2576591 C51.294218,85.6506909 52.0158248,86.0437226 52.0158248,86.1041891 C52.0158248,86.5576872 50.3922095,91.3345348 49.7307366,92.8159622 C48.7685942,94.9927535 46.6338407,98.3486401 44.8598906,100.434732 C42.0035302,103.790618 36.1104079,107.47907 30.7584906,109.232597 C26.0079124,110.804724 16.5668899,111.983819 8.99001828,111.983819 L6.25392576,111.983819 L6.79513088,111.167522 Z" id="Path"></path>
                    <path d="M82.5939138,106.844173 C78.775411,98.9835376 76.9112601,93.5415593 75.9190507,87.52515 C75.13731,82.959935 75.4079126,76.5504939 76.4903228,72.8318088 C78.0237373,67.6921627 81.6919053,61.2827216 84.0972613,59.5594285 L85.3300063,58.6826654 L86.3522826,59.3175628 C88.1262327,60.4361917 91.042727,64.5781418 93.0872796,68.871258 C96.8456485,76.852826 96.7253807,85.5902244 92.7565432,96.4137145 C91.7041999,99.3463361 87.344492,108.446533 85.8712114,110.925656 L85.1195377,112.134985 L82.5939138,106.844173 Z" id="Path"></path>
                    <path d="M102.558369,86.376288 C100.87462,75.85513 101.295557,65.3037389 103.640779,58.2594004 C105.955935,51.2452951 111.488253,43.6265256 116.028363,41.1474021 C117.411443,40.3613386 117.742179,40.3008722 119.125259,40.5427379 L120.68874,40.7846036 L121.650883,43.0520945 C122.192088,44.3218895 123.003896,46.5591472 123.4549,48.0405746 C124.206574,50.519698 124.296775,51.1848287 124.296775,55.7500438 C124.326841,61.5548205 123.905904,63.4595129 121.500548,68.6293923 C118.794523,74.3737026 115.427024,78.8179849 108.631893,85.6204577 C105.925868,88.3112136 103.610712,90.5182381 103.460378,90.5182381 C103.310043,90.5182381 102.919173,88.6437789 102.558369,86.376288 Z" id="Path"></path>
                    <path d="M40.1393793,80.1784794 C37.4333537,79.9970801 26.2183811,78.273787 25.9477785,78.0319213 C25.9177116,77.9714549 26.9099209,76.8225928 28.1426659,75.4016319 C29.3754109,74.0109041 30.8787585,72.0759785 31.4500305,71.1085157 C32.5625077,69.2642897 35.7195375,66.2712017 39.8086428,63.187414 C49.6706027,55.7198105 59.4423617,53.3011535 68.402313,56.0826091 C69.9958614,56.5663405 70.5370665,56.929139 71.4390751,58.0175347 C72.0404141,58.773365 73.1829582,59.7408278 73.9947659,60.194326 C74.8065735,60.617591 75.4680465,61.1315556 75.4680465,61.2827216 C75.4680465,61.766453 73.3934269,65.4246717 71.8900793,67.5409966 C69.1840537,71.4108478 66.1472917,74.1318369 62.2085212,76.278395 C59.2018261,77.9109885 56.1650641,78.8784513 51.8654901,79.6040484 C47.3855144,80.3296455 44.3788194,80.4808115 40.1393793,80.1784794 Z" id="Path"></path>
                    <path d="M128.686549,63.7920783 C128.686549,63.4292797 132.685454,53.4220864 133.346927,52.0918251 C137.496166,43.8986245 143.479489,36.1286889 148.410469,32.591403 C152.499574,29.6587814 158.122094,27.6331562 162.3014,27.6331562 C164.285819,27.6331562 164.586489,27.7238558 165.308095,28.4494529 C165.729033,28.8727179 166.631041,29.4169157 167.322581,29.598315 C168.825929,30.0518132 168.886063,30.3843785 168.22459,34.3751626 C167.683385,37.6705827 166.600974,41.1474021 165.428363,43.5055927 C161.940597,50.519698 155.325868,55.9012098 145.794644,59.4687289 C139.961656,61.6757534 128.686549,64.5176754 128.686549,63.7920783 Z" id="Path"></path>
                    <path d="M71.7096776,54.0872171 C68.6428486,53.6034857 65.2753501,52.7267225 61.4869143,51.3964612 C57.0370056,49.8848005 53.3989046,48.4940728 53.128302,48.2219739 C53.0080342,48.101041 54.0904445,47.0126454 55.563725,45.8637833 C57.2775412,44.4730555 58.4501523,43.2939602 58.8109557,42.5683631 C59.5024956,41.1474021 61.6673161,39.6659747 66.9590994,36.9449856 C71.499209,34.6170283 73.9646989,33.6495655 77.9636034,32.6216362 C84.939136,30.8378767 91.4035304,31.4425409 97.3567866,34.3751626 C98.4091299,34.8891272 99.4915401,35.6449575 99.7621427,36.0682225 C100.062812,36.4914874 101.26549,37.8217488 102.468168,39.0008441 L104.663056,41.1474021 L102.498235,43.8079248 C98.0483265,49.2196699 92.4558736,52.6964893 85.9012784,54.0872171 C83.3455876,54.6314149 75.13731,54.6314149 71.7096776,54.0872171 Z" id="Path"></path>
                    <path d="M114.434815,36.0682225 C108.66196,35.2216925 102.137432,32.591403 95.6129035,28.4796861 C92.4859406,26.4842941 85.6908097,21.5865137 85.6908097,21.3144148 C85.6908097,21.2237151 86.8634208,20.6492841 88.3066344,20.0748531 C90.3211201,19.2585563 91.01266,18.8050581 91.4035304,18.1096943 C92.1251372,16.7794329 93.3278152,16.2050019 97.8979917,15.0561398 C111.217651,11.7002532 121.350213,12.8491153 129.137554,18.6236589 C131.24224,20.1957859 132.174316,21.2539484 135.181011,25.5168313 L137.436032,28.6913186 L136.443823,29.5378486 C134.730006,31.019276 130.731102,33.3472333 128.235545,34.3146961 C123.575168,36.1589221 118.944857,36.7333531 114.434815,36.0682225 Z" id="Path"></path>
                    <path d="M151.146562,23.2493404 C143.088619,21.7074465 135.271212,17.2631643 125.138649,8.46529949 C123.605235,7.13503814 122.37249,5.95594285 122.37249,5.83501 C122.37249,5.71407715 123.003896,5.47221145 123.785636,5.26057897 C126.251126,4.65591472 128.055143,3.74891834 128.145344,3.05355446 C128.295679,2.11632487 129.979428,1.42096099 133.948266,0.665130674 C136.985028,0.12093285 138.63871,-1.06581411e-14 144.321364,-1.06581411e-14 C150.66549,-1.06581411e-14 151.266829,0.0604664249 154.002922,0.786063524 C159.475107,2.29772415 163.834815,4.83731399 167.23238,8.52576591 C168.675594,10.1281262 173.185636,16.9910654 173.185636,17.6259629 C173.185636,17.9887614 168.946196,20.4376516 166.691175,21.4051144 C161.700061,23.4609729 155.957274,24.1563367 151.146562,23.2493404 Z" id="Path"></path>
                </g>
                <g id="Right" transform="translate(360.412581, 0.000000)">
                    <path d="M83.2553867,282.831702 C83.2553867,282.015406 84.8188681,273.550106 85.3600733,271.464015 C88.2765675,260.247493 93.5683508,250.875197 99.7320754,245.91695 C102.949239,243.347127 108.962629,240.777304 111.758856,240.777304 C112.239927,240.777304 112.991601,241.049403 113.412538,241.412201 C113.863542,241.744767 114.67535,242.107565 115.276689,242.198265 C116.178697,242.349431 116.329032,242.500597 116.509434,243.437827 C116.870237,245.372752 116.419233,251.963593 115.727693,254.533416 C112.811199,265.477839 103.791114,274.094304 87.5850276,281.410741 C83.7965918,283.134035 83.2553867,283.315434 83.2553867,282.831702 Z" id="Path"></path>
                    <path d="M128.265612,268.531393 C124.597444,261.033556 122.552891,255.198546 121.560682,249.39377 C120.839075,245.312286 121.109677,239.054011 122.162021,235.546958 C123.815703,230.01428 127.995009,223.121108 130.701035,221.518748 L132.02398,220.732684 L132.805721,221.337348 C135.18101,223.121108 138.758977,229.107284 140.232258,233.823665 C142.87815,242.379664 141.49507,252.326391 135.902617,264.661542 C133.858064,269.16629 131.422641,273.731506 131.061838,273.731506 C130.911503,273.731506 129.648691,271.373315 128.265612,268.531393 Z" id="Path"></path>
                    <path d="M90.0505176,242.984328 C90.2910532,242.168032 90.7420574,240.474972 91.0727939,239.174944 C94.0193551,227.807256 100.724285,216.076769 107.308947,210.81619 C111.337918,207.61147 116.930371,205.404445 121.169811,205.404445 C122.582958,205.404445 123.033962,205.555611 123.996105,206.311442 C124.687644,206.85564 125.469385,207.218438 126.040657,207.218438 L126.942666,207.218438 L126.792331,210.634791 C126.070724,225.721164 115.607425,236.181856 94.2899576,243.165728 C89.3890447,244.768088 89.4792455,244.768088 90.0505176,242.984328 Z" id="Path"></path>
                    <path d="M149.522946,229.107284 C142.126476,219.704755 138.277906,212.418551 136.744492,205.07188 C135.87255,200.808997 136.052952,195.639118 137.225563,191.648334 C138.187705,188.292447 140.593061,183.273734 141.946074,181.762073 C142.87815,180.673678 142.998418,180.643444 144.110895,180.88531 C145.674376,181.278342 147.057456,182.457437 149.462812,185.450525 C156.799148,194.580955 158.843701,204.164884 156.438345,218.253561 C155.716738,222.455977 152.980645,232.916669 152.589775,232.916669 C152.529641,232.916669 151.146561,231.223609 149.522946,229.107284 Z" id="Path"></path>
                    <path d="M110.165307,202.169492 C110.255508,199.357803 110.496044,195.729817 110.646378,194.066991 C112.269994,178.013155 119.004991,166.312902 129.588557,161.263955 C131.512842,160.356959 133.827998,160.054627 134.218868,160.659291 C134.309069,160.84069 134.79014,160.961623 135.241144,160.961623 C135.722215,160.961623 136.233354,161.143022 136.443822,161.354655 C137.826902,163.047715 138.277906,173.145608 137.135362,177.348024 C134.850274,185.813324 130.069629,192.222765 119.937066,200.325266 C116.629702,202.985788 110.676445,207.218438 110.255508,207.218438 C110.075106,207.218438 110.045039,205.343979 110.165307,202.169492 Z" id="Path"></path>
                    <path d="M164.586488,186.115656 C148.981741,176.501494 141.765673,168.036195 140.051856,157.484804 C139.600852,154.521949 139.871455,148.233441 140.593061,145.421752 C141.1042,143.456593 141.1944,143.33566 142.336945,142.882162 C144.231162,142.126332 145.975046,142.277498 148.2,143.42636 C152.559708,145.633384 155.806939,148.535773 159.024102,153.040521 C164.887158,161.294188 167.593183,170.787417 168.435058,185.994723 C168.525259,187.47615 168.465125,188.171514 168.224589,188.171514 C168.044188,188.171514 166.420572,187.234285 164.586488,186.115656 Z" id="Path"></path>
                    <path d="M111.758856,171.361848 C111.458186,170.878117 109.774437,161.898853 109.383567,158.694132 C108.872428,154.34055 108.932562,146.872946 109.503834,143.547293 C110.856847,135.868057 114.37468,129.21675 119.696531,124.258503 C122.673159,121.446814 124.176506,120.690984 126.070724,120.93285 C127.39367,121.144482 127.544005,121.235182 128.265612,122.686376 C130.761169,127.644623 131.903713,133.721499 131.332441,138.982078 C130.580767,146.177582 127.664273,152.738189 121.680949,160.719757 C118.704321,164.680308 112.029458,171.84558 111.758856,171.361848 Z" id="Path"></path>
                    <path d="M166.691175,144.635688 C153.281315,142.307731 146.12538,139.344876 140.232258,133.691265 C136.624224,130.244679 134.279002,126.586461 132.655386,121.809613 C131.813512,119.33049 130.94157,114.674575 131.272307,114.372243 C131.422641,114.281543 132.02398,114.009444 132.655386,113.797812 C133.286792,113.616412 134.008399,113.132681 134.248935,112.739649 C135.18101,111.318688 137.526232,111.046589 142.036275,111.832653 C147.839197,112.860582 152.649909,115.521105 157.550822,120.418885 C161.008521,123.865471 164.556421,128.491153 167.23238,132.995902 C168.765794,135.535491 173.155569,144.696155 173.155569,145.300819 C173.155569,145.693851 171.832623,145.542685 166.691175,144.635688 Z" id="Path"></path>
                    <path d="M102.859038,130.81911 C97.4169205,114.130377 97.5672553,101.855693 103.279976,92.3019976 C105.20426,89.0972771 108.241022,85.3181255 109.894705,84.0483306 C110.646378,83.4738996 111.788923,82.9297018 112.450396,82.8087689 C114.134145,82.5064368 114.735484,83.1715675 116.780036,87.3135176 C119.365794,92.6647962 119.786732,94.5090221 119.786732,100.79753 C119.786732,105.634844 119.696531,106.360441 118.944857,109.081431 C117.050639,116.004836 113.562873,122.565443 107.549483,130.667944 C105.925867,132.844736 104.482654,134.658728 104.362386,134.658728 C104.242118,134.658728 103.580645,132.935435 102.859038,130.81911 Z" id="Path"></path>
                    <path d="M87.7052954,111.348921 C86.5326843,109.504695 82.8645163,102.127792 81.6017044,99.0137708 C78.6551432,91.788033 77.5426661,86.8297862 77.5426661,81.0854758 C77.5426661,77.124925 77.9936703,74.5551019 79.3466831,70.86665 C80.9402315,66.4223678 84.9391359,60.3152588 86.9536217,59.2268632 L88.0360319,58.6524322 L89.178576,59.5594285 C90.8322583,60.8896899 94.4102254,66.4223678 95.6730374,69.5666218 C99.9425444,80.3296455 98.1986612,92.0601319 89.809982,108.779098 C88.2164336,112.014052 88.1562997,112.044285 87.7052954,111.348921 Z" id="Path"></path>
                    <path d="M156.618746,111.651254 C146.696652,110.895423 140.502861,109.202363 134.519537,105.483678 C131.332441,103.518519 127.153134,99.2556365 125.288983,96.050916 C123.725502,93.3903933 121.861351,88.8554114 121.560682,86.9809522 C121.38028,85.8018569 121.38028,85.8018569 122.643092,85.378592 C123.394766,85.1367263 124.206573,84.5622952 124.627511,83.9878642 C125.800122,82.4459704 126.792331,82.2041047 131.362508,82.2343379 C134.820207,82.2645711 135.812416,82.3855039 138.067438,83.0808678 C143.509556,84.7134613 148.049665,87.6158497 153.040779,92.6043297 C157.460621,97.048612 160.256847,100.706831 163.804747,106.662774 C165.45843,109.474462 166.841509,111.80242 166.841509,111.862886 C166.841509,112.074519 160.256847,111.923352 156.618746,111.651254 Z" id="Path"></path>
                    <path d="M65.335484,86.2553551 C58.3900184,79.3621827 54.8421182,74.8272008 52.1962265,69.5061554 C48.6783933,62.4315837 47.8966526,55.931443 49.7006696,48.7661717 C50.4523434,45.7126172 52.0759587,41.4799675 52.7374317,40.8148368 C52.9479003,40.6032043 53.729641,40.421805 54.4512479,40.3915718 C58.7808888,40.2404058 66.6283629,49.3406027 69.5147902,57.8663686 C71.2586733,62.9757815 71.6495437,65.9084031 71.6495437,73.436473 C71.6495437,79.1807834 71.5292759,81.2366419 70.9580038,85.2274259 C70.5671335,87.8879486 70.1461962,90.1856727 69.9958614,90.3368388 C69.8455267,90.5182381 67.9513088,88.8554114 65.335484,86.2553551 Z" id="Path"></path>
                    <path d="M125.709921,80.2087126 C119.576263,79.694748 113.653074,77.9412217 109.624102,75.4923315 C107.489349,74.1923034 103.851248,70.8061836 102.047231,68.447993 C100.453682,66.3316681 97.9881926,62.1292516 97.9881926,61.4641209 C97.9881926,61.192022 98.6797325,60.5268913 99.581741,59.9826935 C100.453682,59.4687289 101.385758,58.6524322 101.65636,58.1687008 C102.3479,56.9593723 103.249909,56.4454076 105.986001,55.7198105 C109.473767,54.782581 114.915885,54.782581 118.584053,55.7198105 C123.515033,56.9896055 128.536214,59.5291953 133.316859,63.1571808 C137.375898,66.2409685 140.382593,69.0828904 141.735606,71.1085157 C142.457212,72.2271445 144.020694,74.1923034 145.223372,75.4923315 C146.395983,76.7923596 147.297991,77.9109885 147.207791,78.0016881 C147.11759,78.0923878 144.712234,78.5458859 141.825806,79.0296173 C137.135362,79.7854477 135.301278,79.9970801 130.310164,80.3598787 C129.498357,80.4203451 127.423737,80.3598787 125.709921,80.2087126 Z" id="Path"></path>
                    <path d="M38.9066343,62.8548487 C26.3386489,59.8617607 19.0925137,56.4756409 13.40986,50.942963 C9.50115645,47.1335782 7.03566649,42.8102288 5.65258675,37.3380174 C5.02118078,34.8286607 4.51004262,30.5053114 4.75057823,30.0820464 C4.84077908,29.9308803 5.35191724,29.7192478 5.89312236,29.6285482 C6.40426052,29.5076154 7.27620209,28.9936507 7.78734026,28.4796861 L8.77954963,27.5424565 L11.5156421,27.7238558 C13.0189897,27.8145555 15.0635423,28.1168876 16.0557517,28.3587533 C18.4911747,29.023884 22.5201461,30.9890428 24.7451005,32.591403 C29.8564821,36.2798549 35.5992697,43.686992 39.6583081,51.8499594 C41.1015217,54.6918813 44.4690202,62.9757815 44.4690202,63.6409122 C44.4690202,64.0944104 43.356543,63.9432443 38.9066343,62.8548487 Z" id="Path"></path>
                    <path d="M86.111747,53.8151182 C81.1206332,52.51509 77.1517957,50.2475991 73.3934268,46.5893804 C70.9880708,44.2311898 68.7029825,41.4195011 68.8833842,40.9962361 C68.9134512,40.84507 69.665125,40.1497061 70.4769326,39.424109 C71.3188072,38.7287451 72.2508827,37.6403495 72.6116861,37.0356853 C73.3633599,35.7054239 74.9869752,34.5565618 77.5426661,33.5588658 C81.3311019,32.0774384 83.1351189,31.7448731 87.6150946,31.7448731 C91.2231287,31.7448731 92.2754719,31.8658059 94.9814975,32.5611698 C99.0104689,33.589099 102.047231,34.7681943 106.136336,36.8845192 C111.067316,39.424109 113.803408,41.2985682 114.494948,42.6590628 C114.825685,43.3241934 115.968229,44.5032887 117.231041,45.4707515 C121.07961,48.4336063 120.778941,48.101041 120.087401,48.3731399 C119.756665,48.4940728 117.952648,49.1894367 116.05843,49.9150338 C107.038344,53.3918532 101.415825,54.5407153 93.8389534,54.5407153 C89.5694464,54.510482 88.3968353,54.3895492 86.111747,53.8151182 Z" id="Path"></path>
                    <path d="M49.3398662,35.6449575 C47.5659161,35.2216925 45.0703592,34.3449293 43.4166769,33.5588658 C40.4701157,32.168138 36.050274,29.2959829 36.050274,28.7820183 C36.050274,28.600619 36.8320147,27.3610573 37.8242241,26.0307959 C38.7863665,24.6703014 39.7785759,23.1284075 40.0491784,22.6446761 C40.5903835,21.5562805 42.8454049,19.4097224 44.7997567,18.0189946 C47.2051127,16.3864011 50.4222765,14.9049737 53.4289715,14.1189102 C56.0147293,13.4235463 56.9468048,13.3328467 61.6071821,13.3026135 C67.3199028,13.3026135 69.8755936,13.6351788 76.0092516,15.2375391 C79.8578213,16.2654683 81.1206332,16.8701325 81.6618383,18.0189946 C82.0226417,18.7143585 84.5783325,20.1353195 86.8032869,20.8004502 C87.1640903,20.921383 87.4647598,21.1330155 87.4647598,21.2841816 C87.4647598,21.6469801 82.4135121,25.3958985 78.5950093,27.9052551 C72.1306149,32.1076716 65.4858188,34.9193604 59.5325625,35.9170564 C55.6839928,36.5821871 53.0381012,36.4914874 49.3398662,35.6449575 Z" id="Path"></path>
                    <path d="M12.7483871,23.2493404 C11.605843,23.0377079 9.77175901,22.5539765 8.68934878,22.1911779 C6.49446137,21.4353476 1.8942179,19.1376235 0.721606816,18.2306271 L-4.88498131e-15,17.6259629 L2.40535607,13.6351788 C3.7283019,11.4281543 5.47218505,8.9792641 6.22385882,8.19320057 C9.62142421,4.65591472 13.8909313,2.23725772 19.1526476,0.786063524 C21.8887402,0.0604664249 22.4900792,4.43232064e-22 28.8342058,4.43232064e-22 C34.4867925,4.43232064e-22 36.1705418,0.12093285 39.1471699,0.665130674 C43.0558735,1.39072777 45.0703592,2.23725772 45.0703592,3.11402088 C45.0703592,3.71868513 46.3331711,4.32334938 49.5202679,5.26057897 C50.2118078,5.47221145 50.7830799,5.74431037 50.7830799,5.86524322 C50.7830799,5.98617607 49.7908705,6.98387208 48.6182594,8.04203451 C35.0279977,20.2260191 23.2417529,25.2144992 12.7483871,23.2493404 Z" id="Path"></path>
                </g>
            </g>
            <text id="4.7-Rating" fill="#FFFCFC" font-family="SFProDisplay-Bold, SF Pro Display" font-size="40" font-weight="bold">
                <tspan x="175" y="118">4.7 Rating</tspan>
            </text>
            <text id="App-Store-Reviews" fill="#FFFFFF" font-family="SFProDisplay-Bold, SF Pro Display" font-size="60" font-weight="bold">
                <tspan x="11" y="374">App Store Reviews</tspan>
            </text>
            <g id="Apple_logo_black" transform="translate(237.000000, 217.084968)" fill="#FFFFFF">
                <path d="M58.7424928,55.3305576 C57.6652549,57.8110996 56.3901557,60.0944242 54.9127995,62.1936831 C52.8990213,65.0555058 51.250187,67.0364351 49.9794846,68.136465 C48.0096774,69.9420887 45.8991684,70.866813 43.6391647,70.9194053 C42.0167118,70.9194053 40.0600938,70.459232 37.7825035,69.5257463 C35.497439,68.5966323 33.3974822,68.136465 31.4773586,68.136465 C29.4635816,68.136465 27.303827,68.5966323 24.9936999,69.5257463 C22.6800526,70.459232 20.8162108,70.9457014 19.391177,70.99391 C17.2239482,71.0859434 15.0637563,70.134923 12.9075183,68.136465 C11.5312921,66.9400179 9.80990886,64.8889676 7.74776468,61.983314 C5.5352489,58.8804496 3.71625417,55.282349 2.29122099,51.1802514 C0.76505947,46.7494593 0,42.4589105 0,38.3050998 C0,33.5469296 1.03151123,29.4430785 3.09761121,26.004065 C4.72138382,23.2417244 6.88157734,21.0627034 9.58522572,19.4630596 C12.2888765,17.8634182 15.2101724,17.0482579 18.3561503,16.996104 C20.0775324,16.996104 22.3348991,17.5268349 25.1401161,18.56989 C27.9374196,19.6164509 29.7335509,20.1471818 30.5210332,20.1471818 C31.1097771,20.1471818 33.1050873,19.5266069 36.4876175,18.2894054 C39.6863587,17.1420449 42.3860501,16.6669712 44.5976872,16.8541073 C50.5906534,17.3361919 55.0930719,19.6909544 58.0873566,23.9332947 C52.7275444,27.1702711 50.0762172,31.7040529 50.1289794,37.5201785 C50.1773453,42.0504539 51.8261797,45.8203513 55.0666899,48.8136577 C56.5352512,50.2029342 58.1752937,51.2766674 60,52.0392378 C59.6042851,53.1830913 59.1865802,54.2787375 58.7424928,55.3305576 Z M44.9978061,1.42040425 C44.9978061,4.97121489 43.6963237,8.2865967 41.1021585,11.3552797 C37.9715682,15.0033436 34.1849657,17.1113651 30.0787062,16.7787277 C30.0263838,16.3527399 29.9960448,15.9044026 29.9960448,15.4332754 C29.9960448,12.024501 31.4848334,8.37643892 34.1286864,5.39365262 C35.4486314,3.8834157 37.1273655,2.62767412 39.1631277,1.62594526 C41.1944918,0.639162795 43.1159349,0.09345084 44.9230563,0 C44.9758227,0.474687912 44.9978061,0.949405698 44.9978061,1.4203582 L44.9978061,1.42040425 Z" id="Path"></path>
            </g>
            <g id="Group-2" transform="translate(157.366914, 135.089260)" fill="#FFC74C">
                <g id="star">
                    <path d="M37.281475,13.778875 C37.281475,13.226125 36.863475,12.88265 36.026375,12.748175 L24.7797,11.11275 L19.738675,0.9185 C19.45515,0.306075 19.08885,5.28223298e-16 18.640875,5.28223298e-16 C18.1929,5.28223298e-16 17.826875,0.306075 17.543075,0.9185 L12.501775,11.11275 L1.25455,12.748175 C0.418275,12.88265 6.66133815e-16,13.226125 6.66133815e-16,13.778875 C6.66133815e-16,14.09265 0.186725,14.45125 0.560175,14.8544 L8.71557501,22.785675 L6.787825,33.988075 C6.75785,34.19735 6.743,34.34695 6.743,34.436325 C6.743,34.7501 6.821375,35.014925 6.978125,35.2319 C7.134875,35.4486 7.37,35.556675 7.683775,35.556675 C7.952725,35.556675 8.251375,35.467575 8.58,35.288 L18.6395,30.000025 L28.699825,35.288 C29.013875,35.4673 29.312525,35.556675 29.595775,35.556675 C29.89525,35.556675 30.122675,35.448875 30.279425,35.2319 C30.4359,35.0152 30.514275,34.7501 30.514275,34.436325 C30.514275,34.242175 30.50685,34.09285 30.491725,33.988075 L28.563975,22.785675 L36.696825,14.8544 C37.085675,14.4661 37.27955,14.1075 37.27955,13.778875" id="Path"></path>
                </g>
                <g id="star" transform="translate(196.000000, 0.000000)">
                    <path d="M37.281475,13.778875 C37.281475,13.226125 36.863475,12.88265 36.026375,12.748175 L24.7797,11.11275 L19.738675,0.9185 C19.45515,0.306075 19.08885,5.28223298e-16 18.640875,5.28223298e-16 C18.1929,5.28223298e-16 17.826875,0.306075 17.543075,0.9185 L12.501775,11.11275 L1.25455,12.748175 C0.418275,12.88265 6.66133815e-16,13.226125 6.66133815e-16,13.778875 C6.66133815e-16,14.09265 0.186725,14.45125 0.560175,14.8544 L8.71557501,22.785675 L6.787825,33.988075 C6.75785,34.19735 6.743,34.34695 6.743,34.436325 C6.743,34.7501 6.821375,35.014925 6.978125,35.2319 C7.134875,35.4486 7.37,35.556675 7.683775,35.556675 C7.952725,35.556675 8.251375,35.467575 8.58,35.288 L18.6395,30.000025 L28.699825,35.288 C29.013875,35.4673 29.312525,35.556675 29.595775,35.556675 C29.89525,35.556675 30.122675,35.448875 30.279425,35.2319 C30.4359,35.0152 30.514275,34.7501 30.514275,34.436325 C30.514275,34.242175 30.50685,34.09285 30.491725,33.988075 L28.563975,22.785675 L36.696825,14.8544 C37.085675,14.4661 37.27955,14.1075 37.27955,13.778875" id="Path"></path>
                </g>
                <g id="star" transform="translate(147.000000, 0.000000)">
                    <path d="M37.281475,13.778875 C37.281475,13.226125 36.863475,12.88265 36.026375,12.748175 L24.7797,11.11275 L19.738675,0.9185 C19.45515,0.306075 19.08885,5.28223298e-16 18.640875,5.28223298e-16 C18.1929,5.28223298e-16 17.826875,0.306075 17.543075,0.9185 L12.501775,11.11275 L1.25455,12.748175 C0.418275,12.88265 6.66133815e-16,13.226125 6.66133815e-16,13.778875 C6.66133815e-16,14.09265 0.186725,14.45125 0.560175,14.8544 L8.71557501,22.785675 L6.787825,33.988075 C6.75785,34.19735 6.743,34.34695 6.743,34.436325 C6.743,34.7501 6.821375,35.014925 6.978125,35.2319 C7.134875,35.4486 7.37,35.556675 7.683775,35.556675 C7.952725,35.556675 8.251375,35.467575 8.58,35.288 L18.6395,30.000025 L28.699825,35.288 C29.013875,35.4673 29.312525,35.556675 29.595775,35.556675 C29.89525,35.556675 30.122675,35.448875 30.279425,35.2319 C30.4359,35.0152 30.514275,34.7501 30.514275,34.436325 C30.514275,34.242175 30.50685,34.09285 30.491725,33.988075 L28.563975,22.785675 L36.696825,14.8544 C37.085675,14.4661 37.27955,14.1075 37.27955,13.778875" id="Path"></path>
                </g>
                <g id="star" transform="translate(49.000000, 0.000000)">
                    <path d="M37.281475,13.778875 C37.281475,13.226125 36.863475,12.88265 36.026375,12.748175 L24.7797,11.11275 L19.738675,0.9185 C19.45515,0.306075 19.08885,5.28223298e-16 18.640875,5.28223298e-16 C18.1929,5.28223298e-16 17.826875,0.306075 17.543075,0.9185 L12.501775,11.11275 L1.25455,12.748175 C0.418275,12.88265 6.66133815e-16,13.226125 6.66133815e-16,13.778875 C6.66133815e-16,14.09265 0.186725,14.45125 0.560175,14.8544 L8.71557501,22.785675 L6.787825,33.988075 C6.75785,34.19735 6.743,34.34695 6.743,34.436325 C6.743,34.7501 6.821375,35.014925 6.978125,35.2319 C7.134875,35.4486 7.37,35.556675 7.683775,35.556675 C7.952725,35.556675 8.251375,35.467575 8.58,35.288 L18.6395,30.000025 L28.699825,35.288 C29.013875,35.4673 29.312525,35.556675 29.595775,35.556675 C29.89525,35.556675 30.122675,35.448875 30.279425,35.2319 C30.4359,35.0152 30.514275,34.7501 30.514275,34.436325 C30.514275,34.242175 30.50685,34.09285 30.491725,33.988075 L28.563975,22.785675 L36.696825,14.8544 C37.085675,14.4661 37.27955,14.1075 37.27955,13.778875" id="Path"></path>
                </g>
                <g id="star" transform="translate(98.000000, 0.000000)">
                    <path d="M37.281475,13.778875 C37.281475,13.226125 36.863475,12.88265 36.026375,12.748175 L24.7797,11.11275 L19.738675,0.9185 C19.45515,0.306075 19.08885,5.28223298e-16 18.640875,5.28223298e-16 C18.1929,5.28223298e-16 17.826875,0.306075 17.543075,0.9185 L12.501775,11.11275 L1.25455,12.748175 C0.418275,12.88265 6.66133815e-16,13.226125 6.66133815e-16,13.778875 C6.66133815e-16,14.09265 0.186725,14.45125 0.560175,14.8544 L8.71557501,22.785675 L6.787825,33.988075 C6.75785,34.19735 6.743,34.34695 6.743,34.436325 C6.743,34.7501 6.821375,35.014925 6.978125,35.2319 C7.134875,35.4486 7.37,35.556675 7.683775,35.556675 C7.952725,35.556675 8.251375,35.467575 8.58,35.288 L18.6395,30.000025 L28.699825,35.288 C29.013875,35.4673 29.312525,35.556675 29.595775,35.556675 C29.89525,35.556675 30.122675,35.448875 30.279425,35.2319 C30.4359,35.0152 30.514275,34.7501 30.514275,34.436325 C30.514275,34.242175 30.50685,34.09285 30.491725,33.988075 L28.563975,22.785675 L36.696825,14.8544 C37.085675,14.4661 37.27955,14.1075 37.27955,13.778875" id="Path"></path>
                </g>
            </g>
        </g>
    </g>
</svg>