<?xml version="1.0" encoding="UTF-8"?>
<svg width="188px" height="155px" viewBox="0 0 188 155" version="1.1" xmlns="http://www.w3.org/2000/svg" xmlns:xlink="http://www.w3.org/1999/xlink">
    <title>􀄫</title>
    <g id="Final" stroke="none" stroke-width="1" fill="none" fill-rule="evenodd">
        <g id="􀄫" transform="translate(0.5431, 0.4994)" fill="#FFFFFF" fill-rule="nonzero">
            <path d="M186.914062,76.8066406 C186.914062,73.2818604 185.6486,70.2763875 183.117676,67.7902222 L119.114685,3.95050049 C117.784119,2.59958903 116.380819,1.60344442 114.904785,0.96206665 C113.428752,0.320688883 111.929321,0 110.406494,0 C106.884766,0 104.016368,1.10677083 101.8013,3.3203125 C99.5862325,5.53385417 98.4786987,8.28857422 98.4786987,11.5844727 C98.4786987,13.3544922 98.8080343,14.9670919 99.4667053,16.4222717 C100.125376,17.8774516 101.020304,19.1502889 102.151489,20.2407837 L124.026489,42.3217773 L158.714294,74.1165161 L163.20343,66.6671753 L127.644348,64.6530151 L12.4282837,64.6530151 C8.71429443,64.6530151 5.7144165,65.776062 3.4286499,68.0221558 C1.1428833,70.2682495 0,73.1964111 0,76.8066406 C0,80.4178874 1.1428833,83.3465576 3.4286499,85.5926514 C5.7144165,87.8387451 8.71429443,88.961792 12.4282837,88.961792 L127.644348,88.961792 L163.20343,86.9476318 L158.714294,79.5959473 L124.026489,111.29303 L102.151489,133.34198 C101.020304,134.432475 100.125376,135.705566 99.4667053,137.161255 C98.8080343,138.616943 98.4786987,140.229797 98.4786987,141.999817 C98.4786987,145.294698 99.5862325,148.04891 101.8013,150.262451 C104.016368,152.475993 106.884766,153.582764 110.406494,153.582764 C113.554891,153.582764 116.412862,152.310689 118.980408,149.766541 L183.117676,85.824585 C185.6486,83.3384196 186.914062,80.3324382 186.914062,76.8066406 Z" id="Path"></path>
        </g>
    </g>
</svg>