<?xml version="1.0" encoding="UTF-8"?>
<svg width="24px" height="24px" viewBox="0 0 24 24" version="1.1" xmlns="http://www.w3.org/2000/svg" xmlns:xlink="http://www.w3.org/1999/xlink">
    <title>Shape</title>
    <g id="Recording-window" stroke="none" stroke-width="1" fill="none" fill-rule="evenodd">
        <g id="Artboard" transform="translate(-1452.000000, -1000.000000)" fill="#FFFFFF" fill-rule="nonzero">
            <g id="RocketSim-Header-Copy-2" transform="translate(1284.000000, 741.000000)">
                <g id="RocketSim-Header-Copy" transform="translate(0.000000, -1.000000)">
                    <g id="Group-2" transform="translate(30.000000, 257.000000)">
                        <path d="M155.823422,9.17657812 C154.580391,5.58496875 151.178859,3 147.1875,3 C142.134422,3 138,7.13503125 138,12.1875 C138,16.1788594 140.584969,19.5803906 144.176578,20.8234219 C145.419609,24.4150312 148.821141,27 152.8125,27 C157.865578,27 162,22.8649687 162,17.8125 C162,13.8211406 159.415031,10.4196094 155.823422,9.17657812 Z M139.28,12.0576257 C139.28,7.76901478 142.769015,4.28 147.057626,4.28 C150.101629,4.28 152.739978,6.05938957 154,8.63842214 C153.56881,8.57638855 153.128203,8.54363819 152.680006,8.54363819 C147.629422,8.54363819 143.543638,12.657112 143.543638,17.6800057 C143.543638,18.1282031 143.576389,18.5688103 143.638422,19 C141.05939,17.7399778 139.28,15.1016291 139.28,12.0576257 Z M152.342895,18.36 L146.96,12.9771052 C147.267678,12.608199 147.608199,12.2676776 147.977105,11.96 L153.36,17.3428948 C153.052322,17.711801 152.711801,18.0523224 152.342895,18.36 L152.342895,18.36 Z M149.432189,19.64 L145.36,15.567857 C145.515425,15.0896239 145.71674,14.6319719 145.9588,14.2 L150.8,19.0412004 C150.368074,19.2832605 149.910422,19.4845754 149.432189,19.64 L149.432189,19.64 Z M145.075695,17.08 L147.92,19.9243009 C147.023415,20.009637 146.129059,19.9410362 145.271349,19.7286441 C145.059102,18.8716322 144.990313,17.9773095 145.075695,17.08 Z M154.0412,15.8 L149.2,10.9587996 C149.631972,10.7167395 150.089578,10.5154246 150.567811,10.36 L154.64,14.432143 C154.484575,14.9103761 154.28326,15.3680281 154.0412,15.8 Z M154.924305,12.92 L152.08,10.0756991 C152.976632,9.990363 153.870941,10.0589638 154.728651,10.2713559 C154.940898,11.1283678 155.009687,12.0226905 154.924305,12.92 Z M152.942374,25.72 C149.898371,25.72 147.260022,23.9406161 146,21.3615917 C152.063831,22.2339012 157.230329,17.0391197 156.361625,11 C158.94061,12.2600651 160.72,14.8984053 160.72,17.9423991 C160.72,22.2309963 157.230985,25.72 152.942374,25.72 L152.942374,25.72 Z" id="Shape"></path>
                    </g>
                </g>
            </g>
        </g>
    </g>
</svg>