<?xml version="1.0" encoding="UTF-8"?>
<svg width="188px" height="100px" viewBox="0 0 188 100" version="1.1" xmlns="http://www.w3.org/2000/svg" xmlns:xlink="http://www.w3.org/1999/xlink">
    <title>file-sizes-icon</title>
    <g id="file-sizes-icon" stroke="none" stroke-width="1" fill="none" fill-rule="evenodd">
        <g id="Group" transform="translate(2.000000, 2.000000)" stroke-linecap="round" stroke-linejoin="round" stroke-width="4">
            <polygon id="Rectangle" stroke="#FFFDFD" points="0 0 46.5477922 0 75 28.0221221 75 95 0 95"></polygon>
            <path d="M46,0 C46,18.6666667 46,28 46,28 C46,28 55.6666667,28 75,28" id="Path-2" stroke="#FFFFFF"></path>
        </g>
        <g id="Group" transform="translate(135.000000, 34.000000)" stroke-linecap="round" stroke-linejoin="round" stroke-width="4">
            <polygon id="Rectangle" stroke="#FFFDFD" points="0 0 31.0318615 0 50 18.5830915 50 63 0 63"></polygon>
            <path d="M30,0 C30,12 30,18 30,18 C30,18 36.3333333,18 49,18" id="Path-2" stroke="#FFFFFF"></path>
        </g>
        <path id="Line" d="M110.5,60.5 L119.5,65 L110.5,69.5 L110.5,65.5 L92.5,65.5 L92.5,64.5 L110.5,64.5 L110.5,60.5 Z" fill="#FFFFFF" fill-rule="nonzero"></path>
    </g>
</svg>