<?xml version="1.0" encoding="UTF-8"?>
<svg width="362px" height="99px" viewBox="0 0 362 99" version="1.1" xmlns="http://www.w3.org/2000/svg" xmlns:xlink="http://www.w3.org/1999/xlink">
    <title>Group 3</title>
    <g id="Website" stroke="none" stroke-width="1" fill="none" fill-rule="evenodd">
        <g id="GitHub_Logo" transform="translate(-107.000000, -288.000000)" fill="#FFFFFE">
            <g id="Group-3" transform="translate(107.908000, 288.297000)">
                <path d="M69.373,41.69 L39.106,41.69 C38.325,41.69 37.692,42.324 37.692,43.105 L37.692,57.903 C37.692,58.684 38.325,59.32 39.106,59.32 L50.913,59.32 L50.913,77.705 C50.913,77.705 48.262,78.609 40.932,78.609 C32.285,78.609 20.205,75.449 20.205,48.886 C20.205,22.316 32.784,18.821 44.593,18.821 C54.816,18.821 59.219,20.62 62.022,21.488 C62.903,21.758 63.717,20.881 63.717,20.099 L67.093,5.802 C67.093,5.435 66.969,4.996 66.553,4.697 C65.415,3.885 58.472,-2.84217094e-14 40.932,-2.84217094e-14 C20.727,-2.84217094e-14 1.3500312e-13,8.596 1.3500312e-13,49.922 C1.3500312e-13,91.248 23.73,97.406 43.727,97.406 C60.284,97.406 70.328,90.331 70.328,90.331 C70.742,90.102 70.787,89.523 70.787,89.259 L70.787,43.105 C70.787,42.324 70.154,41.69 69.373,41.69" id="Fill-3"></path>
                <path d="M225.357,4.952 C225.357,4.164 224.733,3.529 223.951,3.529 L206.909,3.529 C206.131,3.529 205.498,4.164 205.498,4.952 C205.498,4.955 205.503,37.886 205.503,37.886 L178.938,37.886 L178.938,4.952 C178.938,4.164 178.312,3.529 177.532,3.529 L160.491,3.529 C159.716,3.529 159.083,4.164 159.083,4.952 L159.083,94.129 C159.083,94.916 159.716,95.555 160.491,95.555 L177.532,95.555 C178.312,95.555 178.938,94.916 178.938,94.129 L178.938,55.984 L205.503,55.984 C205.503,55.984 205.456,94.126 205.456,94.129 C205.456,94.916 206.088,95.555 206.868,95.555 L223.95,95.555 C224.731,95.555 225.355,94.916 225.357,94.129 L225.357,4.952" id="Fill-4"></path>
                <path d="M101.532,16.653 C101.532,10.517 96.613,5.558 90.543,5.558 C84.479,5.558 79.555,10.517 79.555,16.653 C79.555,22.784 84.479,27.757 90.543,27.757 C96.613,27.757 101.532,22.784 101.532,16.653" id="Fill-5"></path>
                <path d="M100.314,75.317 C100.314,73.032 100.314,34.153 100.314,34.153 C100.314,33.371 99.683,32.732 98.904,32.732 L81.915,32.732 C81.136,32.732 80.439,33.536 80.439,34.317 C80.439,34.317 80.439,83.851 80.439,93.294 C80.439,95.027 81.519,95.543 82.916,95.543 C82.916,95.543 90.168,95.543 98.222,95.543 C99.902,95.543 100.314,94.718 100.314,93.266 C100.314,90.105 100.314,77.721 100.314,75.317" id="Fill-6"></path>
                <path d="M290.124,32.866 L273.213,32.866 C272.438,32.866 271.806,33.506 271.806,34.293 L271.806,78.018 C271.806,78.018 267.509,81.162 261.411,81.162 C255.314,81.162 253.696,78.395 253.696,72.425 C253.696,66.446 253.696,34.293 253.696,34.293 C253.696,33.506 253.066,32.866 252.289,32.866 L235.125,32.866 C234.351,32.866 233.716,33.506 233.716,34.293 C233.716,34.293 233.716,57.578 233.716,75.311 C233.716,93.047 243.6,97.386 257.197,97.386 C268.353,97.386 277.347,91.222 277.347,91.222 C277.347,91.222 277.775,94.471 277.969,94.855 C278.162,95.239 278.667,95.628 279.213,95.628 L290.132,95.579 C290.906,95.579 291.541,94.939 291.541,94.155 L291.535,34.293 C291.535,33.506 290.904,32.866 290.124,32.866" id="Fill-7"></path>
                <path d="M329.676,81.108 C323.81,80.93 319.831,78.267 319.831,78.267 L319.831,50.027 C319.831,50.027 323.756,47.621 328.572,47.191 C334.662,46.645 340.53,48.485 340.53,63.013 C340.53,78.332 337.882,81.355 329.676,81.108 Z M336.346,30.863 C326.741,30.863 320.208,35.148 320.208,35.148 L320.208,4.952 C320.208,4.164 319.578,3.529 318.802,3.529 L301.711,3.529 C300.934,3.529 300.303,4.164 300.303,4.952 L300.303,94.129 C300.303,94.916 300.934,95.555 301.713,95.555 C301.715,95.555 313.567,95.555 313.571,95.555 C314.105,95.555 314.509,95.28 314.808,94.799 C315.103,94.319 315.528,90.686 315.528,90.686 C315.528,90.686 322.516,97.309 335.745,97.309 C351.277,97.309 360.184,89.431 360.184,61.943 C360.184,34.455 345.958,30.863 336.346,30.863 L336.346,30.863 Z" id="Fill-8"></path>
                <path d="M149.294,32.724 L136.51,32.724 C136.51,32.724 136.491,15.84 136.491,15.836 C136.491,15.196 136.161,14.877 135.422,14.877 L118.002,14.877 C117.324,14.877 116.961,15.175 116.961,15.826 L116.961,33.278 C116.961,33.278 108.231,35.386 107.64,35.555 C107.053,35.726 106.62,36.268 106.62,36.915 L106.62,47.882 C106.62,48.671 107.25,49.307 108.029,49.307 L116.961,49.307 C116.961,49.307 116.961,60.777 116.961,75.691 C116.961,95.288 130.707,97.213 139.982,97.213 C144.221,97.213 149.291,95.851 150.128,95.543 C150.634,95.356 150.928,94.832 150.928,94.263 L150.943,82.199 C150.943,81.413 150.278,80.775 149.53,80.775 C148.784,80.775 146.879,81.079 144.917,81.079 C138.637,81.079 136.51,78.159 136.51,74.38 C136.51,70.603 136.509,49.307 136.509,49.307 L149.294,49.307 C150.073,49.307 150.704,48.671 150.704,47.882 L150.704,34.145 C150.704,33.358 150.073,32.724 149.294,32.724" id="Fill-9"></path>
            </g>
        </g>
    </g>
</svg>