<?xml version="1.0" encoding="UTF-8"?>
<svg width="80px" height="80px" viewBox="0 0 80 80" version="1.1" xmlns="http://www.w3.org/2000/svg" xmlns:xlink="http://www.w3.org/1999/xlink">
    <title>performance-icon</title>
    <g id="performance-icon" stroke="none" stroke-width="1" fill="none" fill-rule="evenodd">
        <g id="Rocket" fill="#FFFFFF" fill-rule="nonzero">
            <path d="M56.6206364,50.1390438 C56.4849335,52.7892516 56.2813791,56.7645633 56.0099732,62.0649789 C55.9922994,62.454464 55.847988,62.8261115 55.6012455,63.1245438 L55.4892979,63.2477994 L39.2226847,79.4846993 C38.861354,79.8399935 38.3660392,80.0261534 37.8597274,79.9970309 C36.8697712,79.9401301 36.1134455,79.09289 36.1704504,78.1047421 C36.5803816,72.0722253 36.8913638,67.4958333 37.1033972,64.375566 L37.1257364,64.0468235 L56.6206364,50.1390438 Z M78.2952399,0.00229619515 L78.4764373,0.0206657564 C79.4565187,0.170758513 80.1293568,1.08542825 79.9789893,2.06371939 C76.7408229,18.3506081 68.90526,33.367618 57.4044371,45.3488238 L56.849,45.9212962 L56.8539079,45.9263069 L37.4272528,59.6097302 C35.865227,60.3445126 34.2852469,61.0613736 32.6154952,61.7065484 C32.0043578,61.9466279 31.31539,61.8333882 30.8153128,61.4214506 L30.6943831,61.3122749 L18.6290806,49.2690113 C18.1283795,48.7642964 17.9735235,48.0122645 18.2340855,47.3514084 C18.7368065,46.0610587 19.2739997,44.8165881 19.8364726,43.599645 L20.2629236,42.6918123 L33.8382546,23.2865574 C45.9569894,11.4170701 61.2795492,3.32863557 77.932197,0.0206657564 L78.1133943,0.00229619515 L78.2952399,0.00229619515 Z M29.7342584,23.5266415 L16.2521487,42.9662897 C13.0697964,43.184074 8.29626811,43.5107504 1.93156368,43.9463518 L1.93156368,43.9463518 L1.80588344,43.9463518 C1.32336111,43.9492312 0.860364106,43.758143 0.520578614,43.4162899 C-0.177619975,42.7135422 -0.172906966,41.5786617 0.531126777,40.8817385 L0.531126777,40.8817385 L16.79774,24.6448385 C17.1141849,24.3305398 17.5367847,24.1452761 17.9827251,24.1251144 C23.2056288,23.8591264 27.1228066,23.6596355 29.7342584,23.5266415 L29.7342584,23.5266415 Z M56.1490683,15.4037267 C51.758233,15.4037267 48.1987578,18.963202 48.1987578,23.3540373 C48.1987578,27.7448725 51.758233,31.3043478 56.1490683,31.3043478 C60.5399036,31.3043478 64.0993789,27.7448725 64.0993789,23.3540373 C64.0993789,18.963202 60.5399036,15.4037267 56.1490683,15.4037267 Z" id="Combined-Shape"></path>
        </g>
    </g>
</svg>