<?xml version="1.0" encoding="UTF-8"?>
<svg width="59px" height="98px" viewBox="0 0 59 98" version="1.1" xmlns="http://www.w3.org/2000/svg" xmlns:xlink="http://www.w3.org/1999/xlink">
    <title>watermark-icon</title>
    <g id="watermark-icon" stroke="none" stroke-width="1" fill="none" fill-rule="evenodd">
        <rect id="Rectangle" stroke="#FFFFFF" stroke-width="5" x="3" y="3" width="53" height="91" rx="5"></rect>
        <path d="M18.632,51.168 C18.84,51.168 19.0453333,51.0906667 19.248,50.936 C19.4346667,50.7973333 19.5786667,50.6266667 19.68,50.424 C19.712,50.3546667 19.728,50.296 19.728,50.248 C19.728,50.1893333 19.7066667,50.16 19.664,50.16 C19.6266667,50.16 19.5893333,50.184 19.552,50.232 C19.4453333,50.3813333 19.3146667,50.456 19.16,50.456 C19.1013333,50.456 19.048,50.44 19,50.408 C18.9146667,50.3546667 18.872,50.2693333 18.872,50.152 C18.872,50.0613333 18.912,49.884 18.992,49.62 C19.072,49.356 19.112,49.1546667 19.112,49.016 C19.112,48.9146667 19.096,48.824 19.064,48.744 C18.9946667,48.5786667 18.8666667,48.456 18.68,48.376 C19.1226667,48.28 19.5066667,48.1253333 19.832,47.912 C20.2213333,47.6506667 20.464,47.3333333 20.56,46.96 C20.5973333,46.8426667 20.616,46.7226667 20.616,46.6 C20.616,46.152 20.408,45.7653333 19.992,45.44 C19.576,45.1146667 19.0453333,44.9386667 18.4,44.912 C17.6906667,44.88 17.016,45.024 16.376,45.344 C15.704,45.68 15.3226667,46.096 15.232,46.592 C15.2213333,46.6506667 15.216,46.7066667 15.216,46.76 C15.216,47.016 15.3173333,47.2373333 15.52,47.424 C15.664,47.552 15.8,47.6293333 15.928,47.656 C16.0186667,47.6773333 16.088,47.664 16.136,47.616 C16.184,47.5626667 16.1733333,47.52 16.104,47.488 C16.008,47.44 15.96,47.288 15.96,47.032 C15.96,46.8026667 16.0186667,46.5893333 16.136,46.392 C16.3173333,46.1093333 16.5893333,45.88 16.952,45.704 C17.3413333,45.5173333 17.7653333,45.4346667 18.224,45.456 C18.3146667,45.4613333 18.4,45.472 18.48,45.488 C18.3946667,45.5253333 18.3013333,45.5733333 18.2,45.632 C17.528,46.016 17.0133333,46.6373333 16.656,47.496 L16.656,47.496 L15.88,49.344 C15.7146667,49.744 15.5093333,50.04 15.264,50.232 C15.0666667,50.3866667 14.8773333,50.4506667 14.696,50.424 C14.6053333,50.408 14.5293333,50.3626667 14.468,50.288 C14.4066667,50.2133333 14.376,50.1386667 14.376,50.064 C14.376,50.032 14.368,50.0093333 14.352,49.996 C14.336,49.9826667 14.3173333,49.976 14.296,49.976 C14.232,49.9866667 14.192,50.0266667 14.176,50.096 C14.1493333,50.208 14.136,50.3066667 14.136,50.392 C14.136,50.6906667 14.2693333,50.904 14.536,51.032 C14.6693333,51.096 14.8213333,51.128 14.992,51.128 C15.3226667,51.128 15.6373333,51.016 15.936,50.792 C16.2933333,50.52 16.584,50.1146667 16.808,49.576 C17.1333333,48.776 17.2933333,48.3866667 17.288,48.408 C17.512,48.4346667 17.7306667,48.5973333 17.944,48.896 C18.0506667,49.0453333 18.104,49.2613333 18.104,49.544 C18.104,49.6506667 18.0946667,49.8106667 18.076,50.024 C18.0573333,50.2373333 18.048,50.3893333 18.048,50.48 C18.048,50.6933333 18.0853333,50.848 18.16,50.944 C18.2773333,51.0933333 18.4346667,51.168 18.632,51.168 Z M18.08,47.824 C17.8986667,47.824 17.7226667,47.8026667 17.552,47.76 L17.552,47.76 L17.68,47.44 C17.9466667,46.7946667 18.1893333,46.3493333 18.408,46.104 C18.552,45.9333333 18.7306667,45.7733333 18.944,45.624 C19.4186667,45.8213333 19.656,46.1493333 19.656,46.608 C19.656,46.7253333 19.6346667,46.84 19.592,46.952 C19.4853333,47.2506667 19.2826667,47.4746667 18.984,47.624 C18.7226667,47.7573333 18.4213333,47.824 18.08,47.824 Z M20.8208,51.12 C21.2421333,51.12 21.6821333,50.904 22.1408,50.472 C22.3328,50.616 22.5621333,50.688 22.8288,50.688 C23.0954667,50.688 23.3141333,50.6106667 23.4848,50.456 C23.5968,50.3546667 23.7114667,50.1973333 23.8288,49.984 C23.9354667,49.8026667 23.9968,49.6693333 24.0128,49.584 C24.0288,49.5253333 24.0154667,49.4626667 23.9728,49.396 C23.9301333,49.3293333 23.8768,49.2826667 23.8128,49.256 C23.7434667,49.224 23.6901333,49.2453333 23.6528,49.32 C23.3968,49.8533333 23.1541333,50.136 22.9248,50.168 C22.7968,50.184 22.6634667,50.1466667 22.5248,50.056 C22.6794667,49.8586667 22.8074667,49.656 22.9088,49.448 C23.0581333,49.128 23.1328,48.8346667 23.1328,48.568 C23.1328,48.3226667 23.0714667,48.1293333 22.9488,47.988 C22.8261333,47.8466667 22.6528,47.776 22.4288,47.776 C22.0714667,47.776 21.6901333,47.94 21.2848,48.268 C20.8794667,48.596 20.5648,48.9893333 20.3408,49.448 C20.1914667,49.768 20.1168,50.0613333 20.1168,50.328 C20.1168,50.5733333 20.1781333,50.7666667 20.3008,50.908 C20.4234667,51.0493333 20.5968,51.12 20.8208,51.12 Z M22.1968,49.624 C22.1648,49.5333333 22.1461333,49.44 22.1408,49.344 C22.1301333,49.0453333 22.2074667,48.7653333 22.3728,48.504 C22.4368,48.568 22.4688,48.6693333 22.4688,48.808 C22.4688,49.048 22.3781333,49.32 22.1968,49.624 Z M21.2448,50.416 C21.0634667,50.416 20.9728,50.296 20.9728,50.056 C20.9728,49.8746667 21.0288,49.6666667 21.1408,49.432 C21.3381333,49.016 21.5888,48.7173333 21.8928,48.536 C21.7754667,48.7493333 21.6981333,49.0213333 21.6608,49.352 C21.6394667,49.6133333 21.6954667,49.864 21.8288,50.104 C21.6101333,50.312 21.4154667,50.416 21.2448,50.416 Z M24.5376,51.104 C25.1989333,51.104 25.7162667,50.8853333 26.0896,50.448 C26.2816,50.2133333 26.4096,50.0053333 26.4736,49.824 C26.5162667,49.696 26.4896,49.592 26.3936,49.512 C26.3402667,49.464 26.2896,49.44 26.2416,49.44 C26.1936,49.44 26.1589333,49.464 26.1376,49.512 C26.0202667,49.7466667 25.8816,49.9466667 25.7216,50.112 C25.4282667,50.4213333 25.1162667,50.576 24.7856,50.576 C24.4549333,50.576 24.2896,50.416 24.2896,50.096 C24.2896,49.872 24.3682667,49.6053333 24.5256,49.296 C24.6829333,48.9866667 24.8629333,48.7253333 25.0656,48.512 C25.2842667,48.2773333 25.4736,48.16 25.6336,48.16 C25.7829333,48.16 25.8602667,48.208 25.8656,48.304 C25.7376,48.2826667 25.6149333,48.3266667 25.4976,48.436 C25.3802667,48.5453333 25.3216,48.6666667 25.3216,48.8 C25.3269333,48.944 25.4042667,49.016 25.5536,49.016 C25.7029333,49.016 25.8389333,48.9226667 25.9616,48.736 C26.0682667,48.576 26.1242667,48.416 26.1296,48.256 C26.1296,48.1066667 26.0749333,47.992 25.9656,47.912 C25.8562667,47.832 25.7296,47.792 25.5856,47.792 C25.2496,47.792 24.9016,47.9333333 24.5416,48.216 C24.1816,48.4986667 23.8869333,48.84 23.6576,49.24 C23.4762667,49.5653333 23.3856,49.88 23.3856,50.184 C23.3856,50.6693333 23.6096,50.96 24.0576,51.056 C24.2122667,51.088 24.3722667,51.104 24.5376,51.104 Z M27.9904,51.048 C28.3104,51.048 28.6170667,50.936 28.9104,50.712 C29.2357333,50.456 29.4944,50.096 29.6864,49.632 C29.6970667,49.6053333 29.7024,49.576 29.7024,49.544 C29.7024,49.4746667 29.6757333,49.4106667 29.6224,49.352 C29.5690667,49.2933333 29.5130667,49.2586667 29.4544,49.248 C29.4010667,49.2373333 29.3637333,49.2533333 29.3424,49.296 C29.2197333,49.584 29.0677333,49.832 28.8864,50.04 C28.6890667,50.264 28.5077333,50.376 28.3424,50.376 C28.2037333,50.376 28.1344,50.3093333 28.1344,50.176 C28.1344,50.128 28.1477333,50.048 28.1744,49.936 C28.2010667,49.824 28.2144,49.7413333 28.2144,49.688 C28.2410667,49.4373333 28.1157333,49.2853333 27.8384,49.232 L27.8384,49.232 L28.2704,48.704 C28.5477333,48.384 28.7450667,48.2186667 28.8624,48.208 C28.9317333,48.2026667 28.9664,48.2213333 28.9664,48.264 C28.9664,48.328 28.9264,48.376 28.8464,48.408 C28.6704,48.472 28.5717333,48.5893333 28.5504,48.76 C28.5450667,48.8346667 28.5637333,48.9026667 28.6064,48.964 C28.6490667,49.0253333 28.7130667,49.056 28.7984,49.056 C28.9637333,49.056 29.1024,48.9813333 29.2144,48.832 C29.3264,48.6826667 29.3770667,48.52 29.3664,48.344 C29.3397333,48.0133333 29.1504,47.848 28.7984,47.848 C28.5690667,47.848 28.3450667,47.9386667 28.1264,48.12 C28.0144,48.2106667 27.8544,48.3813333 27.6464,48.632 C27.4917333,48.8186667 27.3797333,48.9173333 27.3104,48.928 C27.2677333,48.9333333 27.2277333,48.9173333 27.1904,48.88 C27.9157333,47.3813333 28.4304,46.3013333 28.7344,45.64 C28.7557333,45.5866667 28.7664,45.5413333 28.7664,45.504 C28.7664,45.4026667 28.7024,45.3546667 28.5744,45.36 C28.4517333,45.3653333 28.3184,45.4093333 28.1744,45.492 C28.0304,45.5746667 27.9317333,45.672 27.8784,45.784 L27.8784,45.784 L25.4704,50.912 C25.4437333,50.9653333 25.4570667,50.992 25.5104,50.992 L25.5104,50.992 L26.1104,50.992 C26.1477333,50.992 26.1797333,50.968 26.2064,50.92 L26.2064,50.92 L26.9904,49.304 C27.0064,49.3946667 27.0997333,49.4346667 27.2704,49.424 C27.4410667,49.4133333 27.5264,49.456 27.5264,49.552 C27.5264,49.6 27.4877333,49.7373333 27.4104,49.964 C27.3330667,50.1906667 27.3024,50.3706667 27.3184,50.504 C27.3610667,50.8666667 27.5850667,51.048 27.9904,51.048 Z M30.2272,51.104 C30.8885333,51.104 31.4058667,50.8853333 31.7792,50.448 C31.9712,50.2133333 32.0992,50.0053333 32.1632,49.824 C32.2058667,49.696 32.1792,49.592 32.0832,49.512 C32.0298667,49.464 31.9792,49.44 31.9312,49.44 C31.8832,49.44 31.8485333,49.464 31.8272,49.512 C31.7098667,49.7466667 31.5712,49.9466667 31.4112,50.112 C31.1178667,50.4213333 30.8058667,50.576 30.4752,50.576 C30.3952,50.576 30.3178667,50.5653333 30.2432,50.544 C30.0405333,50.4853333 29.9525333,50.3066667 29.9792,50.008 C30.3845333,49.8746667 30.7658667,49.6533333 31.1232,49.344 C31.5392,48.9866667 31.7632,48.6213333 31.7952,48.248 C31.8058667,48.088 31.7605333,47.968 31.6592,47.888 C31.5685333,47.824 31.4405333,47.792 31.2752,47.792 C30.9392,47.7973333 30.5898667,47.9386667 30.2272,48.216 C29.8645333,48.4933333 29.5712,48.8346667 29.3472,49.24 C29.1712,49.5653333 29.0832,49.8826667 29.0832,50.192 C29.0832,50.672 29.3045333,50.96 29.7472,51.056 C29.9018667,51.088 30.0618667,51.104 30.2272,51.104 Z M30.0672,49.616 C30.1098667,49.5146667 30.1605333,49.408 30.2192,49.296 C30.3792,48.9866667 30.5738667,48.716 30.8032,48.484 C31.0325333,48.252 31.2058667,48.144 31.3232,48.16 C31.3925333,48.1706667 31.4272,48.2133333 31.4272,48.288 C31.4272,48.336 31.4112,48.3973333 31.3792,48.472 C31.1818667,48.9253333 30.7445333,49.3066667 30.0672,49.616 Z M32.248,51.056 C33.064,51.056 33.6773333,50.5866667 34.088,49.648 C34.104,49.616 34.112,49.5813333 34.112,49.544 C34.112,49.4266667 34.0613333,49.3386667 33.96,49.28 C33.864,49.2213333 33.8,49.224 33.768,49.288 C33.56,49.7413333 33.3306667,50.064 33.08,50.256 C32.952,50.352 32.824,50.4 32.696,50.4 C32.5093333,50.4 32.416,50.3146667 32.416,50.144 C32.416,50.048 32.4506667,49.9253333 32.52,49.776 L32.52,49.776 L33.128,48.448 L33.432,48.448 C33.528,48.448 33.6173333,48.4 33.7,48.304 C33.7826667,48.208 33.8346667,48.112 33.856,48.016 C33.8773333,47.9146667 33.8586667,47.864 33.8,47.864 L33.8,47.864 L33.4,47.864 L33.944,46.672 C33.96,46.64 33.968,46.6106667 33.968,46.584 C33.968,46.5253333 33.928,46.488 33.848,46.472 C33.72,46.456 33.584,46.4773333 33.44,46.536 C33.264,46.6106667 33.144,46.7146667 33.08,46.848 L33.08,46.848 L32.6,47.864 L32.496,47.864 C32.3786667,47.864 32.28,47.9066667 32.2,47.992 C32.12,48.0773333 32.08,48.1786667 32.08,48.296 C32.08,48.3973333 32.1093333,48.448 32.168,48.448 L32.168,48.448 L32.32,48.448 L31.64,49.888 C31.5546667,50.064 31.512,50.232 31.512,50.392 C31.512,50.5946667 31.5786667,50.756 31.712,50.876 C31.8453333,50.996 32.024,51.056 32.248,51.056 Z M35.6928,51.32 C36.1728,51.32 36.6128,51.2173333 37.0128,51.012 C37.4128,50.8066667 37.6928,50.5466667 37.8528,50.232 C37.9541333,50.0346667 38.0048,49.8426667 38.0048,49.656 C38.0048,49.2613333 37.7248,48.7626667 37.1648,48.16 L37.1648,48.16 L36.8528,47.824 C36.2714667,47.1946667 35.9808,46.6906667 35.9808,46.312 C35.9808,46.2 36.0074667,46.0933333 36.0608,45.992 C36.1888,45.7466667 36.4261333,45.624 36.7728,45.624 C36.9221333,45.624 37.0688,45.6506667 37.2128,45.704 C37.4154667,45.7733333 37.5888,45.8906667 37.7328,46.056 C37.8768,46.2213333 37.9354667,46.3866667 37.9088,46.552 C37.8981333,46.6373333 37.8621333,46.712 37.8008,46.776 C37.7394667,46.84 37.6741333,46.872 37.6048,46.872 C37.5514667,46.872 37.5061333,46.8533333 37.4688,46.816 C37.4688,46.8106667 37.4581333,46.816 37.4368,46.832 C37.4101333,46.864 37.3941333,46.904 37.3888,46.952 C37.3834667,47.016 37.3941333,47.0746667 37.4208,47.128 C37.5008,47.2773333 37.6421333,47.352 37.8448,47.352 C38.0208,47.352 38.1981333,47.28 38.3768,47.136 C38.5554667,46.992 38.6794667,46.8266667 38.7488,46.64 C38.7914667,46.5226667 38.8128,46.4053333 38.8128,46.288 C38.8128,45.984 38.6981333,45.7093333 38.4688,45.464 C38.2181333,45.2026667 37.8794667,45.032 37.4528,44.952 C37.2821333,44.92 37.1168,44.904 36.9568,44.904 C36.1888,44.904 35.6341333,45.2133333 35.2928,45.832 C35.1701333,46.0453333 35.1088,46.288 35.1088,46.56 C35.1088,47.2 35.3994667,47.8266667 35.9808,48.44 L35.9808,48.44 L36.3488,48.824 C36.7648,49.2613333 36.9728,49.6373333 36.9728,49.952 C36.9728,50.064 36.9461333,50.168 36.8928,50.264 C36.7328,50.5306667 36.4154667,50.664 35.9408,50.664 C35.7114667,50.664 35.4981333,50.624 35.3008,50.544 C35.0661333,50.4533333 34.8808,50.3253333 34.7448,50.16 C34.6088,49.9946667 34.5541333,49.8213333 34.5808,49.64 C34.5968,49.512 34.6554667,49.404 34.7568,49.316 C34.8581333,49.228 34.9621333,49.184 35.0688,49.184 C35.0954667,49.184 35.1221333,49.1866667 35.1488,49.192 C35.1648,49.176 35.1621333,49.1413333 35.1408,49.088 C35.0768,48.9013333 34.9301333,48.8026667 34.7008,48.792 C34.4074667,48.776 34.1528,48.8773333 33.9368,49.096 C33.7208,49.3146667 33.6128,49.5706667 33.6128,49.864 C33.6128,50.168 33.7448,50.4506667 34.0088,50.712 C34.2728,50.9733333 34.6154667,51.152 35.0368,51.248 C35.2554667,51.296 35.4741333,51.32 35.6928,51.32 Z M40.0096,47.464 C40.1216,47.464 40.2442667,47.408 40.3776,47.296 C40.5109333,47.184 40.6202667,47.048 40.7056,46.888 C40.7749333,46.7546667 40.8096,46.6373333 40.8096,46.536 C40.8096,46.3813333 40.7429333,46.304 40.6096,46.304 C40.4976,46.304 40.3749333,46.3613333 40.2416,46.476 C40.1082667,46.5906667 39.9989333,46.728 39.9136,46.888 C39.8442667,47.016 39.8096,47.1306667 39.8096,47.232 C39.8096,47.3866667 39.8762667,47.464 40.0096,47.464 Z M39.1456,51.056 C39.5456,51.04 39.9082667,50.872 40.2336,50.552 C40.4736,50.312 40.6709333,50.0106667 40.8256,49.648 C40.8416,49.616 40.8496,49.5813333 40.8496,49.544 C40.8496,49.4266667 40.7989333,49.3386667 40.6976,49.28 C40.6016,49.2213333 40.5349333,49.224 40.4976,49.288 C40.1509333,50.008 39.8256,50.368 39.5216,50.368 C39.3669333,50.368 39.2896,50.296 39.2896,50.152 C39.2896,50.0506667 39.3216,49.9253333 39.3856,49.776 L39.3856,49.776 L40.2176,47.928 C40.2389333,47.88 40.2309333,47.856 40.1936,47.856 L40.1936,47.856 L39.5296,47.856 C39.4922667,47.856 39.4656,47.872 39.4496,47.904 L39.4496,47.904 L38.5136,49.888 C38.4336,50.0586667 38.3936,50.224 38.3936,50.384 C38.3936,50.592 38.4616,50.7586667 38.5976,50.884 C38.7336,51.0093333 38.9162667,51.0666667 39.1456,51.056 Z M43.6864,51.048 C43.9797333,51.048 44.2650667,50.9466667 44.5424,50.744 C44.8784,50.504 45.1530667,50.1413333 45.3664,49.656 C45.3824,49.6186667 45.3904,49.5786667 45.3904,49.536 C45.3904,49.4346667 45.3397333,49.352 45.2384,49.288 C45.1370667,49.224 45.0730667,49.2186667 45.0464,49.272 C44.6997333,50.0026667 44.3690667,50.368 44.0544,50.368 C43.8997333,50.368 43.8224,50.2986667 43.8224,50.16 C43.8224,50.0106667 43.9104,49.7493333 44.0864,49.376 C44.2730667,48.976 44.3770667,48.7013333 44.3984,48.552 C44.4037333,48.5093333 44.4064,48.4666667 44.4064,48.424 C44.4064,48.248 44.3584,48.1066667 44.2624,48 C44.1664,47.8933333 44.0410667,47.8373333 43.8864,47.832 C43.5770667,47.8266667 43.2810667,47.968 42.9984,48.256 C42.9344,47.9786667 42.7664,47.84 42.4944,47.84 C42.1904,47.8346667 41.8917333,47.9813333 41.5984,48.28 L41.5984,48.28 L41.7344,47.968 C41.7664,47.8933333 41.7477333,47.856 41.6784,47.856 L41.6784,47.856 L41.2224,47.856 C41.1637333,47.856 41.1264,47.8773333 41.1104,47.92 L41.1104,47.92 L39.7024,50.928 C39.6810667,50.976 39.6970667,51 39.7504,51 L39.7504,51 L40.3744,51 C40.4224,51 40.4570667,50.976 40.4784,50.928 L40.4784,50.928 L41.1824,49.488 C41.5344,48.7733333 41.8224,48.416 42.0464,48.416 C42.1424,48.416 42.1904,48.4826667 42.1904,48.616 C42.1904,48.7706667 42.1370667,48.9573333 42.0304,49.176 L42.0304,49.176 L41.2144,50.912 C41.1877333,50.9706667 41.2037333,51 41.2624,51 L41.2624,51 L41.8944,51 C41.9370667,51 41.9744,50.9653333 42.0064,50.896 L42.0064,50.896 L42.6544,49.488 C42.7930667,49.1893333 42.9130667,48.9653333 43.0144,48.816 C43.1904,48.5493333 43.3344,48.416 43.4464,48.416 C43.5264,48.416 43.5664,48.4746667 43.5664,48.592 C43.5664,48.72 43.5130667,48.9173333 43.4064,49.184 L43.4064,49.184 L43.1104,49.888 C43.0304,50.08 42.9904,50.2533333 42.9904,50.408 C42.9904,50.8346667 43.2224,51.048 43.6864,51.048 Z" id="RocketSim" fill="#FFFFFF" fill-rule="nonzero"></path>
        <rect id="Rectangle" fill="#FFFFFF" x="25" y="88" width="10" height="1" rx="0.5"></rect>
    </g>
</svg>